<?xml version="1.0" encoding="utf-8" standalone="no"?>
<!DOCTYPE svg PUBLIC "-//W3C//DTD SVG 1.1//EN"
  "http://www.w3.org/Graphics/SVG/1.1/DTD/svg11.dtd">
<svg xmlns:xlink="http://www.w3.org/1999/xlink" width="625.220625pt" height="325.917102pt" viewBox="0 0 625.220625 325.917102" xmlns="http://www.w3.org/2000/svg" version="1.1">
 <metadata>
  <rdf:RDF xmlns:dc="http://purl.org/dc/elements/1.1/" xmlns:cc="http://creativecommons.org/ns#" xmlns:rdf="http://www.w3.org/1999/02/22-rdf-syntax-ns#">
   <cc:Work>
    <dc:type rdf:resource="http://purl.org/dc/dcmitype/StillImage"/>
    <dc:date>2026-03-27T18:27:24.998853</dc:date>
    <dc:format>image/svg+xml</dc:format>
    <dc:creator>
     <cc:Agent>
      <dc:title>Matplotlib v3.8.2, https://matplotlib.org/</dc:title>
     </cc:Agent>
    </dc:creator>
   </cc:Work>
  </rdf:RDF>
 </metadata>
 <defs>
  <style type="text/css">*{stroke-linejoin: round; stroke-linecap: butt}</style>
 </defs>
 <g id="figure_1">
  <g id="patch_1">
   <path d="M 0 325.917102 
L 625.220625 325.917102 
L 625.220625 0 
L 0 0 
z
" style="fill: #ffffff"/>
  </g>
  <g id="axes_1">
   <g id="patch_2">
    <path d="M 71.924598 293.48804 
L 553.296027 293.48804 
L 553.296027 50.871057 
L 71.924598 50.871057 
z
" style="fill: #ffffff"/>
   </g>
   <g id="matplotlib.axis_1">
    <g id="xtick_1">
     <g id="text_1">
      <text style="font: 700 14px 'Cambria', 'Times New Roman', 'DejaVu Serif', serif; text-anchor: middle" x="167.224801" y="315.777102" transform="rotate(-0 167.224801 315.777102)">Treatment A</text>
     </g>
    </g>
    <g id="xtick_2">
     <g id="text_2">
      <text style="font: 700 14px 'Cambria', 'Times New Roman', 'DejaVu Serif', serif; text-anchor: middle" x="312.610312" y="315.777102" transform="rotate(-0 312.610312 315.777102)">Treatment B</text>
     </g>
    </g>
    <g id="xtick_3">
     <g id="text_3">
      <text style="font: 700 14px 'Cambria', 'Times New Roman', 'DejaVu Serif', serif; text-anchor: middle" x="457.995824" y="315.777102" transform="rotate(-0 457.995824 315.777102)">Treatment C</text>
     </g>
    </g>
   </g>
   <g id="matplotlib.axis_2">
    <g id="ytick_1">
     <g id="line2d_1">
      <path d="M 71.924598 293.48804 
L 553.296027 293.48804 
" clip-path="url(#pf690ff8fdd)" style="fill: none; stroke: #e5e5e5; stroke-width: 0.6; stroke-linecap: round"/>
     </g>
     <g id="text_4">
      <text style="fill: #262626; font: 13px 'Cambria', 'Times New Roman', 'DejaVu Serif', serif; text-anchor: end" x="59.424598" y="298.029915" transform="rotate(-0 59.424598 298.029915)">0.0</text>
     </g>
    </g>
    <g id="ytick_2">
     <g id="line2d_2">
      <path d="M 71.924598 244.964643 
L 553.296027 244.964643 
" clip-path="url(#pf690ff8fdd)" style="fill: none; stroke: #e5e5e5; stroke-width: 0.6; stroke-linecap: round"/>
     </g>
     <g id="text_5">
      <text style="fill: #262626; font: 13px 'Cambria', 'Times New Roman', 'DejaVu Serif', serif; text-anchor: end" x="59.424598" y="249.506518" transform="rotate(-0 59.424598 249.506518)">0.2</text>
     </g>
    </g>
    <g id="ytick_3">
     <g id="line2d_3">
      <path d="M 71.924598 196.441247 
L 553.296027 196.441247 
" clip-path="url(#pf690ff8fdd)" style="fill: none; stroke: #e5e5e5; stroke-width: 0.6; stroke-linecap: round"/>
     </g>
     <g id="text_6">
      <text style="fill: #262626; font: 13px 'Cambria', 'Times New Roman', 'DejaVu Serif', serif; text-anchor: end" x="59.424598" y="200.983122" transform="rotate(-0 59.424598 200.983122)">0.4</text>
     </g>
    </g>
    <g id="ytick_4">
     <g id="line2d_4">
      <path d="M 71.924598 147.91785 
L 553.296027 147.91785 
" clip-path="url(#pf690ff8fdd)" style="fill: none; stroke: #e5e5e5; stroke-width: 0.6; stroke-linecap: round"/>
     </g>
     <g id="text_7">
      <text style="fill: #262626; font: 13px 'Cambria', 'Times New Roman', 'DejaVu Serif', serif; text-anchor: end" x="59.424598" y="152.459725" transform="rotate(-0 59.424598 152.459725)">0.6</text>
     </g>
    </g>
    <g id="ytick_5">
     <g id="line2d_5">
      <path d="M 71.924598 99.394453 
L 553.296027 99.394453 
" clip-path="url(#pf690ff8fdd)" style="fill: none; stroke: #e5e5e5; stroke-width: 0.6; stroke-linecap: round"/>
     </g>
     <g id="text_8">
      <text style="fill: #262626; font: 13px 'Cambria', 'Times New Roman', 'DejaVu Serif', serif; text-anchor: end" x="59.424598" y="103.936328" transform="rotate(-0 59.424598 103.936328)">0.8</text>
     </g>
    </g>
    <g id="ytick_6">
     <g id="line2d_6">
      <path d="M 71.924598 50.871057 
L 553.296027 50.871057 
" clip-path="url(#pf690ff8fdd)" style="fill: none; stroke: #e5e5e5; stroke-width: 0.6; stroke-linecap: round"/>
     </g>
     <g id="text_9">
      <text style="fill: #262626; font: 13px 'Cambria', 'Times New Roman', 'DejaVu Serif', serif; text-anchor: end" x="59.424598" y="55.412932" transform="rotate(-0 59.424598 55.412932)">1.0</text>
     </g>
    </g>
    <g id="text_10">
     <text style="font: 700 14px 'Cambria', 'Times New Roman', 'DejaVu Serif', serif; text-anchor: middle" x="35.387254" y="172.179548" transform="rotate(-90 35.387254 172.179548)">RC (0–1)</text>
    </g>
   </g>
   <g id="patch_3">
    <path d="M 71.924598 293.48804 
L 71.924598 50.871057 
" style="fill: none; stroke: #000000; stroke-linejoin: miter; stroke-linecap: square"/>
   </g>
   <g id="patch_4">
    <path d="M 71.924598 293.48804 
L 553.296027 293.48804 
" style="fill: none; stroke: #000000; stroke-linejoin: miter; stroke-linecap: square"/>
   </g>
   <g id="patch_5">
    <path d="M 93.805118 293.48804 
L 118.520655 293.48804 
L 118.520655 246.130636 
L 93.805118 246.130636 
z
" clip-path="url(#pf690ff8fdd)" style="fill: #0072b2; opacity: 0.95; stroke: #000000; stroke-width: 0.9; stroke-linejoin: miter"/>
   </g>
   <g id="patch_6">
    <path d="M 239.190629 293.48804 
L 263.906166 293.48804 
L 263.906166 169.05365 
L 239.190629 169.05365 
z
" clip-path="url(#pf690ff8fdd)" style="fill: #0072b2; opacity: 0.95; stroke: #000000; stroke-width: 0.9; stroke-linejoin: miter"/>
   </g>
   <g id="patch_7">
    <path d="M 384.576141 293.48804 
L 409.291678 293.48804 
L 409.291678 50.871057 
L 384.576141 50.871057 
z
" clip-path="url(#pf690ff8fdd)" style="fill: #0072b2; opacity: 0.95; stroke: #000000; stroke-width: 0.9; stroke-linejoin: miter"/>
   </g>
   <g id="patch_8">
    <path d="M 124.336075 293.48804 
L 149.051612 293.48804 
L 149.051612 246.130636 
L 124.336075 246.130636 
z
" clip-path="url(#pf690ff8fdd)" style="fill: url(#hcd605b86fe); opacity: 0.95; stroke: #000000; stroke-width: 0.9; stroke-linejoin: miter"/>
   </g>
   <g id="patch_9">
    <path d="M 269.721587 293.48804 
L 294.437124 293.48804 
L 294.437124 169.05365 
L 269.721587 169.05365 
z
" clip-path="url(#pf690ff8fdd)" style="fill: url(#hcd605b86fe); opacity: 0.95; stroke: #000000; stroke-width: 0.9; stroke-linejoin: miter"/>
   </g>
   <g id="patch_10">
    <path d="M 415.107098 293.48804 
L 439.822635 293.48804 
L 439.822635 50.871057 
L 415.107098 50.871057 
z
" clip-path="url(#pf690ff8fdd)" style="fill: url(#hcd605b86fe); opacity: 0.95; stroke: #000000; stroke-width: 0.9; stroke-linejoin: miter"/>
   </g>
   <g id="patch_11">
    <path d="M 154.867033 293.48804 
L 179.582569 293.48804 
L 179.582569 249.945231 
L 154.867033 249.945231 
z
" clip-path="url(#pf690ff8fdd)" style="fill: url(#hbdfec08ed2); opacity: 0.95; stroke: #000000; stroke-width: 0.9; stroke-linejoin: miter"/>
   </g>
   <g id="patch_12">
    <path d="M 300.252544 293.48804 
L 324.968081 293.48804 
L 324.968081 171.155878 
L 300.252544 171.155878 
z
" clip-path="url(#pf690ff8fdd)" style="fill: url(#hbdfec08ed2); opacity: 0.95; stroke: #000000; stroke-width: 0.9; stroke-linejoin: miter"/>
   </g>
   <g id="patch_13">
    <path d="M 445.638056 293.48804 
L 470.353592 293.48804 
L 470.353592 50.871057 
L 445.638056 50.871057 
z
" clip-path="url(#pf690ff8fdd)" style="fill: url(#hbdfec08ed2); opacity: 0.95; stroke: #000000; stroke-width: 0.9; stroke-linejoin: miter"/>
   </g>
   <g id="patch_14">
    <path d="M 185.39799 293.48804 
L 210.113527 293.48804 
L 210.113527 251.234868 
L 185.39799 251.234868 
z
" clip-path="url(#pf690ff8fdd)" style="fill: url(#hef87ee5697); opacity: 0.95; stroke: #000000; stroke-width: 0.9; stroke-linejoin: miter"/>
   </g>
   <g id="patch_15">
    <path d="M 330.783501 293.48804 
L 355.499038 293.48804 
L 355.499038 154.651517 
L 330.783501 154.651517 
z
" clip-path="url(#pf690ff8fdd)" style="fill: url(#hef87ee5697); opacity: 0.95; stroke: #000000; stroke-width: 0.9; stroke-linejoin: miter"/>
   </g>
   <g id="patch_16">
    <path d="M 476.169013 293.48804 
L 500.88455 293.48804 
L 500.88455 50.871057 
L 476.169013 50.871057 
z
" clip-path="url(#pf690ff8fdd)" style="fill: url(#hef87ee5697); opacity: 0.95; stroke: #000000; stroke-width: 0.9; stroke-linejoin: miter"/>
   </g>
   <g id="patch_17">
    <path d="M 215.928947 293.48804 
L 240.644484 293.48804 
L 240.644484 251.234868 
L 215.928947 251.234868 
z
" clip-path="url(#pf690ff8fdd)" style="fill: url(#h591e9d2eb5); stroke: #000000; stroke-width: 1.4; stroke-linejoin: miter"/>
   </g>
   <g id="patch_18">
    <path d="M 361.314459 293.48804 
L 386.029996 293.48804 
L 386.029996 154.651517 
L 361.314459 154.651517 
z
" clip-path="url(#pf690ff8fdd)" style="fill: url(#h591e9d2eb5); stroke: #000000; stroke-width: 1.4; stroke-linejoin: miter"/>
   </g>
   <g id="patch_19">
    <path d="M 506.69997 293.48804 
L 531.415507 293.48804 
L 531.415507 50.871057 
L 506.69997 50.871057 
z
" clip-path="url(#pf690ff8fdd)" style="fill: url(#h591e9d2eb5); stroke: #000000; stroke-width: 1.4; stroke-linejoin: miter"/>
   </g>
   <g id="text_11">
    <text style="font: 12px 'Cambria', 'Times New Roman', 'DejaVu Serif', serif; text-anchor: middle" x="106.162886" y="240.610636" transform="rotate(-0 106.162886 240.610636)">0.20</text>
   </g>
   <g id="text_12">
    <text style="font: 12px 'Cambria', 'Times New Roman', 'DejaVu Serif', serif; text-anchor: middle" x="251.548398" y="163.53365" transform="rotate(-0 251.548398 163.53365)">0.51</text>
   </g>
   <g id="text_13">
    <text style="font: 12px 'Cambria', 'Times New Roman', 'DejaVu Serif', serif; text-anchor: middle" x="396.933909" y="45.351057" transform="rotate(-0 396.933909 45.351057)">1.00</text>
   </g>
   <g id="text_14">
    <text style="font: 12px 'Cambria', 'Times New Roman', 'DejaVu Serif', serif; text-anchor: middle" x="136.693844" y="240.610636" transform="rotate(-0 136.693844 240.610636)">0.20</text>
   </g>
   <g id="text_15">
    <text style="font: 12px 'Cambria', 'Times New Roman', 'DejaVu Serif', serif; text-anchor: middle" x="282.079355" y="163.53365" transform="rotate(-0 282.079355 163.53365)">0.51</text>
   </g>
   <g id="text_16">
    <text style="font: 12px 'Cambria', 'Times New Roman', 'DejaVu Serif', serif; text-anchor: middle" x="427.464867" y="45.351057" transform="rotate(-0 427.464867 45.351057)">1.00</text>
   </g>
   <g id="text_17">
    <text style="font: 12px 'Cambria', 'Times New Roman', 'DejaVu Serif', serif; text-anchor: middle" x="167.224801" y="244.425231" transform="rotate(-0 167.224801 244.425231)">0.18</text>
   </g>
   <g id="text_18">
    <text style="font: 12px 'Cambria', 'Times New Roman', 'DejaVu Serif', serif; text-anchor: middle" x="312.610312" y="165.635878" transform="rotate(-0 312.610312 165.635878)">0.50</text>
   </g>
   <g id="text_19">
    <text style="font: 12px 'Cambria', 'Times New Roman', 'DejaVu Serif', serif; text-anchor: middle" x="457.995824" y="45.351057" transform="rotate(-0 457.995824 45.351057)">1.00</text>
   </g>
   <g id="text_20">
    <text style="font: 12px 'Cambria', 'Times New Roman', 'DejaVu Serif', serif; text-anchor: middle" x="197.755758" y="245.714868" transform="rotate(-0 197.755758 245.714868)">0.17</text>
   </g>
   <g id="text_21">
    <text style="font: 12px 'Cambria', 'Times New Roman', 'DejaVu Serif', serif; text-anchor: middle" x="343.14127" y="149.131517" transform="rotate(-0 343.14127 149.131517)">0.57</text>
   </g>
   <g id="text_22">
    <text style="font: 12px 'Cambria', 'Times New Roman', 'DejaVu Serif', serif; text-anchor: middle" x="488.526781" y="45.351057" transform="rotate(-0 488.526781 45.351057)">1.00</text>
   </g>
   <g id="text_23">
    <text style="font: 12px 'Cambria', 'Times New Roman', 'DejaVu Serif', serif; text-anchor: middle" x="228.286716" y="245.714868" transform="rotate(-0 228.286716 245.714868)">0.17</text>
   </g>
   <g id="text_24">
    <text style="font: 12px 'Cambria', 'Times New Roman', 'DejaVu Serif', serif; text-anchor: middle" x="373.672227" y="149.131517" transform="rotate(-0 373.672227 149.131517)">0.57</text>
   </g>
   <g id="text_25">
    <text style="font: 12px 'Cambria', 'Times New Roman', 'DejaVu Serif', serif; text-anchor: middle" x="519.057739" y="45.351057" transform="rotate(-0 519.057739 45.351057)">1.00</text>
   </g>
   <g id="text_26">
    <text style="font: 15px 'Cambria', 'Times New Roman', 'DejaVu Serif', serif; text-anchor: middle" x="312.610312" y="44.871057" transform="rotate(-0 312.610312 44.871057)">Single NDM (no fusion)</text>
   </g>
   <g id="line2d_7">
    <defs>
     <path id="m84bd83489e" d="M 0 1.25 
C 0.331504 1.25 0.649475 1.118292 0.883883 0.883883 
C 1.118292 0.649475 1.25 0.331504 1.25 0 
C 1.25 -0.331504 1.118292 -0.649475 0.883883 -0.883883 
C 0.649475 -1.118292 0.331504 -1.25 0 -1.25 
C -0.331504 -1.25 -0.649475 -1.118292 -0.883883 -0.883883 
C -1.118292 -0.649475 -1.25 -0.331504 -1.25 0 
C -1.25 0.331504 -1.118292 0.649475 -0.883883 0.883883 
C -0.649475 1.118292 -0.331504 1.25 0 1.25 
z
" style="stroke: #000000"/>
    </defs>
    <g clip-path="url(#pf690ff8fdd)">
     <use xlink:href="#m84bd83489e" x="106.162886" y="246.130636" style="stroke: #000000"/>
     <use xlink:href="#m84bd83489e" x="251.548398" y="169.05365" style="stroke: #000000"/>
     <use xlink:href="#m84bd83489e" x="396.933909" y="50.871057" style="stroke: #000000"/>
    </g>
   </g>
   <g id="line2d_8">
    <g clip-path="url(#pf690ff8fdd)">
     <use xlink:href="#m84bd83489e" x="136.693844" y="246.130636" style="stroke: #000000"/>
     <use xlink:href="#m84bd83489e" x="282.079355" y="169.05365" style="stroke: #000000"/>
     <use xlink:href="#m84bd83489e" x="427.464867" y="50.871057" style="stroke: #000000"/>
    </g>
   </g>
   <g id="line2d_9">
    <g clip-path="url(#pf690ff8fdd)">
     <use xlink:href="#m84bd83489e" x="167.224801" y="249.945231" style="stroke: #000000"/>
     <use xlink:href="#m84bd83489e" x="312.610312" y="171.155878" style="stroke: #000000"/>
     <use xlink:href="#m84bd83489e" x="457.995824" y="50.871057" style="stroke: #000000"/>
    </g>
   </g>
   <g id="line2d_10">
    <g clip-path="url(#pf690ff8fdd)">
     <use xlink:href="#m84bd83489e" x="197.755758" y="251.234868" style="stroke: #000000"/>
     <use xlink:href="#m84bd83489e" x="343.14127" y="154.651517" style="stroke: #000000"/>
     <use xlink:href="#m84bd83489e" x="488.526781" y="50.871057" style="stroke: #000000"/>
    </g>
   </g>
   <g id="line2d_11">
    <g clip-path="url(#pf690ff8fdd)">
     <use xlink:href="#m84bd83489e" x="228.286716" y="251.234868" style="stroke: #000000"/>
     <use xlink:href="#m84bd83489e" x="373.672227" y="154.651517" style="stroke: #000000"/>
     <use xlink:href="#m84bd83489e" x="519.057739" y="50.871057" style="stroke: #000000"/>
    </g>
   </g>
   <g id="legend_1">
    <g id="patch_20">
     <path d="M 12 20.4075 
L 28.8 20.4075 
L 28.8 12.0075 
L 12 12.0075 
z
" style="fill: #0072b2; opacity: 0.95; stroke: #000000; stroke-width: 0.9; stroke-linejoin: miter"/>
    </g>
    <g id="text_27">
     <text style="font: 12px 'Cambria', 'Times New Roman', 'DejaVu Serif', serif; text-anchor: start" x="33.6" y="20.4075" transform="rotate(-0 33.6 20.4075)">Crisp TOPSIS</text>
    </g>
    <g id="patch_21">
     <path d="M 112.516875 20.4075 
L 129.316875 20.4075 
L 129.316875 12.0075 
L 112.516875 12.0075 
z
" style="fill: url(#hcd605b86fe); opacity: 0.95; stroke: #000000; stroke-width: 0.9; stroke-linejoin: miter"/>
    </g>
    <g id="text_28">
     <text style="font: 12px 'Cambria', 'Times New Roman', 'DejaVu Serif', serif; text-anchor: start" x="134.116875" y="20.4075" transform="rotate(-0 134.116875 20.4075)">Fuzzy TOPSIS</text>
    </g>
    <g id="patch_22">
     <path d="M 215.998125 20.4075 
L 232.798125 20.4075 
L 232.798125 12.0075 
L 215.998125 12.0075 
z
" style="fill: url(#hbdfec08ed2); opacity: 0.95; stroke: #000000; stroke-width: 0.9; stroke-linejoin: miter"/>
    </g>
    <g id="text_29">
     <text style="font: 12px 'Cambria', 'Times New Roman', 'DejaVu Serif', serif; text-anchor: start" x="237.598125" y="20.4075" transform="rotate(-0 237.598125 20.4075)">IFS–TOPSIS</text>
    </g>
    <g id="patch_23">
     <path d="M 309.279375 20.4075 
L 326.079375 20.4075 
L 326.079375 12.0075 
L 309.279375 12.0075 
z
" style="fill: url(#hef87ee5697); opacity: 0.95; stroke: #000000; stroke-width: 0.9; stroke-linejoin: miter"/>
    </g>
    <g id="text_30">
     <text style="font: 12px 'Cambria', 'Times New Roman', 'DejaVu Serif', serif; text-anchor: start" x="330.879375" y="20.4075" transform="rotate(-0 330.879375 20.4075)">Neutrosophic TOPSIS (no DST)</text>
    </g>
    <g id="patch_24">
     <path d="M 500.776875 20.4075 
L 517.576875 20.4075 
L 517.576875 12.0075 
L 500.776875 12.0075 
z
" style="fill: url(#h591e9d2eb5); stroke: #000000; stroke-width: 1.4; stroke-linejoin: miter"/>
    </g>
    <g id="text_31">
     <text style="font: 12px 'Cambria', 'Times New Roman', 'DejaVu Serif', serif; text-anchor: start" x="522.376875" y="20.4075" transform="rotate(-0 522.376875 20.4075)">Proposed Method</text>
    </g>
   </g>
  </g>
 </g>
 <defs>
  <clipPath id="pf690ff8fdd">
   <rect x="71.924598" y="50.871057" width="481.371429" height="242.616983"/>
  </clipPath>
 </defs>
 <defs>
  <pattern id="hcd605b86fe" patternUnits="userSpaceOnUse" x="0" y="0" width="72" height="72">
   <rect x="0" y="0" width="73" height="73" fill="#e69f00"/>
   <path d="M -36 36 
L 36 -36 
M -30 42 
L 42 -30 
M -24 48 
L 48 -24 
M -18 54 
L 54 -18 
M -12 60 
L 60 -12 
M -6 66 
L 66 -6 
M 0 72 
L 72 0 
M 6 78 
L 78 6 
M 12 84 
L 84 12 
M 18 90 
L 90 18 
M 24 96 
L 96 24 
M 30 102 
L 102 30 
M 36 108 
L 108 36 
" style="fill: #000000; stroke: #000000; stroke-width: 1.0; stroke-linecap: butt; stroke-linejoin: miter; stroke-opacity: 0.95"/>
  </pattern>
  <pattern id="hbdfec08ed2" patternUnits="userSpaceOnUse" x="0" y="0" width="72" height="72">
   <rect x="0" y="0" width="73" height="73" fill="#009e73"/>
   <path d="M 0 72.6 
C 0.159122 72.6 0.311748 72.53678 0.424264 72.424264 
C 0.53678 72.311748 0.6 72.159122 0.6 72 
C 0.6 71.840878 0.53678 71.688252 0.424264 71.575736 
C 0.311748 71.46322 0.159122 71.4 0 71.4 
C -0.159122 71.4 -0.311748 71.46322 -0.424264 71.575736 
C -0.53678 71.688252 -0.6 71.840878 -0.6 72 
C -0.6 72.159122 -0.53678 72.311748 -0.424264 72.424264 
C -0.311748 72.53678 -0.159122 72.6 0 72.6 
z
M 6 72.6 
C 6.159122 72.6 6.311748 72.53678 6.424264 72.424264 
C 6.53678 72.311748 6.6 72.159122 6.6 72 
C 6.6 71.840878 6.53678 71.688252 6.424264 71.575736 
C 6.311748 71.46322 6.159122 71.4 6 71.4 
C 5.840878 71.4 5.688252 71.46322 5.575736 71.575736 
C 5.46322 71.688252 5.4 71.840878 5.4 72 
C 5.4 72.159122 5.46322 72.311748 5.575736 72.424264 
C 5.688252 72.53678 5.840878 72.6 6 72.6 
z
M 12 72.6 
C 12.159122 72.6 12.311748 72.53678 12.424264 72.424264 
C 12.53678 72.311748 12.6 72.159122 12.6 72 
C 12.6 71.840878 12.53678 71.688252 12.424264 71.575736 
C 12.311748 71.46322 12.159122 71.4 12 71.4 
C 11.840878 71.4 11.688252 71.46322 11.575736 71.575736 
C 11.46322 71.688252 11.4 71.840878 11.4 72 
C 11.4 72.159122 11.46322 72.311748 11.575736 72.424264 
C 11.688252 72.53678 11.840878 72.6 12 72.6 
z
M 18 72.6 
C 18.159122 72.6 18.311748 72.53678 18.424264 72.424264 
C 18.53678 72.311748 18.6 72.159122 18.6 72 
C 18.6 71.840878 18.53678 71.688252 18.424264 71.575736 
C 18.311748 71.46322 18.159122 71.4 18 71.4 
C 17.840878 71.4 17.688252 71.46322 17.575736 71.575736 
C 17.46322 71.688252 17.4 71.840878 17.4 72 
C 17.4 72.159122 17.46322 72.311748 17.575736 72.424264 
C 17.688252 72.53678 17.840878 72.6 18 72.6 
z
M 24 72.6 
C 24.159122 72.6 24.311748 72.53678 24.424264 72.424264 
C 24.53678 72.311748 24.6 72.159122 24.6 72 
C 24.6 71.840878 24.53678 71.688252 24.424264 71.575736 
C 24.311748 71.46322 24.159122 71.4 24 71.4 
C 23.840878 71.4 23.688252 71.46322 23.575736 71.575736 
C 23.46322 71.688252 23.4 71.840878 23.4 72 
C 23.4 72.159122 23.46322 72.311748 23.575736 72.424264 
C 23.688252 72.53678 23.840878 72.6 24 72.6 
z
M 30 72.6 
C 30.159122 72.6 30.311748 72.53678 30.424264 72.424264 
C 30.53678 72.311748 30.6 72.159122 30.6 72 
C 30.6 71.840878 30.53678 71.688252 30.424264 71.575736 
C 30.311748 71.46322 30.159122 71.4 30 71.4 
C 29.840878 71.4 29.688252 71.46322 29.575736 71.575736 
C 29.46322 71.688252 29.4 71.840878 29.4 72 
C 29.4 72.159122 29.46322 72.311748 29.575736 72.424264 
C 29.688252 72.53678 29.840878 72.6 30 72.6 
z
M 36 72.6 
C 36.159122 72.6 36.311748 72.53678 36.424264 72.424264 
C 36.53678 72.311748 36.6 72.159122 36.6 72 
C 36.6 71.840878 36.53678 71.688252 36.424264 71.575736 
C 36.311748 71.46322 36.159122 71.4 36 71.4 
C 35.840878 71.4 35.688252 71.46322 35.575736 71.575736 
C 35.46322 71.688252 35.4 71.840878 35.4 72 
C 35.4 72.159122 35.46322 72.311748 35.575736 72.424264 
C 35.688252 72.53678 35.840878 72.6 36 72.6 
z
M 42 72.6 
C 42.159122 72.6 42.311748 72.53678 42.424264 72.424264 
C 42.53678 72.311748 42.6 72.159122 42.6 72 
C 42.6 71.840878 42.53678 71.688252 42.424264 71.575736 
C 42.311748 71.46322 42.159122 71.4 42 71.4 
C 41.840878 71.4 41.688252 71.46322 41.575736 71.575736 
C 41.46322 71.688252 41.4 71.840878 41.4 72 
C 41.4 72.159122 41.46322 72.311748 41.575736 72.424264 
C 41.688252 72.53678 41.840878 72.6 42 72.6 
z
M 48 72.6 
C 48.159122 72.6 48.311748 72.53678 48.424264 72.424264 
C 48.53678 72.311748 48.6 72.159122 48.6 72 
C 48.6 71.840878 48.53678 71.688252 48.424264 71.575736 
C 48.311748 71.46322 48.159122 71.4 48 71.4 
C 47.840878 71.4 47.688252 71.46322 47.575736 71.575736 
C 47.46322 71.688252 47.4 71.840878 47.4 72 
C 47.4 72.159122 47.46322 72.311748 47.575736 72.424264 
C 47.688252 72.53678 47.840878 72.6 48 72.6 
z
M 54 72.6 
C 54.159122 72.6 54.311748 72.53678 54.424264 72.424264 
C 54.53678 72.311748 54.6 72.159122 54.6 72 
C 54.6 71.840878 54.53678 71.688252 54.424264 71.575736 
C 54.311748 71.46322 54.159122 71.4 54 71.4 
C 53.840878 71.4 53.688252 71.46322 53.575736 71.575736 
C 53.46322 71.688252 53.4 71.840878 53.4 72 
C 53.4 72.159122 53.46322 72.311748 53.575736 72.424264 
C 53.688252 72.53678 53.840878 72.6 54 72.6 
z
M 60 72.6 
C 60.159122 72.6 60.311748 72.53678 60.424264 72.424264 
C 60.53678 72.311748 60.6 72.159122 60.6 72 
C 60.6 71.840878 60.53678 71.688252 60.424264 71.575736 
C 60.311748 71.46322 60.159122 71.4 60 71.4 
C 59.840878 71.4 59.688252 71.46322 59.575736 71.575736 
C 59.46322 71.688252 59.4 71.840878 59.4 72 
C 59.4 72.159122 59.46322 72.311748 59.575736 72.424264 
C 59.688252 72.53678 59.840878 72.6 60 72.6 
z
M 66 72.6 
C 66.159122 72.6 66.311748 72.53678 66.424264 72.424264 
C 66.53678 72.311748 66.6 72.159122 66.6 72 
C 66.6 71.840878 66.53678 71.688252 66.424264 71.575736 
C 66.311748 71.46322 66.159122 71.4 66 71.4 
C 65.840878 71.4 65.688252 71.46322 65.575736 71.575736 
C 65.46322 71.688252 65.4 71.840878 65.4 72 
C 65.4 72.159122 65.46322 72.311748 65.575736 72.424264 
C 65.688252 72.53678 65.840878 72.6 66 72.6 
z
M 72 72.6 
C 72.159122 72.6 72.311748 72.53678 72.424264 72.424264 
C 72.53678 72.311748 72.6 72.159122 72.6 72 
C 72.6 71.840878 72.53678 71.688252 72.424264 71.575736 
C 72.311748 71.46322 72.159122 71.4 72 71.4 
C 71.840878 71.4 71.688252 71.46322 71.575736 71.575736 
C 71.46322 71.688252 71.4 71.840878 71.4 72 
C 71.4 72.159122 71.46322 72.311748 71.575736 72.424264 
C 71.688252 72.53678 71.840878 72.6 72 72.6 
z
M 3 66.6 
C 3.159122 66.6 3.311748 66.53678 3.424264 66.424264 
C 3.53678 66.311748 3.6 66.159122 3.6 66 
C 3.6 65.840878 3.53678 65.688252 3.424264 65.575736 
C 3.311748 65.46322 3.159122 65.4 3 65.4 
C 2.840878 65.4 2.688252 65.46322 2.575736 65.575736 
C 2.46322 65.688252 2.4 65.840878 2.4 66 
C 2.4 66.159122 2.46322 66.311748 2.575736 66.424264 
C 2.688252 66.53678 2.840878 66.6 3 66.6 
z
M 9 66.6 
C 9.159122 66.6 9.311748 66.53678 9.424264 66.424264 
C 9.53678 66.311748 9.6 66.159122 9.6 66 
C 9.6 65.840878 9.53678 65.688252 9.424264 65.575736 
C 9.311748 65.46322 9.159122 65.4 9 65.4 
C 8.840878 65.4 8.688252 65.46322 8.575736 65.575736 
C 8.46322 65.688252 8.4 65.840878 8.4 66 
C 8.4 66.159122 8.46322 66.311748 8.575736 66.424264 
C 8.688252 66.53678 8.840878 66.6 9 66.6 
z
M 15 66.6 
C 15.159122 66.6 15.311748 66.53678 15.424264 66.424264 
C 15.53678 66.311748 15.6 66.159122 15.6 66 
C 15.6 65.840878 15.53678 65.688252 15.424264 65.575736 
C 15.311748 65.46322 15.159122 65.4 15 65.4 
C 14.840878 65.4 14.688252 65.46322 14.575736 65.575736 
C 14.46322 65.688252 14.4 65.840878 14.4 66 
C 14.4 66.159122 14.46322 66.311748 14.575736 66.424264 
C 14.688252 66.53678 14.840878 66.6 15 66.6 
z
M 21 66.6 
C 21.159122 66.6 21.311748 66.53678 21.424264 66.424264 
C 21.53678 66.311748 21.6 66.159122 21.6 66 
C 21.6 65.840878 21.53678 65.688252 21.424264 65.575736 
C 21.311748 65.46322 21.159122 65.4 21 65.4 
C 20.840878 65.4 20.688252 65.46322 20.575736 65.575736 
C 20.46322 65.688252 20.4 65.840878 20.4 66 
C 20.4 66.159122 20.46322 66.311748 20.575736 66.424264 
C 20.688252 66.53678 20.840878 66.6 21 66.6 
z
M 27 66.6 
C 27.159122 66.6 27.311748 66.53678 27.424264 66.424264 
C 27.53678 66.311748 27.6 66.159122 27.6 66 
C 27.6 65.840878 27.53678 65.688252 27.424264 65.575736 
C 27.311748 65.46322 27.159122 65.4 27 65.4 
C 26.840878 65.4 26.688252 65.46322 26.575736 65.575736 
C 26.46322 65.688252 26.4 65.840878 26.4 66 
C 26.4 66.159122 26.46322 66.311748 26.575736 66.424264 
C 26.688252 66.53678 26.840878 66.6 27 66.6 
z
M 33 66.6 
C 33.159122 66.6 33.311748 66.53678 33.424264 66.424264 
C 33.53678 66.311748 33.6 66.159122 33.6 66 
C 33.6 65.840878 33.53678 65.688252 33.424264 65.575736 
C 33.311748 65.46322 33.159122 65.4 33 65.4 
C 32.840878 65.4 32.688252 65.46322 32.575736 65.575736 
C 32.46322 65.688252 32.4 65.840878 32.4 66 
C 32.4 66.159122 32.46322 66.311748 32.575736 66.424264 
C 32.688252 66.53678 32.840878 66.6 33 66.6 
z
M 39 66.6 
C 39.159122 66.6 39.311748 66.53678 39.424264 66.424264 
C 39.53678 66.311748 39.6 66.159122 39.6 66 
C 39.6 65.840878 39.53678 65.688252 39.424264 65.575736 
C 39.311748 65.46322 39.159122 65.4 39 65.4 
C 38.840878 65.4 38.688252 65.46322 38.575736 65.575736 
C 38.46322 65.688252 38.4 65.840878 38.4 66 
C 38.4 66.159122 38.46322 66.311748 38.575736 66.424264 
C 38.688252 66.53678 38.840878 66.6 39 66.6 
z
M 45 66.6 
C 45.159122 66.6 45.311748 66.53678 45.424264 66.424264 
C 45.53678 66.311748 45.6 66.159122 45.6 66 
C 45.6 65.840878 45.53678 65.688252 45.424264 65.575736 
C 45.311748 65.46322 45.159122 65.4 45 65.4 
C 44.840878 65.4 44.688252 65.46322 44.575736 65.575736 
C 44.46322 65.688252 44.4 65.840878 44.4 66 
C 44.4 66.159122 44.46322 66.311748 44.575736 66.424264 
C 44.688252 66.53678 44.840878 66.6 45 66.6 
z
M 51 66.6 
C 51.159122 66.6 51.311748 66.53678 51.424264 66.424264 
C 51.53678 66.311748 51.6 66.159122 51.6 66 
C 51.6 65.840878 51.53678 65.688252 51.424264 65.575736 
C 51.311748 65.46322 51.159122 65.4 51 65.4 
C 50.840878 65.4 50.688252 65.46322 50.575736 65.575736 
C 50.46322 65.688252 50.4 65.840878 50.4 66 
C 50.4 66.159122 50.46322 66.311748 50.575736 66.424264 
C 50.688252 66.53678 50.840878 66.6 51 66.6 
z
M 57 66.6 
C 57.159122 66.6 57.311748 66.53678 57.424264 66.424264 
C 57.53678 66.311748 57.6 66.159122 57.6 66 
C 57.6 65.840878 57.53678 65.688252 57.424264 65.575736 
C 57.311748 65.46322 57.159122 65.4 57 65.4 
C 56.840878 65.4 56.688252 65.46322 56.575736 65.575736 
C 56.46322 65.688252 56.4 65.840878 56.4 66 
C 56.4 66.159122 56.46322 66.311748 56.575736 66.424264 
C 56.688252 66.53678 56.840878 66.6 57 66.6 
z
M 63 66.6 
C 63.159122 66.6 63.311748 66.53678 63.424264 66.424264 
C 63.53678 66.311748 63.6 66.159122 63.6 66 
C 63.6 65.840878 63.53678 65.688252 63.424264 65.575736 
C 63.311748 65.46322 63.159122 65.4 63 65.4 
C 62.840878 65.4 62.688252 65.46322 62.575736 65.575736 
C 62.46322 65.688252 62.4 65.840878 62.4 66 
C 62.4 66.159122 62.46322 66.311748 62.575736 66.424264 
C 62.688252 66.53678 62.840878 66.6 63 66.6 
z
M 69 66.6 
C 69.159122 66.6 69.311748 66.53678 69.424264 66.424264 
C 69.53678 66.311748 69.6 66.159122 69.6 66 
C 69.6 65.840878 69.53678 65.688252 69.424264 65.575736 
C 69.311748 65.46322 69.159122 65.4 69 65.4 
C 68.840878 65.4 68.688252 65.46322 68.575736 65.575736 
C 68.46322 65.688252 68.4 65.840878 68.4 66 
C 68.4 66.159122 68.46322 66.311748 68.575736 66.424264 
C 68.688252 66.53678 68.840878 66.6 69 66.6 
z
M 0 60.6 
C 0.159122 60.6 0.311748 60.53678 0.424264 60.424264 
C 0.53678 60.311748 0.6 60.159122 0.6 60 
C 0.6 59.840878 0.53678 59.688252 0.424264 59.575736 
C 0.311748 59.46322 0.159122 59.4 0 59.4 
C -0.159122 59.4 -0.311748 59.46322 -0.424264 59.575736 
C -0.53678 59.688252 -0.6 59.840878 -0.6 60 
C -0.6 60.159122 -0.53678 60.311748 -0.424264 60.424264 
C -0.311748 60.53678 -0.159122 60.6 0 60.6 
z
M 6 60.6 
C 6.159122 60.6 6.311748 60.53678 6.424264 60.424264 
C 6.53678 60.311748 6.6 60.159122 6.6 60 
C 6.6 59.840878 6.53678 59.688252 6.424264 59.575736 
C 6.311748 59.46322 6.159122 59.4 6 59.4 
C 5.840878 59.4 5.688252 59.46322 5.575736 59.575736 
C 5.46322 59.688252 5.4 59.840878 5.4 60 
C 5.4 60.159122 5.46322 60.311748 5.575736 60.424264 
C 5.688252 60.53678 5.840878 60.6 6 60.6 
z
M 12 60.6 
C 12.159122 60.6 12.311748 60.53678 12.424264 60.424264 
C 12.53678 60.311748 12.6 60.159122 12.6 60 
C 12.6 59.840878 12.53678 59.688252 12.424264 59.575736 
C 12.311748 59.46322 12.159122 59.4 12 59.4 
C 11.840878 59.4 11.688252 59.46322 11.575736 59.575736 
C 11.46322 59.688252 11.4 59.840878 11.4 60 
C 11.4 60.159122 11.46322 60.311748 11.575736 60.424264 
C 11.688252 60.53678 11.840878 60.6 12 60.6 
z
M 18 60.6 
C 18.159122 60.6 18.311748 60.53678 18.424264 60.424264 
C 18.53678 60.311748 18.6 60.159122 18.6 60 
C 18.6 59.840878 18.53678 59.688252 18.424264 59.575736 
C 18.311748 59.46322 18.159122 59.4 18 59.4 
C 17.840878 59.4 17.688252 59.46322 17.575736 59.575736 
C 17.46322 59.688252 17.4 59.840878 17.4 60 
C 17.4 60.159122 17.46322 60.311748 17.575736 60.424264 
C 17.688252 60.53678 17.840878 60.6 18 60.6 
z
M 24 60.6 
C 24.159122 60.6 24.311748 60.53678 24.424264 60.424264 
C 24.53678 60.311748 24.6 60.159122 24.6 60 
C 24.6 59.840878 24.53678 59.688252 24.424264 59.575736 
C 24.311748 59.46322 24.159122 59.4 24 59.4 
C 23.840878 59.4 23.688252 59.46322 23.575736 59.575736 
C 23.46322 59.688252 23.4 59.840878 23.4 60 
C 23.4 60.159122 23.46322 60.311748 23.575736 60.424264 
C 23.688252 60.53678 23.840878 60.6 24 60.6 
z
M 30 60.6 
C 30.159122 60.6 30.311748 60.53678 30.424264 60.424264 
C 30.53678 60.311748 30.6 60.159122 30.6 60 
C 30.6 59.840878 30.53678 59.688252 30.424264 59.575736 
C 30.311748 59.46322 30.159122 59.4 30 59.4 
C 29.840878 59.4 29.688252 59.46322 29.575736 59.575736 
C 29.46322 59.688252 29.4 59.840878 29.4 60 
C 29.4 60.159122 29.46322 60.311748 29.575736 60.424264 
C 29.688252 60.53678 29.840878 60.6 30 60.6 
z
M 36 60.6 
C 36.159122 60.6 36.311748 60.53678 36.424264 60.424264 
C 36.53678 60.311748 36.6 60.159122 36.6 60 
C 36.6 59.840878 36.53678 59.688252 36.424264 59.575736 
C 36.311748 59.46322 36.159122 59.4 36 59.4 
C 35.840878 59.4 35.688252 59.46322 35.575736 59.575736 
C 35.46322 59.688252 35.4 59.840878 35.4 60 
C 35.4 60.159122 35.46322 60.311748 35.575736 60.424264 
C 35.688252 60.53678 35.840878 60.6 36 60.6 
z
M 42 60.6 
C 42.159122 60.6 42.311748 60.53678 42.424264 60.424264 
C 42.53678 60.311748 42.6 60.159122 42.6 60 
C 42.6 59.840878 42.53678 59.688252 42.424264 59.575736 
C 42.311748 59.46322 42.159122 59.4 42 59.4 
C 41.840878 59.4 41.688252 59.46322 41.575736 59.575736 
C 41.46322 59.688252 41.4 59.840878 41.4 60 
C 41.4 60.159122 41.46322 60.311748 41.575736 60.424264 
C 41.688252 60.53678 41.840878 60.6 42 60.6 
z
M 48 60.6 
C 48.159122 60.6 48.311748 60.53678 48.424264 60.424264 
C 48.53678 60.311748 48.6 60.159122 48.6 60 
C 48.6 59.840878 48.53678 59.688252 48.424264 59.575736 
C 48.311748 59.46322 48.159122 59.4 48 59.4 
C 47.840878 59.4 47.688252 59.46322 47.575736 59.575736 
C 47.46322 59.688252 47.4 59.840878 47.4 60 
C 47.4 60.159122 47.46322 60.311748 47.575736 60.424264 
C 47.688252 60.53678 47.840878 60.6 48 60.6 
z
M 54 60.6 
C 54.159122 60.6 54.311748 60.53678 54.424264 60.424264 
C 54.53678 60.311748 54.6 60.159122 54.6 60 
C 54.6 59.840878 54.53678 59.688252 54.424264 59.575736 
C 54.311748 59.46322 54.159122 59.4 54 59.4 
C 53.840878 59.4 53.688252 59.46322 53.575736 59.575736 
C 53.46322 59.688252 53.4 59.840878 53.4 60 
C 53.4 60.159122 53.46322 60.311748 53.575736 60.424264 
C 53.688252 60.53678 53.840878 60.6 54 60.6 
z
M 60 60.6 
C 60.159122 60.6 60.311748 60.53678 60.424264 60.424264 
C 60.53678 60.311748 60.6 60.159122 60.6 60 
C 60.6 59.840878 60.53678 59.688252 60.424264 59.575736 
C 60.311748 59.46322 60.159122 59.4 60 59.4 
C 59.840878 59.4 59.688252 59.46322 59.575736 59.575736 
C 59.46322 59.688252 59.4 59.840878 59.4 60 
C 59.4 60.159122 59.46322 60.311748 59.575736 60.424264 
C 59.688252 60.53678 59.840878 60.6 60 60.6 
z
M 66 60.6 
C 66.159122 60.6 66.311748 60.53678 66.424264 60.424264 
C 66.53678 60.311748 66.6 60.159122 66.6 60 
C 66.6 59.840878 66.53678 59.688252 66.424264 59.575736 
C 66.311748 59.46322 66.159122 59.4 66 59.4 
C 65.840878 59.4 65.688252 59.46322 65.575736 59.575736 
C 65.46322 59.688252 65.4 59.840878 65.4 60 
C 65.4 60.159122 65.46322 60.311748 65.575736 60.424264 
C 65.688252 60.53678 65.840878 60.6 66 60.6 
z
M 72 60.6 
C 72.159122 60.6 72.311748 60.53678 72.424264 60.424264 
C 72.53678 60.311748 72.6 60.159122 72.6 60 
C 72.6 59.840878 72.53678 59.688252 72.424264 59.575736 
C 72.311748 59.46322 72.159122 59.4 72 59.4 
C 71.840878 59.4 71.688252 59.46322 71.575736 59.575736 
C 71.46322 59.688252 71.4 59.840878 71.4 60 
C 71.4 60.159122 71.46322 60.311748 71.575736 60.424264 
C 71.688252 60.53678 71.840878 60.6 72 60.6 
z
M 3 54.6 
C 3.159122 54.6 3.311748 54.53678 3.424264 54.424264 
C 3.53678 54.311748 3.6 54.159122 3.6 54 
C 3.6 53.840878 3.53678 53.688252 3.424264 53.575736 
C 3.311748 53.46322 3.159122 53.4 3 53.4 
C 2.840878 53.4 2.688252 53.46322 2.575736 53.575736 
C 2.46322 53.688252 2.4 53.840878 2.4 54 
C 2.4 54.159122 2.46322 54.311748 2.575736 54.424264 
C 2.688252 54.53678 2.840878 54.6 3 54.6 
z
M 9 54.6 
C 9.159122 54.6 9.311748 54.53678 9.424264 54.424264 
C 9.53678 54.311748 9.6 54.159122 9.6 54 
C 9.6 53.840878 9.53678 53.688252 9.424264 53.575736 
C 9.311748 53.46322 9.159122 53.4 9 53.4 
C 8.840878 53.4 8.688252 53.46322 8.575736 53.575736 
C 8.46322 53.688252 8.4 53.840878 8.4 54 
C 8.4 54.159122 8.46322 54.311748 8.575736 54.424264 
C 8.688252 54.53678 8.840878 54.6 9 54.6 
z
M 15 54.6 
C 15.159122 54.6 15.311748 54.53678 15.424264 54.424264 
C 15.53678 54.311748 15.6 54.159122 15.6 54 
C 15.6 53.840878 15.53678 53.688252 15.424264 53.575736 
C 15.311748 53.46322 15.159122 53.4 15 53.4 
C 14.840878 53.4 14.688252 53.46322 14.575736 53.575736 
C 14.46322 53.688252 14.4 53.840878 14.4 54 
C 14.4 54.159122 14.46322 54.311748 14.575736 54.424264 
C 14.688252 54.53678 14.840878 54.6 15 54.6 
z
M 21 54.6 
C 21.159122 54.6 21.311748 54.53678 21.424264 54.424264 
C 21.53678 54.311748 21.6 54.159122 21.6 54 
C 21.6 53.840878 21.53678 53.688252 21.424264 53.575736 
C 21.311748 53.46322 21.159122 53.4 21 53.4 
C 20.840878 53.4 20.688252 53.46322 20.575736 53.575736 
C 20.46322 53.688252 20.4 53.840878 20.4 54 
C 20.4 54.159122 20.46322 54.311748 20.575736 54.424264 
C 20.688252 54.53678 20.840878 54.6 21 54.6 
z
M 27 54.6 
C 27.159122 54.6 27.311748 54.53678 27.424264 54.424264 
C 27.53678 54.311748 27.6 54.159122 27.6 54 
C 27.6 53.840878 27.53678 53.688252 27.424264 53.575736 
C 27.311748 53.46322 27.159122 53.4 27 53.4 
C 26.840878 53.4 26.688252 53.46322 26.575736 53.575736 
C 26.46322 53.688252 26.4 53.840878 26.4 54 
C 26.4 54.159122 26.46322 54.311748 26.575736 54.424264 
C 26.688252 54.53678 26.840878 54.6 27 54.6 
z
M 33 54.6 
C 33.159122 54.6 33.311748 54.53678 33.424264 54.424264 
C 33.53678 54.311748 33.6 54.159122 33.6 54 
C 33.6 53.840878 33.53678 53.688252 33.424264 53.575736 
C 33.311748 53.46322 33.159122 53.4 33 53.4 
C 32.840878 53.4 32.688252 53.46322 32.575736 53.575736 
C 32.46322 53.688252 32.4 53.840878 32.4 54 
C 32.4 54.159122 32.46322 54.311748 32.575736 54.424264 
C 32.688252 54.53678 32.840878 54.6 33 54.6 
z
M 39 54.6 
C 39.159122 54.6 39.311748 54.53678 39.424264 54.424264 
C 39.53678 54.311748 39.6 54.159122 39.6 54 
C 39.6 53.840878 39.53678 53.688252 39.424264 53.575736 
C 39.311748 53.46322 39.159122 53.4 39 53.4 
C 38.840878 53.4 38.688252 53.46322 38.575736 53.575736 
C 38.46322 53.688252 38.4 53.840878 38.4 54 
C 38.4 54.159122 38.46322 54.311748 38.575736 54.424264 
C 38.688252 54.53678 38.840878 54.6 39 54.6 
z
M 45 54.6 
C 45.159122 54.6 45.311748 54.53678 45.424264 54.424264 
C 45.53678 54.311748 45.6 54.159122 45.6 54 
C 45.6 53.840878 45.53678 53.688252 45.424264 53.575736 
C 45.311748 53.46322 45.159122 53.4 45 53.4 
C 44.840878 53.4 44.688252 53.46322 44.575736 53.575736 
C 44.46322 53.688252 44.4 53.840878 44.4 54 
C 44.4 54.159122 44.46322 54.311748 44.575736 54.424264 
C 44.688252 54.53678 44.840878 54.6 45 54.6 
z
M 51 54.6 
C 51.159122 54.6 51.311748 54.53678 51.424264 54.424264 
C 51.53678 54.311748 51.6 54.159122 51.6 54 
C 51.6 53.840878 51.53678 53.688252 51.424264 53.575736 
C 51.311748 53.46322 51.159122 53.4 51 53.4 
C 50.840878 53.4 50.688252 53.46322 50.575736 53.575736 
C 50.46322 53.688252 50.4 53.840878 50.4 54 
C 50.4 54.159122 50.46322 54.311748 50.575736 54.424264 
C 50.688252 54.53678 50.840878 54.6 51 54.6 
z
M 57 54.6 
C 57.159122 54.6 57.311748 54.53678 57.424264 54.424264 
C 57.53678 54.311748 57.6 54.159122 57.6 54 
C 57.6 53.840878 57.53678 53.688252 57.424264 53.575736 
C 57.311748 53.46322 57.159122 53.4 57 53.4 
C 56.840878 53.4 56.688252 53.46322 56.575736 53.575736 
C 56.46322 53.688252 56.4 53.840878 56.4 54 
C 56.4 54.159122 56.46322 54.311748 56.575736 54.424264 
C 56.688252 54.53678 56.840878 54.6 57 54.6 
z
M 63 54.6 
C 63.159122 54.6 63.311748 54.53678 63.424264 54.424264 
C 63.53678 54.311748 63.6 54.159122 63.6 54 
C 63.6 53.840878 63.53678 53.688252 63.424264 53.575736 
C 63.311748 53.46322 63.159122 53.4 63 53.4 
C 62.840878 53.4 62.688252 53.46322 62.575736 53.575736 
C 62.46322 53.688252 62.4 53.840878 62.4 54 
C 62.4 54.159122 62.46322 54.311748 62.575736 54.424264 
C 62.688252 54.53678 62.840878 54.6 63 54.6 
z
M 69 54.6 
C 69.159122 54.6 69.311748 54.53678 69.424264 54.424264 
C 69.53678 54.311748 69.6 54.159122 69.6 54 
C 69.6 53.840878 69.53678 53.688252 69.424264 53.575736 
C 69.311748 53.46322 69.159122 53.4 69 53.4 
C 68.840878 53.4 68.688252 53.46322 68.575736 53.575736 
C 68.46322 53.688252 68.4 53.840878 68.4 54 
C 68.4 54.159122 68.46322 54.311748 68.575736 54.424264 
C 68.688252 54.53678 68.840878 54.6 69 54.6 
z
M 0 48.6 
C 0.159122 48.6 0.311748 48.53678 0.424264 48.424264 
C 0.53678 48.311748 0.6 48.159122 0.6 48 
C 0.6 47.840878 0.53678 47.688252 0.424264 47.575736 
C 0.311748 47.46322 0.159122 47.4 0 47.4 
C -0.159122 47.4 -0.311748 47.46322 -0.424264 47.575736 
C -0.53678 47.688252 -0.6 47.840878 -0.6 48 
C -0.6 48.159122 -0.53678 48.311748 -0.424264 48.424264 
C -0.311748 48.53678 -0.159122 48.6 0 48.6 
z
M 6 48.6 
C 6.159122 48.6 6.311748 48.53678 6.424264 48.424264 
C 6.53678 48.311748 6.6 48.159122 6.6 48 
C 6.6 47.840878 6.53678 47.688252 6.424264 47.575736 
C 6.311748 47.46322 6.159122 47.4 6 47.4 
C 5.840878 47.4 5.688252 47.46322 5.575736 47.575736 
C 5.46322 47.688252 5.4 47.840878 5.4 48 
C 5.4 48.159122 5.46322 48.311748 5.575736 48.424264 
C 5.688252 48.53678 5.840878 48.6 6 48.6 
z
M 12 48.6 
C 12.159122 48.6 12.311748 48.53678 12.424264 48.424264 
C 12.53678 48.311748 12.6 48.159122 12.6 48 
C 12.6 47.840878 12.53678 47.688252 12.424264 47.575736 
C 12.311748 47.46322 12.159122 47.4 12 47.4 
C 11.840878 47.4 11.688252 47.46322 11.575736 47.575736 
C 11.46322 47.688252 11.4 47.840878 11.4 48 
C 11.4 48.159122 11.46322 48.311748 11.575736 48.424264 
C 11.688252 48.53678 11.840878 48.6 12 48.6 
z
M 18 48.6 
C 18.159122 48.6 18.311748 48.53678 18.424264 48.424264 
C 18.53678 48.311748 18.6 48.159122 18.6 48 
C 18.6 47.840878 18.53678 47.688252 18.424264 47.575736 
C 18.311748 47.46322 18.159122 47.4 18 47.4 
C 17.840878 47.4 17.688252 47.46322 17.575736 47.575736 
C 17.46322 47.688252 17.4 47.840878 17.4 48 
C 17.4 48.159122 17.46322 48.311748 17.575736 48.424264 
C 17.688252 48.53678 17.840878 48.6 18 48.6 
z
M 24 48.6 
C 24.159122 48.6 24.311748 48.53678 24.424264 48.424264 
C 24.53678 48.311748 24.6 48.159122 24.6 48 
C 24.6 47.840878 24.53678 47.688252 24.424264 47.575736 
C 24.311748 47.46322 24.159122 47.4 24 47.4 
C 23.840878 47.4 23.688252 47.46322 23.575736 47.575736 
C 23.46322 47.688252 23.4 47.840878 23.4 48 
C 23.4 48.159122 23.46322 48.311748 23.575736 48.424264 
C 23.688252 48.53678 23.840878 48.6 24 48.6 
z
M 30 48.6 
C 30.159122 48.6 30.311748 48.53678 30.424264 48.424264 
C 30.53678 48.311748 30.6 48.159122 30.6 48 
C 30.6 47.840878 30.53678 47.688252 30.424264 47.575736 
C 30.311748 47.46322 30.159122 47.4 30 47.4 
C 29.840878 47.4 29.688252 47.46322 29.575736 47.575736 
C 29.46322 47.688252 29.4 47.840878 29.4 48 
C 29.4 48.159122 29.46322 48.311748 29.575736 48.424264 
C 29.688252 48.53678 29.840878 48.6 30 48.6 
z
M 36 48.6 
C 36.159122 48.6 36.311748 48.53678 36.424264 48.424264 
C 36.53678 48.311748 36.6 48.159122 36.6 48 
C 36.6 47.840878 36.53678 47.688252 36.424264 47.575736 
C 36.311748 47.46322 36.159122 47.4 36 47.4 
C 35.840878 47.4 35.688252 47.46322 35.575736 47.575736 
C 35.46322 47.688252 35.4 47.840878 35.4 48 
C 35.4 48.159122 35.46322 48.311748 35.575736 48.424264 
C 35.688252 48.53678 35.840878 48.6 36 48.6 
z
M 42 48.6 
C 42.159122 48.6 42.311748 48.53678 42.424264 48.424264 
C 42.53678 48.311748 42.6 48.159122 42.6 48 
C 42.6 47.840878 42.53678 47.688252 42.424264 47.575736 
C 42.311748 47.46322 42.159122 47.4 42 47.4 
C 41.840878 47.4 41.688252 47.46322 41.575736 47.575736 
C 41.46322 47.688252 41.4 47.840878 41.4 48 
C 41.4 48.159122 41.46322 48.311748 41.575736 48.424264 
C 41.688252 48.53678 41.840878 48.6 42 48.6 
z
M 48 48.6 
C 48.159122 48.6 48.311748 48.53678 48.424264 48.424264 
C 48.53678 48.311748 48.6 48.159122 48.6 48 
C 48.6 47.840878 48.53678 47.688252 48.424264 47.575736 
C 48.311748 47.46322 48.159122 47.4 48 47.4 
C 47.840878 47.4 47.688252 47.46322 47.575736 47.575736 
C 47.46322 47.688252 47.4 47.840878 47.4 48 
C 47.4 48.159122 47.46322 48.311748 47.575736 48.424264 
C 47.688252 48.53678 47.840878 48.6 48 48.6 
z
M 54 48.6 
C 54.159122 48.6 54.311748 48.53678 54.424264 48.424264 
C 54.53678 48.311748 54.6 48.159122 54.6 48 
C 54.6 47.840878 54.53678 47.688252 54.424264 47.575736 
C 54.311748 47.46322 54.159122 47.4 54 47.4 
C 53.840878 47.4 53.688252 47.46322 53.575736 47.575736 
C 53.46322 47.688252 53.4 47.840878 53.4 48 
C 53.4 48.159122 53.46322 48.311748 53.575736 48.424264 
C 53.688252 48.53678 53.840878 48.6 54 48.6 
z
M 60 48.6 
C 60.159122 48.6 60.311748 48.53678 60.424264 48.424264 
C 60.53678 48.311748 60.6 48.159122 60.6 48 
C 60.6 47.840878 60.53678 47.688252 60.424264 47.575736 
C 60.311748 47.46322 60.159122 47.4 60 47.4 
C 59.840878 47.4 59.688252 47.46322 59.575736 47.575736 
C 59.46322 47.688252 59.4 47.840878 59.4 48 
C 59.4 48.159122 59.46322 48.311748 59.575736 48.424264 
C 59.688252 48.53678 59.840878 48.6 60 48.6 
z
M 66 48.6 
C 66.159122 48.6 66.311748 48.53678 66.424264 48.424264 
C 66.53678 48.311748 66.6 48.159122 66.6 48 
C 66.6 47.840878 66.53678 47.688252 66.424264 47.575736 
C 66.311748 47.46322 66.159122 47.4 66 47.4 
C 65.840878 47.4 65.688252 47.46322 65.575736 47.575736 
C 65.46322 47.688252 65.4 47.840878 65.4 48 
C 65.4 48.159122 65.46322 48.311748 65.575736 48.424264 
C 65.688252 48.53678 65.840878 48.6 66 48.6 
z
M 72 48.6 
C 72.159122 48.6 72.311748 48.53678 72.424264 48.424264 
C 72.53678 48.311748 72.6 48.159122 72.6 48 
C 72.6 47.840878 72.53678 47.688252 72.424264 47.575736 
C 72.311748 47.46322 72.159122 47.4 72 47.4 
C 71.840878 47.4 71.688252 47.46322 71.575736 47.575736 
C 71.46322 47.688252 71.4 47.840878 71.4 48 
C 71.4 48.159122 71.46322 48.311748 71.575736 48.424264 
C 71.688252 48.53678 71.840878 48.6 72 48.6 
z
M 3 42.6 
C 3.159122 42.6 3.311748 42.53678 3.424264 42.424264 
C 3.53678 42.311748 3.6 42.159122 3.6 42 
C 3.6 41.840878 3.53678 41.688252 3.424264 41.575736 
C 3.311748 41.46322 3.159122 41.4 3 41.4 
C 2.840878 41.4 2.688252 41.46322 2.575736 41.575736 
C 2.46322 41.688252 2.4 41.840878 2.4 42 
C 2.4 42.159122 2.46322 42.311748 2.575736 42.424264 
C 2.688252 42.53678 2.840878 42.6 3 42.6 
z
M 9 42.6 
C 9.159122 42.6 9.311748 42.53678 9.424264 42.424264 
C 9.53678 42.311748 9.6 42.159122 9.6 42 
C 9.6 41.840878 9.53678 41.688252 9.424264 41.575736 
C 9.311748 41.46322 9.159122 41.4 9 41.4 
C 8.840878 41.4 8.688252 41.46322 8.575736 41.575736 
C 8.46322 41.688252 8.4 41.840878 8.4 42 
C 8.4 42.159122 8.46322 42.311748 8.575736 42.424264 
C 8.688252 42.53678 8.840878 42.6 9 42.6 
z
M 15 42.6 
C 15.159122 42.6 15.311748 42.53678 15.424264 42.424264 
C 15.53678 42.311748 15.6 42.159122 15.6 42 
C 15.6 41.840878 15.53678 41.688252 15.424264 41.575736 
C 15.311748 41.46322 15.159122 41.4 15 41.4 
C 14.840878 41.4 14.688252 41.46322 14.575736 41.575736 
C 14.46322 41.688252 14.4 41.840878 14.4 42 
C 14.4 42.159122 14.46322 42.311748 14.575736 42.424264 
C 14.688252 42.53678 14.840878 42.6 15 42.6 
z
M 21 42.6 
C 21.159122 42.6 21.311748 42.53678 21.424264 42.424264 
C 21.53678 42.311748 21.6 42.159122 21.6 42 
C 21.6 41.840878 21.53678 41.688252 21.424264 41.575736 
C 21.311748 41.46322 21.159122 41.4 21 41.4 
C 20.840878 41.4 20.688252 41.46322 20.575736 41.575736 
C 20.46322 41.688252 20.4 41.840878 20.4 42 
C 20.4 42.159122 20.46322 42.311748 20.575736 42.424264 
C 20.688252 42.53678 20.840878 42.6 21 42.6 
z
M 27 42.6 
C 27.159122 42.6 27.311748 42.53678 27.424264 42.424264 
C 27.53678 42.311748 27.6 42.159122 27.6 42 
C 27.6 41.840878 27.53678 41.688252 27.424264 41.575736 
C 27.311748 41.46322 27.159122 41.4 27 41.4 
C 26.840878 41.4 26.688252 41.46322 26.575736 41.575736 
C 26.46322 41.688252 26.4 41.840878 26.4 42 
C 26.4 42.159122 26.46322 42.311748 26.575736 42.424264 
C 26.688252 42.53678 26.840878 42.6 27 42.6 
z
M 33 42.6 
C 33.159122 42.6 33.311748 42.53678 33.424264 42.424264 
C 33.53678 42.311748 33.6 42.159122 33.6 42 
C 33.6 41.840878 33.53678 41.688252 33.424264 41.575736 
C 33.311748 41.46322 33.159122 41.4 33 41.4 
C 32.840878 41.4 32.688252 41.46322 32.575736 41.575736 
C 32.46322 41.688252 32.4 41.840878 32.4 42 
C 32.4 42.159122 32.46322 42.311748 32.575736 42.424264 
C 32.688252 42.53678 32.840878 42.6 33 42.6 
z
M 39 42.6 
C 39.159122 42.6 39.311748 42.53678 39.424264 42.424264 
C 39.53678 42.311748 39.6 42.159122 39.6 42 
C 39.6 41.840878 39.53678 41.688252 39.424264 41.575736 
C 39.311748 41.46322 39.159122 41.4 39 41.4 
C 38.840878 41.4 38.688252 41.46322 38.575736 41.575736 
C 38.46322 41.688252 38.4 41.840878 38.4 42 
C 38.4 42.159122 38.46322 42.311748 38.575736 42.424264 
C 38.688252 42.53678 38.840878 42.6 39 42.6 
z
M 45 42.6 
C 45.159122 42.6 45.311748 42.53678 45.424264 42.424264 
C 45.53678 42.311748 45.6 42.159122 45.6 42 
C 45.6 41.840878 45.53678 41.688252 45.424264 41.575736 
C 45.311748 41.46322 45.159122 41.4 45 41.4 
C 44.840878 41.4 44.688252 41.46322 44.575736 41.575736 
C 44.46322 41.688252 44.4 41.840878 44.4 42 
C 44.4 42.159122 44.46322 42.311748 44.575736 42.424264 
C 44.688252 42.53678 44.840878 42.6 45 42.6 
z
M 51 42.6 
C 51.159122 42.6 51.311748 42.53678 51.424264 42.424264 
C 51.53678 42.311748 51.6 42.159122 51.6 42 
C 51.6 41.840878 51.53678 41.688252 51.424264 41.575736 
C 51.311748 41.46322 51.159122 41.4 51 41.4 
C 50.840878 41.4 50.688252 41.46322 50.575736 41.575736 
C 50.46322 41.688252 50.4 41.840878 50.4 42 
C 50.4 42.159122 50.46322 42.311748 50.575736 42.424264 
C 50.688252 42.53678 50.840878 42.6 51 42.6 
z
M 57 42.6 
C 57.159122 42.6 57.311748 42.53678 57.424264 42.424264 
C 57.53678 42.311748 57.6 42.159122 57.6 42 
C 57.6 41.840878 57.53678 41.688252 57.424264 41.575736 
C 57.311748 41.46322 57.159122 41.4 57 41.4 
C 56.840878 41.4 56.688252 41.46322 56.575736 41.575736 
C 56.46322 41.688252 56.4 41.840878 56.4 42 
C 56.4 42.159122 56.46322 42.311748 56.575736 42.424264 
C 56.688252 42.53678 56.840878 42.6 57 42.6 
z
M 63 42.6 
C 63.159122 42.6 63.311748 42.53678 63.424264 42.424264 
C 63.53678 42.311748 63.6 42.159122 63.6 42 
C 63.6 41.840878 63.53678 41.688252 63.424264 41.575736 
C 63.311748 41.46322 63.159122 41.4 63 41.4 
C 62.840878 41.4 62.688252 41.46322 62.575736 41.575736 
C 62.46322 41.688252 62.4 41.840878 62.4 42 
C 62.4 42.159122 62.46322 42.311748 62.575736 42.424264 
C 62.688252 42.53678 62.840878 42.6 63 42.6 
z
M 69 42.6 
C 69.159122 42.6 69.311748 42.53678 69.424264 42.424264 
C 69.53678 42.311748 69.6 42.159122 69.6 42 
C 69.6 41.840878 69.53678 41.688252 69.424264 41.575736 
C 69.311748 41.46322 69.159122 41.4 69 41.4 
C 68.840878 41.4 68.688252 41.46322 68.575736 41.575736 
C 68.46322 41.688252 68.4 41.840878 68.4 42 
C 68.4 42.159122 68.46322 42.311748 68.575736 42.424264 
C 68.688252 42.53678 68.840878 42.6 69 42.6 
z
M 0 36.6 
C 0.159122 36.6 0.311748 36.53678 0.424264 36.424264 
C 0.53678 36.311748 0.6 36.159122 0.6 36 
C 0.6 35.840878 0.53678 35.688252 0.424264 35.575736 
C 0.311748 35.46322 0.159122 35.4 0 35.4 
C -0.159122 35.4 -0.311748 35.46322 -0.424264 35.575736 
C -0.53678 35.688252 -0.6 35.840878 -0.6 36 
C -0.6 36.159122 -0.53678 36.311748 -0.424264 36.424264 
C -0.311748 36.53678 -0.159122 36.6 0 36.6 
z
M 6 36.6 
C 6.159122 36.6 6.311748 36.53678 6.424264 36.424264 
C 6.53678 36.311748 6.6 36.159122 6.6 36 
C 6.6 35.840878 6.53678 35.688252 6.424264 35.575736 
C 6.311748 35.46322 6.159122 35.4 6 35.4 
C 5.840878 35.4 5.688252 35.46322 5.575736 35.575736 
C 5.46322 35.688252 5.4 35.840878 5.4 36 
C 5.4 36.159122 5.46322 36.311748 5.575736 36.424264 
C 5.688252 36.53678 5.840878 36.6 6 36.6 
z
M 12 36.6 
C 12.159122 36.6 12.311748 36.53678 12.424264 36.424264 
C 12.53678 36.311748 12.6 36.159122 12.6 36 
C 12.6 35.840878 12.53678 35.688252 12.424264 35.575736 
C 12.311748 35.46322 12.159122 35.4 12 35.4 
C 11.840878 35.4 11.688252 35.46322 11.575736 35.575736 
C 11.46322 35.688252 11.4 35.840878 11.4 36 
C 11.4 36.159122 11.46322 36.311748 11.575736 36.424264 
C 11.688252 36.53678 11.840878 36.6 12 36.6 
z
M 18 36.6 
C 18.159122 36.6 18.311748 36.53678 18.424264 36.424264 
C 18.53678 36.311748 18.6 36.159122 18.6 36 
C 18.6 35.840878 18.53678 35.688252 18.424264 35.575736 
C 18.311748 35.46322 18.159122 35.4 18 35.4 
C 17.840878 35.4 17.688252 35.46322 17.575736 35.575736 
C 17.46322 35.688252 17.4 35.840878 17.4 36 
C 17.4 36.159122 17.46322 36.311748 17.575736 36.424264 
C 17.688252 36.53678 17.840878 36.6 18 36.6 
z
M 24 36.6 
C 24.159122 36.6 24.311748 36.53678 24.424264 36.424264 
C 24.53678 36.311748 24.6 36.159122 24.6 36 
C 24.6 35.840878 24.53678 35.688252 24.424264 35.575736 
C 24.311748 35.46322 24.159122 35.4 24 35.4 
C 23.840878 35.4 23.688252 35.46322 23.575736 35.575736 
C 23.46322 35.688252 23.4 35.840878 23.4 36 
C 23.4 36.159122 23.46322 36.311748 23.575736 36.424264 
C 23.688252 36.53678 23.840878 36.6 24 36.6 
z
M 30 36.6 
C 30.159122 36.6 30.311748 36.53678 30.424264 36.424264 
C 30.53678 36.311748 30.6 36.159122 30.6 36 
C 30.6 35.840878 30.53678 35.688252 30.424264 35.575736 
C 30.311748 35.46322 30.159122 35.4 30 35.4 
C 29.840878 35.4 29.688252 35.46322 29.575736 35.575736 
C 29.46322 35.688252 29.4 35.840878 29.4 36 
C 29.4 36.159122 29.46322 36.311748 29.575736 36.424264 
C 29.688252 36.53678 29.840878 36.6 30 36.6 
z
M 36 36.6 
C 36.159122 36.6 36.311748 36.53678 36.424264 36.424264 
C 36.53678 36.311748 36.6 36.159122 36.6 36 
C 36.6 35.840878 36.53678 35.688252 36.424264 35.575736 
C 36.311748 35.46322 36.159122 35.4 36 35.4 
C 35.840878 35.4 35.688252 35.46322 35.575736 35.575736 
C 35.46322 35.688252 35.4 35.840878 35.4 36 
C 35.4 36.159122 35.46322 36.311748 35.575736 36.424264 
C 35.688252 36.53678 35.840878 36.6 36 36.6 
z
M 42 36.6 
C 42.159122 36.6 42.311748 36.53678 42.424264 36.424264 
C 42.53678 36.311748 42.6 36.159122 42.6 36 
C 42.6 35.840878 42.53678 35.688252 42.424264 35.575736 
C 42.311748 35.46322 42.159122 35.4 42 35.4 
C 41.840878 35.4 41.688252 35.46322 41.575736 35.575736 
C 41.46322 35.688252 41.4 35.840878 41.4 36 
C 41.4 36.159122 41.46322 36.311748 41.575736 36.424264 
C 41.688252 36.53678 41.840878 36.6 42 36.6 
z
M 48 36.6 
C 48.159122 36.6 48.311748 36.53678 48.424264 36.424264 
C 48.53678 36.311748 48.6 36.159122 48.6 36 
C 48.6 35.840878 48.53678 35.688252 48.424264 35.575736 
C 48.311748 35.46322 48.159122 35.4 48 35.4 
C 47.840878 35.4 47.688252 35.46322 47.575736 35.575736 
C 47.46322 35.688252 47.4 35.840878 47.4 36 
C 47.4 36.159122 47.46322 36.311748 47.575736 36.424264 
C 47.688252 36.53678 47.840878 36.6 48 36.6 
z
M 54 36.6 
C 54.159122 36.6 54.311748 36.53678 54.424264 36.424264 
C 54.53678 36.311748 54.6 36.159122 54.6 36 
C 54.6 35.840878 54.53678 35.688252 54.424264 35.575736 
C 54.311748 35.46322 54.159122 35.4 54 35.4 
C 53.840878 35.4 53.688252 35.46322 53.575736 35.575736 
C 53.46322 35.688252 53.4 35.840878 53.4 36 
C 53.4 36.159122 53.46322 36.311748 53.575736 36.424264 
C 53.688252 36.53678 53.840878 36.6 54 36.6 
z
M 60 36.6 
C 60.159122 36.6 60.311748 36.53678 60.424264 36.424264 
C 60.53678 36.311748 60.6 36.159122 60.6 36 
C 60.6 35.840878 60.53678 35.688252 60.424264 35.575736 
C 60.311748 35.46322 60.159122 35.4 60 35.4 
C 59.840878 35.4 59.688252 35.46322 59.575736 35.575736 
C 59.46322 35.688252 59.4 35.840878 59.4 36 
C 59.4 36.159122 59.46322 36.311748 59.575736 36.424264 
C 59.688252 36.53678 59.840878 36.6 60 36.6 
z
M 66 36.6 
C 66.159122 36.6 66.311748 36.53678 66.424264 36.424264 
C 66.53678 36.311748 66.6 36.159122 66.6 36 
C 66.6 35.840878 66.53678 35.688252 66.424264 35.575736 
C 66.311748 35.46322 66.159122 35.4 66 35.4 
C 65.840878 35.4 65.688252 35.46322 65.575736 35.575736 
C 65.46322 35.688252 65.4 35.840878 65.4 36 
C 65.4 36.159122 65.46322 36.311748 65.575736 36.424264 
C 65.688252 36.53678 65.840878 36.6 66 36.6 
z
M 72 36.6 
C 72.159122 36.6 72.311748 36.53678 72.424264 36.424264 
C 72.53678 36.311748 72.6 36.159122 72.6 36 
C 72.6 35.840878 72.53678 35.688252 72.424264 35.575736 
C 72.311748 35.46322 72.159122 35.4 72 35.4 
C 71.840878 35.4 71.688252 35.46322 71.575736 35.575736 
C 71.46322 35.688252 71.4 35.840878 71.4 36 
C 71.4 36.159122 71.46322 36.311748 71.575736 36.424264 
C 71.688252 36.53678 71.840878 36.6 72 36.6 
z
M 3 30.6 
C 3.159122 30.6 3.311748 30.53678 3.424264 30.424264 
C 3.53678 30.311748 3.6 30.159122 3.6 30 
C 3.6 29.840878 3.53678 29.688252 3.424264 29.575736 
C 3.311748 29.46322 3.159122 29.4 3 29.4 
C 2.840878 29.4 2.688252 29.46322 2.575736 29.575736 
C 2.46322 29.688252 2.4 29.840878 2.4 30 
C 2.4 30.159122 2.46322 30.311748 2.575736 30.424264 
C 2.688252 30.53678 2.840878 30.6 3 30.6 
z
M 9 30.6 
C 9.159122 30.6 9.311748 30.53678 9.424264 30.424264 
C 9.53678 30.311748 9.6 30.159122 9.6 30 
C 9.6 29.840878 9.53678 29.688252 9.424264 29.575736 
C 9.311748 29.46322 9.159122 29.4 9 29.4 
C 8.840878 29.4 8.688252 29.46322 8.575736 29.575736 
C 8.46322 29.688252 8.4 29.840878 8.4 30 
C 8.4 30.159122 8.46322 30.311748 8.575736 30.424264 
C 8.688252 30.53678 8.840878 30.6 9 30.6 
z
M 15 30.6 
C 15.159122 30.6 15.311748 30.53678 15.424264 30.424264 
C 15.53678 30.311748 15.6 30.159122 15.6 30 
C 15.6 29.840878 15.53678 29.688252 15.424264 29.575736 
C 15.311748 29.46322 15.159122 29.4 15 29.4 
C 14.840878 29.4 14.688252 29.46322 14.575736 29.575736 
C 14.46322 29.688252 14.4 29.840878 14.4 30 
C 14.4 30.159122 14.46322 30.311748 14.575736 30.424264 
C 14.688252 30.53678 14.840878 30.6 15 30.6 
z
M 21 30.6 
C 21.159122 30.6 21.311748 30.53678 21.424264 30.424264 
C 21.53678 30.311748 21.6 30.159122 21.6 30 
C 21.6 29.840878 21.53678 29.688252 21.424264 29.575736 
C 21.311748 29.46322 21.159122 29.4 21 29.4 
C 20.840878 29.4 20.688252 29.46322 20.575736 29.575736 
C 20.46322 29.688252 20.4 29.840878 20.4 30 
C 20.4 30.159122 20.46322 30.311748 20.575736 30.424264 
C 20.688252 30.53678 20.840878 30.6 21 30.6 
z
M 27 30.6 
C 27.159122 30.6 27.311748 30.53678 27.424264 30.424264 
C 27.53678 30.311748 27.6 30.159122 27.6 30 
C 27.6 29.840878 27.53678 29.688252 27.424264 29.575736 
C 27.311748 29.46322 27.159122 29.4 27 29.4 
C 26.840878 29.4 26.688252 29.46322 26.575736 29.575736 
C 26.46322 29.688252 26.4 29.840878 26.4 30 
C 26.4 30.159122 26.46322 30.311748 26.575736 30.424264 
C 26.688252 30.53678 26.840878 30.6 27 30.6 
z
M 33 30.6 
C 33.159122 30.6 33.311748 30.53678 33.424264 30.424264 
C 33.53678 30.311748 33.6 30.159122 33.6 30 
C 33.6 29.840878 33.53678 29.688252 33.424264 29.575736 
C 33.311748 29.46322 33.159122 29.4 33 29.4 
C 32.840878 29.4 32.688252 29.46322 32.575736 29.575736 
C 32.46322 29.688252 32.4 29.840878 32.4 30 
C 32.4 30.159122 32.46322 30.311748 32.575736 30.424264 
C 32.688252 30.53678 32.840878 30.6 33 30.6 
z
M 39 30.6 
C 39.159122 30.6 39.311748 30.53678 39.424264 30.424264 
C 39.53678 30.311748 39.6 30.159122 39.6 30 
C 39.6 29.840878 39.53678 29.688252 39.424264 29.575736 
C 39.311748 29.46322 39.159122 29.4 39 29.4 
C 38.840878 29.4 38.688252 29.46322 38.575736 29.575736 
C 38.46322 29.688252 38.4 29.840878 38.4 30 
C 38.4 30.159122 38.46322 30.311748 38.575736 30.424264 
C 38.688252 30.53678 38.840878 30.6 39 30.6 
z
M 45 30.6 
C 45.159122 30.6 45.311748 30.53678 45.424264 30.424264 
C 45.53678 30.311748 45.6 30.159122 45.6 30 
C 45.6 29.840878 45.53678 29.688252 45.424264 29.575736 
C 45.311748 29.46322 45.159122 29.4 45 29.4 
C 44.840878 29.4 44.688252 29.46322 44.575736 29.575736 
C 44.46322 29.688252 44.4 29.840878 44.4 30 
C 44.4 30.159122 44.46322 30.311748 44.575736 30.424264 
C 44.688252 30.53678 44.840878 30.6 45 30.6 
z
M 51 30.6 
C 51.159122 30.6 51.311748 30.53678 51.424264 30.424264 
C 51.53678 30.311748 51.6 30.159122 51.6 30 
C 51.6 29.840878 51.53678 29.688252 51.424264 29.575736 
C 51.311748 29.46322 51.159122 29.4 51 29.4 
C 50.840878 29.4 50.688252 29.46322 50.575736 29.575736 
C 50.46322 29.688252 50.4 29.840878 50.4 30 
C 50.4 30.159122 50.46322 30.311748 50.575736 30.424264 
C 50.688252 30.53678 50.840878 30.6 51 30.6 
z
M 57 30.6 
C 57.159122 30.6 57.311748 30.53678 57.424264 30.424264 
C 57.53678 30.311748 57.6 30.159122 57.6 30 
C 57.6 29.840878 57.53678 29.688252 57.424264 29.575736 
C 57.311748 29.46322 57.159122 29.4 57 29.4 
C 56.840878 29.4 56.688252 29.46322 56.575736 29.575736 
C 56.46322 29.688252 56.4 29.840878 56.4 30 
C 56.4 30.159122 56.46322 30.311748 56.575736 30.424264 
C 56.688252 30.53678 56.840878 30.6 57 30.6 
z
M 63 30.6 
C 63.159122 30.6 63.311748 30.53678 63.424264 30.424264 
C 63.53678 30.311748 63.6 30.159122 63.6 30 
C 63.6 29.840878 63.53678 29.688252 63.424264 29.575736 
C 63.311748 29.46322 63.159122 29.4 63 29.4 
C 62.840878 29.4 62.688252 29.46322 62.575736 29.575736 
C 62.46322 29.688252 62.4 29.840878 62.4 30 
C 62.4 30.159122 62.46322 30.311748 62.575736 30.424264 
C 62.688252 30.53678 62.840878 30.6 63 30.6 
z
M 69 30.6 
C 69.159122 30.6 69.311748 30.53678 69.424264 30.424264 
C 69.53678 30.311748 69.6 30.159122 69.6 30 
C 69.6 29.840878 69.53678 29.688252 69.424264 29.575736 
C 69.311748 29.46322 69.159122 29.4 69 29.4 
C 68.840878 29.4 68.688252 29.46322 68.575736 29.575736 
C 68.46322 29.688252 68.4 29.840878 68.4 30 
C 68.4 30.159122 68.46322 30.311748 68.575736 30.424264 
C 68.688252 30.53678 68.840878 30.6 69 30.6 
z
M 0 24.6 
C 0.159122 24.6 0.311748 24.53678 0.424264 24.424264 
C 0.53678 24.311748 0.6 24.159122 0.6 24 
C 0.6 23.840878 0.53678 23.688252 0.424264 23.575736 
C 0.311748 23.46322 0.159122 23.4 0 23.4 
C -0.159122 23.4 -0.311748 23.46322 -0.424264 23.575736 
C -0.53678 23.688252 -0.6 23.840878 -0.6 24 
C -0.6 24.159122 -0.53678 24.311748 -0.424264 24.424264 
C -0.311748 24.53678 -0.159122 24.6 0 24.6 
z
M 6 24.6 
C 6.159122 24.6 6.311748 24.53678 6.424264 24.424264 
C 6.53678 24.311748 6.6 24.159122 6.6 24 
C 6.6 23.840878 6.53678 23.688252 6.424264 23.575736 
C 6.311748 23.46322 6.159122 23.4 6 23.4 
C 5.840878 23.4 5.688252 23.46322 5.575736 23.575736 
C 5.46322 23.688252 5.4 23.840878 5.4 24 
C 5.4 24.159122 5.46322 24.311748 5.575736 24.424264 
C 5.688252 24.53678 5.840878 24.6 6 24.6 
z
M 12 24.6 
C 12.159122 24.6 12.311748 24.53678 12.424264 24.424264 
C 12.53678 24.311748 12.6 24.159122 12.6 24 
C 12.6 23.840878 12.53678 23.688252 12.424264 23.575736 
C 12.311748 23.46322 12.159122 23.4 12 23.4 
C 11.840878 23.4 11.688252 23.46322 11.575736 23.575736 
C 11.46322 23.688252 11.4 23.840878 11.4 24 
C 11.4 24.159122 11.46322 24.311748 11.575736 24.424264 
C 11.688252 24.53678 11.840878 24.6 12 24.6 
z
M 18 24.6 
C 18.159122 24.6 18.311748 24.53678 18.424264 24.424264 
C 18.53678 24.311748 18.6 24.159122 18.6 24 
C 18.6 23.840878 18.53678 23.688252 18.424264 23.575736 
C 18.311748 23.46322 18.159122 23.4 18 23.4 
C 17.840878 23.4 17.688252 23.46322 17.575736 23.575736 
C 17.46322 23.688252 17.4 23.840878 17.4 24 
C 17.4 24.159122 17.46322 24.311748 17.575736 24.424264 
C 17.688252 24.53678 17.840878 24.6 18 24.6 
z
M 24 24.6 
C 24.159122 24.6 24.311748 24.53678 24.424264 24.424264 
C 24.53678 24.311748 24.6 24.159122 24.6 24 
C 24.6 23.840878 24.53678 23.688252 24.424264 23.575736 
C 24.311748 23.46322 24.159122 23.4 24 23.4 
C 23.840878 23.4 23.688252 23.46322 23.575736 23.575736 
C 23.46322 23.688252 23.4 23.840878 23.4 24 
C 23.4 24.159122 23.46322 24.311748 23.575736 24.424264 
C 23.688252 24.53678 23.840878 24.6 24 24.6 
z
M 30 24.6 
C 30.159122 24.6 30.311748 24.53678 30.424264 24.424264 
C 30.53678 24.311748 30.6 24.159122 30.6 24 
C 30.6 23.840878 30.53678 23.688252 30.424264 23.575736 
C 30.311748 23.46322 30.159122 23.4 30 23.4 
C 29.840878 23.4 29.688252 23.46322 29.575736 23.575736 
C 29.46322 23.688252 29.4 23.840878 29.4 24 
C 29.4 24.159122 29.46322 24.311748 29.575736 24.424264 
C 29.688252 24.53678 29.840878 24.6 30 24.6 
z
M 36 24.6 
C 36.159122 24.6 36.311748 24.53678 36.424264 24.424264 
C 36.53678 24.311748 36.6 24.159122 36.6 24 
C 36.6 23.840878 36.53678 23.688252 36.424264 23.575736 
C 36.311748 23.46322 36.159122 23.4 36 23.4 
C 35.840878 23.4 35.688252 23.46322 35.575736 23.575736 
C 35.46322 23.688252 35.4 23.840878 35.4 24 
C 35.4 24.159122 35.46322 24.311748 35.575736 24.424264 
C 35.688252 24.53678 35.840878 24.6 36 24.6 
z
M 42 24.6 
C 42.159122 24.6 42.311748 24.53678 42.424264 24.424264 
C 42.53678 24.311748 42.6 24.159122 42.6 24 
C 42.6 23.840878 42.53678 23.688252 42.424264 23.575736 
C 42.311748 23.46322 42.159122 23.4 42 23.4 
C 41.840878 23.4 41.688252 23.46322 41.575736 23.575736 
C 41.46322 23.688252 41.4 23.840878 41.4 24 
C 41.4 24.159122 41.46322 24.311748 41.575736 24.424264 
C 41.688252 24.53678 41.840878 24.6 42 24.6 
z
M 48 24.6 
C 48.159122 24.6 48.311748 24.53678 48.424264 24.424264 
C 48.53678 24.311748 48.6 24.159122 48.6 24 
C 48.6 23.840878 48.53678 23.688252 48.424264 23.575736 
C 48.311748 23.46322 48.159122 23.4 48 23.4 
C 47.840878 23.4 47.688252 23.46322 47.575736 23.575736 
C 47.46322 23.688252 47.4 23.840878 47.4 24 
C 47.4 24.159122 47.46322 24.311748 47.575736 24.424264 
C 47.688252 24.53678 47.840878 24.6 48 24.6 
z
M 54 24.6 
C 54.159122 24.6 54.311748 24.53678 54.424264 24.424264 
C 54.53678 24.311748 54.6 24.159122 54.6 24 
C 54.6 23.840878 54.53678 23.688252 54.424264 23.575736 
C 54.311748 23.46322 54.159122 23.4 54 23.4 
C 53.840878 23.4 53.688252 23.46322 53.575736 23.575736 
C 53.46322 23.688252 53.4 23.840878 53.4 24 
C 53.4 24.159122 53.46322 24.311748 53.575736 24.424264 
C 53.688252 24.53678 53.840878 24.6 54 24.6 
z
M 60 24.6 
C 60.159122 24.6 60.311748 24.53678 60.424264 24.424264 
C 60.53678 24.311748 60.6 24.159122 60.6 24 
C 60.6 23.840878 60.53678 23.688252 60.424264 23.575736 
C 60.311748 23.46322 60.159122 23.4 60 23.4 
C 59.840878 23.4 59.688252 23.46322 59.575736 23.575736 
C 59.46322 23.688252 59.4 23.840878 59.4 24 
C 59.4 24.159122 59.46322 24.311748 59.575736 24.424264 
C 59.688252 24.53678 59.840878 24.6 60 24.6 
z
M 66 24.6 
C 66.159122 24.6 66.311748 24.53678 66.424264 24.424264 
C 66.53678 24.311748 66.6 24.159122 66.6 24 
C 66.6 23.840878 66.53678 23.688252 66.424264 23.575736 
C 66.311748 23.46322 66.159122 23.4 66 23.4 
C 65.840878 23.4 65.688252 23.46322 65.575736 23.575736 
C 65.46322 23.688252 65.4 23.840878 65.4 24 
C 65.4 24.159122 65.46322 24.311748 65.575736 24.424264 
C 65.688252 24.53678 65.840878 24.6 66 24.6 
z
M 72 24.6 
C 72.159122 24.6 72.311748 24.53678 72.424264 24.424264 
C 72.53678 24.311748 72.6 24.159122 72.6 24 
C 72.6 23.840878 72.53678 23.688252 72.424264 23.575736 
C 72.311748 23.46322 72.159122 23.4 72 23.4 
C 71.840878 23.4 71.688252 23.46322 71.575736 23.575736 
C 71.46322 23.688252 71.4 23.840878 71.4 24 
C 71.4 24.159122 71.46322 24.311748 71.575736 24.424264 
C 71.688252 24.53678 71.840878 24.6 72 24.6 
z
M 3 18.6 
C 3.159122 18.6 3.311748 18.53678 3.424264 18.424264 
C 3.53678 18.311748 3.6 18.159122 3.6 18 
C 3.6 17.840878 3.53678 17.688252 3.424264 17.575736 
C 3.311748 17.46322 3.159122 17.4 3 17.4 
C 2.840878 17.4 2.688252 17.46322 2.575736 17.575736 
C 2.46322 17.688252 2.4 17.840878 2.4 18 
C 2.4 18.159122 2.46322 18.311748 2.575736 18.424264 
C 2.688252 18.53678 2.840878 18.6 3 18.6 
z
M 9 18.6 
C 9.159122 18.6 9.311748 18.53678 9.424264 18.424264 
C 9.53678 18.311748 9.6 18.159122 9.6 18 
C 9.6 17.840878 9.53678 17.688252 9.424264 17.575736 
C 9.311748 17.46322 9.159122 17.4 9 17.4 
C 8.840878 17.4 8.688252 17.46322 8.575736 17.575736 
C 8.46322 17.688252 8.4 17.840878 8.4 18 
C 8.4 18.159122 8.46322 18.311748 8.575736 18.424264 
C 8.688252 18.53678 8.840878 18.6 9 18.6 
z
M 15 18.6 
C 15.159122 18.6 15.311748 18.53678 15.424264 18.424264 
C 15.53678 18.311748 15.6 18.159122 15.6 18 
C 15.6 17.840878 15.53678 17.688252 15.424264 17.575736 
C 15.311748 17.46322 15.159122 17.4 15 17.4 
C 14.840878 17.4 14.688252 17.46322 14.575736 17.575736 
C 14.46322 17.688252 14.4 17.840878 14.4 18 
C 14.4 18.159122 14.46322 18.311748 14.575736 18.424264 
C 14.688252 18.53678 14.840878 18.6 15 18.6 
z
M 21 18.6 
C 21.159122 18.6 21.311748 18.53678 21.424264 18.424264 
C 21.53678 18.311748 21.6 18.159122 21.6 18 
C 21.6 17.840878 21.53678 17.688252 21.424264 17.575736 
C 21.311748 17.46322 21.159122 17.4 21 17.4 
C 20.840878 17.4 20.688252 17.46322 20.575736 17.575736 
C 20.46322 17.688252 20.4 17.840878 20.4 18 
C 20.4 18.159122 20.46322 18.311748 20.575736 18.424264 
C 20.688252 18.53678 20.840878 18.6 21 18.6 
z
M 27 18.6 
C 27.159122 18.6 27.311748 18.53678 27.424264 18.424264 
C 27.53678 18.311748 27.6 18.159122 27.6 18 
C 27.6 17.840878 27.53678 17.688252 27.424264 17.575736 
C 27.311748 17.46322 27.159122 17.4 27 17.4 
C 26.840878 17.4 26.688252 17.46322 26.575736 17.575736 
C 26.46322 17.688252 26.4 17.840878 26.4 18 
C 26.4 18.159122 26.46322 18.311748 26.575736 18.424264 
C 26.688252 18.53678 26.840878 18.6 27 18.6 
z
M 33 18.6 
C 33.159122 18.6 33.311748 18.53678 33.424264 18.424264 
C 33.53678 18.311748 33.6 18.159122 33.6 18 
C 33.6 17.840878 33.53678 17.688252 33.424264 17.575736 
C 33.311748 17.46322 33.159122 17.4 33 17.4 
C 32.840878 17.4 32.688252 17.46322 32.575736 17.575736 
C 32.46322 17.688252 32.4 17.840878 32.4 18 
C 32.4 18.159122 32.46322 18.311748 32.575736 18.424264 
C 32.688252 18.53678 32.840878 18.6 33 18.6 
z
M 39 18.6 
C 39.159122 18.6 39.311748 18.53678 39.424264 18.424264 
C 39.53678 18.311748 39.6 18.159122 39.6 18 
C 39.6 17.840878 39.53678 17.688252 39.424264 17.575736 
C 39.311748 17.46322 39.159122 17.4 39 17.4 
C 38.840878 17.4 38.688252 17.46322 38.575736 17.575736 
C 38.46322 17.688252 38.4 17.840878 38.4 18 
C 38.4 18.159122 38.46322 18.311748 38.575736 18.424264 
C 38.688252 18.53678 38.840878 18.6 39 18.6 
z
M 45 18.6 
C 45.159122 18.6 45.311748 18.53678 45.424264 18.424264 
C 45.53678 18.311748 45.6 18.159122 45.6 18 
C 45.6 17.840878 45.53678 17.688252 45.424264 17.575736 
C 45.311748 17.46322 45.159122 17.4 45 17.4 
C 44.840878 17.4 44.688252 17.46322 44.575736 17.575736 
C 44.46322 17.688252 44.4 17.840878 44.4 18 
C 44.4 18.159122 44.46322 18.311748 44.575736 18.424264 
C 44.688252 18.53678 44.840878 18.6 45 18.6 
z
M 51 18.6 
C 51.159122 18.6 51.311748 18.53678 51.424264 18.424264 
C 51.53678 18.311748 51.6 18.159122 51.6 18 
C 51.6 17.840878 51.53678 17.688252 51.424264 17.575736 
C 51.311748 17.46322 51.159122 17.4 51 17.4 
C 50.840878 17.4 50.688252 17.46322 50.575736 17.575736 
C 50.46322 17.688252 50.4 17.840878 50.4 18 
C 50.4 18.159122 50.46322 18.311748 50.575736 18.424264 
C 50.688252 18.53678 50.840878 18.6 51 18.6 
z
M 57 18.6 
C 57.159122 18.6 57.311748 18.53678 57.424264 18.424264 
C 57.53678 18.311748 57.6 18.159122 57.6 18 
C 57.6 17.840878 57.53678 17.688252 57.424264 17.575736 
C 57.311748 17.46322 57.159122 17.4 57 17.4 
C 56.840878 17.4 56.688252 17.46322 56.575736 17.575736 
C 56.46322 17.688252 56.4 17.840878 56.4 18 
C 56.4 18.159122 56.46322 18.311748 56.575736 18.424264 
C 56.688252 18.53678 56.840878 18.6 57 18.6 
z
M 63 18.6 
C 63.159122 18.6 63.311748 18.53678 63.424264 18.424264 
C 63.53678 18.311748 63.6 18.159122 63.6 18 
C 63.6 17.840878 63.53678 17.688252 63.424264 17.575736 
C 63.311748 17.46322 63.159122 17.4 63 17.4 
C 62.840878 17.4 62.688252 17.46322 62.575736 17.575736 
C 62.46322 17.688252 62.4 17.840878 62.4 18 
C 62.4 18.159122 62.46322 18.311748 62.575736 18.424264 
C 62.688252 18.53678 62.840878 18.6 63 18.6 
z
M 69 18.6 
C 69.159122 18.6 69.311748 18.53678 69.424264 18.424264 
C 69.53678 18.311748 69.6 18.159122 69.6 18 
C 69.6 17.840878 69.53678 17.688252 69.424264 17.575736 
C 69.311748 17.46322 69.159122 17.4 69 17.4 
C 68.840878 17.4 68.688252 17.46322 68.575736 17.575736 
C 68.46322 17.688252 68.4 17.840878 68.4 18 
C 68.4 18.159122 68.46322 18.311748 68.575736 18.424264 
C 68.688252 18.53678 68.840878 18.6 69 18.6 
z
M 0 12.6 
C 0.159122 12.6 0.311748 12.53678 0.424264 12.424264 
C 0.53678 12.311748 0.6 12.159122 0.6 12 
C 0.6 11.840878 0.53678 11.688252 0.424264 11.575736 
C 0.311748 11.46322 0.159122 11.4 0 11.4 
C -0.159122 11.4 -0.311748 11.46322 -0.424264 11.575736 
C -0.53678 11.688252 -0.6 11.840878 -0.6 12 
C -0.6 12.159122 -0.53678 12.311748 -0.424264 12.424264 
C -0.311748 12.53678 -0.159122 12.6 0 12.6 
z
M 6 12.6 
C 6.159122 12.6 6.311748 12.53678 6.424264 12.424264 
C 6.53678 12.311748 6.6 12.159122 6.6 12 
C 6.6 11.840878 6.53678 11.688252 6.424264 11.575736 
C 6.311748 11.46322 6.159122 11.4 6 11.4 
C 5.840878 11.4 5.688252 11.46322 5.575736 11.575736 
C 5.46322 11.688252 5.4 11.840878 5.4 12 
C 5.4 12.159122 5.46322 12.311748 5.575736 12.424264 
C 5.688252 12.53678 5.840878 12.6 6 12.6 
z
M 12 12.6 
C 12.159122 12.6 12.311748 12.53678 12.424264 12.424264 
C 12.53678 12.311748 12.6 12.159122 12.6 12 
C 12.6 11.840878 12.53678 11.688252 12.424264 11.575736 
C 12.311748 11.46322 12.159122 11.4 12 11.4 
C 11.840878 11.4 11.688252 11.46322 11.575736 11.575736 
C 11.46322 11.688252 11.4 11.840878 11.4 12 
C 11.4 12.159122 11.46322 12.311748 11.575736 12.424264 
C 11.688252 12.53678 11.840878 12.6 12 12.6 
z
M 18 12.6 
C 18.159122 12.6 18.311748 12.53678 18.424264 12.424264 
C 18.53678 12.311748 18.6 12.159122 18.6 12 
C 18.6 11.840878 18.53678 11.688252 18.424264 11.575736 
C 18.311748 11.46322 18.159122 11.4 18 11.4 
C 17.840878 11.4 17.688252 11.46322 17.575736 11.575736 
C 17.46322 11.688252 17.4 11.840878 17.4 12 
C 17.4 12.159122 17.46322 12.311748 17.575736 12.424264 
C 17.688252 12.53678 17.840878 12.6 18 12.6 
z
M 24 12.6 
C 24.159122 12.6 24.311748 12.53678 24.424264 12.424264 
C 24.53678 12.311748 24.6 12.159122 24.6 12 
C 24.6 11.840878 24.53678 11.688252 24.424264 11.575736 
C 24.311748 11.46322 24.159122 11.4 24 11.4 
C 23.840878 11.4 23.688252 11.46322 23.575736 11.575736 
C 23.46322 11.688252 23.4 11.840878 23.4 12 
C 23.4 12.159122 23.46322 12.311748 23.575736 12.424264 
C 23.688252 12.53678 23.840878 12.6 24 12.6 
z
M 30 12.6 
C 30.159122 12.6 30.311748 12.53678 30.424264 12.424264 
C 30.53678 12.311748 30.6 12.159122 30.6 12 
C 30.6 11.840878 30.53678 11.688252 30.424264 11.575736 
C 30.311748 11.46322 30.159122 11.4 30 11.4 
C 29.840878 11.4 29.688252 11.46322 29.575736 11.575736 
C 29.46322 11.688252 29.4 11.840878 29.4 12 
C 29.4 12.159122 29.46322 12.311748 29.575736 12.424264 
C 29.688252 12.53678 29.840878 12.6 30 12.6 
z
M 36 12.6 
C 36.159122 12.6 36.311748 12.53678 36.424264 12.424264 
C 36.53678 12.311748 36.6 12.159122 36.6 12 
C 36.6 11.840878 36.53678 11.688252 36.424264 11.575736 
C 36.311748 11.46322 36.159122 11.4 36 11.4 
C 35.840878 11.4 35.688252 11.46322 35.575736 11.575736 
C 35.46322 11.688252 35.4 11.840878 35.4 12 
C 35.4 12.159122 35.46322 12.311748 35.575736 12.424264 
C 35.688252 12.53678 35.840878 12.6 36 12.6 
z
M 42 12.6 
C 42.159122 12.6 42.311748 12.53678 42.424264 12.424264 
C 42.53678 12.311748 42.6 12.159122 42.6 12 
C 42.6 11.840878 42.53678 11.688252 42.424264 11.575736 
C 42.311748 11.46322 42.159122 11.4 42 11.4 
C 41.840878 11.4 41.688252 11.46322 41.575736 11.575736 
C 41.46322 11.688252 41.4 11.840878 41.4 12 
C 41.4 12.159122 41.46322 12.311748 41.575736 12.424264 
C 41.688252 12.53678 41.840878 12.6 42 12.6 
z
M 48 12.6 
C 48.159122 12.6 48.311748 12.53678 48.424264 12.424264 
C 48.53678 12.311748 48.6 12.159122 48.6 12 
C 48.6 11.840878 48.53678 11.688252 48.424264 11.575736 
C 48.311748 11.46322 48.159122 11.4 48 11.4 
C 47.840878 11.4 47.688252 11.46322 47.575736 11.575736 
C 47.46322 11.688252 47.4 11.840878 47.4 12 
C 47.4 12.159122 47.46322 12.311748 47.575736 12.424264 
C 47.688252 12.53678 47.840878 12.6 48 12.6 
z
M 54 12.6 
C 54.159122 12.6 54.311748 12.53678 54.424264 12.424264 
C 54.53678 12.311748 54.6 12.159122 54.6 12 
C 54.6 11.840878 54.53678 11.688252 54.424264 11.575736 
C 54.311748 11.46322 54.159122 11.4 54 11.4 
C 53.840878 11.4 53.688252 11.46322 53.575736 11.575736 
C 53.46322 11.688252 53.4 11.840878 53.4 12 
C 53.4 12.159122 53.46322 12.311748 53.575736 12.424264 
C 53.688252 12.53678 53.840878 12.6 54 12.6 
z
M 60 12.6 
C 60.159122 12.6 60.311748 12.53678 60.424264 12.424264 
C 60.53678 12.311748 60.6 12.159122 60.6 12 
C 60.6 11.840878 60.53678 11.688252 60.424264 11.575736 
C 60.311748 11.46322 60.159122 11.4 60 11.4 
C 59.840878 11.4 59.688252 11.46322 59.575736 11.575736 
C 59.46322 11.688252 59.4 11.840878 59.4 12 
C 59.4 12.159122 59.46322 12.311748 59.575736 12.424264 
C 59.688252 12.53678 59.840878 12.6 60 12.6 
z
M 66 12.6 
C 66.159122 12.6 66.311748 12.53678 66.424264 12.424264 
C 66.53678 12.311748 66.6 12.159122 66.6 12 
C 66.6 11.840878 66.53678 11.688252 66.424264 11.575736 
C 66.311748 11.46322 66.159122 11.4 66 11.4 
C 65.840878 11.4 65.688252 11.46322 65.575736 11.575736 
C 65.46322 11.688252 65.4 11.840878 65.4 12 
C 65.4 12.159122 65.46322 12.311748 65.575736 12.424264 
C 65.688252 12.53678 65.840878 12.6 66 12.6 
z
M 72 12.6 
C 72.159122 12.6 72.311748 12.53678 72.424264 12.424264 
C 72.53678 12.311748 72.6 12.159122 72.6 12 
C 72.6 11.840878 72.53678 11.688252 72.424264 11.575736 
C 72.311748 11.46322 72.159122 11.4 72 11.4 
C 71.840878 11.4 71.688252 11.46322 71.575736 11.575736 
C 71.46322 11.688252 71.4 11.840878 71.4 12 
C 71.4 12.159122 71.46322 12.311748 71.575736 12.424264 
C 71.688252 12.53678 71.840878 12.6 72 12.6 
z
M 3 6.6 
C 3.159122 6.6 3.311748 6.53678 3.424264 6.424264 
C 3.53678 6.311748 3.6 6.159122 3.6 6 
C 3.6 5.840878 3.53678 5.688252 3.424264 5.575736 
C 3.311748 5.46322 3.159122 5.4 3 5.4 
C 2.840878 5.4 2.688252 5.46322 2.575736 5.575736 
C 2.46322 5.688252 2.4 5.840878 2.4 6 
C 2.4 6.159122 2.46322 6.311748 2.575736 6.424264 
C 2.688252 6.53678 2.840878 6.6 3 6.6 
z
M 9 6.6 
C 9.159122 6.6 9.311748 6.53678 9.424264 6.424264 
C 9.53678 6.311748 9.6 6.159122 9.6 6 
C 9.6 5.840878 9.53678 5.688252 9.424264 5.575736 
C 9.311748 5.46322 9.159122 5.4 9 5.4 
C 8.840878 5.4 8.688252 5.46322 8.575736 5.575736 
C 8.46322 5.688252 8.4 5.840878 8.4 6 
C 8.4 6.159122 8.46322 6.311748 8.575736 6.424264 
C 8.688252 6.53678 8.840878 6.6 9 6.6 
z
M 15 6.6 
C 15.159122 6.6 15.311748 6.53678 15.424264 6.424264 
C 15.53678 6.311748 15.6 6.159122 15.6 6 
C 15.6 5.840878 15.53678 5.688252 15.424264 5.575736 
C 15.311748 5.46322 15.159122 5.4 15 5.4 
C 14.840878 5.4 14.688252 5.46322 14.575736 5.575736 
C 14.46322 5.688252 14.4 5.840878 14.4 6 
C 14.4 6.159122 14.46322 6.311748 14.575736 6.424264 
C 14.688252 6.53678 14.840878 6.6 15 6.6 
z
M 21 6.6 
C 21.159122 6.6 21.311748 6.53678 21.424264 6.424264 
C 21.53678 6.311748 21.6 6.159122 21.6 6 
C 21.6 5.840878 21.53678 5.688252 21.424264 5.575736 
C 21.311748 5.46322 21.159122 5.4 21 5.4 
C 20.840878 5.4 20.688252 5.46322 20.575736 5.575736 
C 20.46322 5.688252 20.4 5.840878 20.4 6 
C 20.4 6.159122 20.46322 6.311748 20.575736 6.424264 
C 20.688252 6.53678 20.840878 6.6 21 6.6 
z
M 27 6.6 
C 27.159122 6.6 27.311748 6.53678 27.424264 6.424264 
C 27.53678 6.311748 27.6 6.159122 27.6 6 
C 27.6 5.840878 27.53678 5.688252 27.424264 5.575736 
C 27.311748 5.46322 27.159122 5.4 27 5.4 
C 26.840878 5.4 26.688252 5.46322 26.575736 5.575736 
C 26.46322 5.688252 26.4 5.840878 26.4 6 
C 26.4 6.159122 26.46322 6.311748 26.575736 6.424264 
C 26.688252 6.53678 26.840878 6.6 27 6.6 
z
M 33 6.6 
C 33.159122 6.6 33.311748 6.53678 33.424264 6.424264 
C 33.53678 6.311748 33.6 6.159122 33.6 6 
C 33.6 5.840878 33.53678 5.688252 33.424264 5.575736 
C 33.311748 5.46322 33.159122 5.4 33 5.4 
C 32.840878 5.4 32.688252 5.46322 32.575736 5.575736 
C 32.46322 5.688252 32.4 5.840878 32.4 6 
C 32.4 6.159122 32.46322 6.311748 32.575736 6.424264 
C 32.688252 6.53678 32.840878 6.6 33 6.6 
z
M 39 6.6 
C 39.159122 6.6 39.311748 6.53678 39.424264 6.424264 
C 39.53678 6.311748 39.6 6.159122 39.6 6 
C 39.6 5.840878 39.53678 5.688252 39.424264 5.575736 
C 39.311748 5.46322 39.159122 5.4 39 5.4 
C 38.840878 5.4 38.688252 5.46322 38.575736 5.575736 
C 38.46322 5.688252 38.4 5.840878 38.4 6 
C 38.4 6.159122 38.46322 6.311748 38.575736 6.424264 
C 38.688252 6.53678 38.840878 6.6 39 6.6 
z
M 45 6.6 
C 45.159122 6.6 45.311748 6.53678 45.424264 6.424264 
C 45.53678 6.311748 45.6 6.159122 45.6 6 
C 45.6 5.840878 45.53678 5.688252 45.424264 5.575736 
C 45.311748 5.46322 45.159122 5.4 45 5.4 
C 44.840878 5.4 44.688252 5.46322 44.575736 5.575736 
C 44.46322 5.688252 44.4 5.840878 44.4 6 
C 44.4 6.159122 44.46322 6.311748 44.575736 6.424264 
C 44.688252 6.53678 44.840878 6.6 45 6.6 
z
M 51 6.6 
C 51.159122 6.6 51.311748 6.53678 51.424264 6.424264 
C 51.53678 6.311748 51.6 6.159122 51.6 6 
C 51.6 5.840878 51.53678 5.688252 51.424264 5.575736 
C 51.311748 5.46322 51.159122 5.4 51 5.4 
C 50.840878 5.4 50.688252 5.46322 50.575736 5.575736 
C 50.46322 5.688252 50.4 5.840878 50.4 6 
C 50.4 6.159122 50.46322 6.311748 50.575736 6.424264 
C 50.688252 6.53678 50.840878 6.6 51 6.6 
z
M 57 6.6 
C 57.159122 6.6 57.311748 6.53678 57.424264 6.424264 
C 57.53678 6.311748 57.6 6.159122 57.6 6 
C 57.6 5.840878 57.53678 5.688252 57.424264 5.575736 
C 57.311748 5.46322 57.159122 5.4 57 5.4 
C 56.840878 5.4 56.688252 5.46322 56.575736 5.575736 
C 56.46322 5.688252 56.4 5.840878 56.4 6 
C 56.4 6.159122 56.46322 6.311748 56.575736 6.424264 
C 56.688252 6.53678 56.840878 6.6 57 6.6 
z
M 63 6.6 
C 63.159122 6.6 63.311748 6.53678 63.424264 6.424264 
C 63.53678 6.311748 63.6 6.159122 63.6 6 
C 63.6 5.840878 63.53678 5.688252 63.424264 5.575736 
C 63.311748 5.46322 63.159122 5.4 63 5.4 
C 62.840878 5.4 62.688252 5.46322 62.575736 5.575736 
C 62.46322 5.688252 62.4 5.840878 62.4 6 
C 62.4 6.159122 62.46322 6.311748 62.575736 6.424264 
C 62.688252 6.53678 62.840878 6.6 63 6.6 
z
M 69 6.6 
C 69.159122 6.6 69.311748 6.53678 69.424264 6.424264 
C 69.53678 6.311748 69.6 6.159122 69.6 6 
C 69.6 5.840878 69.53678 5.688252 69.424264 5.575736 
C 69.311748 5.46322 69.159122 5.4 69 5.4 
C 68.840878 5.4 68.688252 5.46322 68.575736 5.575736 
C 68.46322 5.688252 68.4 5.840878 68.4 6 
C 68.4 6.159122 68.46322 6.311748 68.575736 6.424264 
C 68.688252 6.53678 68.840878 6.6 69 6.6 
z
M 0 0.6 
C 0.159122 0.6 0.311748 0.53678 0.424264 0.424264 
C 0.53678 0.311748 0.6 0.159122 0.6 0 
C 0.6 -0.159122 0.53678 -0.311748 0.424264 -0.424264 
C 0.311748 -0.53678 0.159122 -0.6 0 -0.6 
C -0.159122 -0.6 -0.311748 -0.53678 -0.424264 -0.424264 
C -0.53678 -0.311748 -0.6 -0.159122 -0.6 0 
C -0.6 0.159122 -0.53678 0.311748 -0.424264 0.424264 
C -0.311748 0.53678 -0.159122 0.6 0 0.6 
z
M 6 0.6 
C 6.159122 0.6 6.311748 0.53678 6.424264 0.424264 
C 6.53678 0.311748 6.6 0.159122 6.6 0 
C 6.6 -0.159122 6.53678 -0.311748 6.424264 -0.424264 
C 6.311748 -0.53678 6.159122 -0.6 6 -0.6 
C 5.840878 -0.6 5.688252 -0.53678 5.575736 -0.424264 
C 5.46322 -0.311748 5.4 -0.159122 5.4 0 
C 5.4 0.159122 5.46322 0.311748 5.575736 0.424264 
C 5.688252 0.53678 5.840878 0.6 6 0.6 
z
M 12 0.6 
C 12.159122 0.6 12.311748 0.53678 12.424264 0.424264 
C 12.53678 0.311748 12.6 0.159122 12.6 0 
C 12.6 -0.159122 12.53678 -0.311748 12.424264 -0.424264 
C 12.311748 -0.53678 12.159122 -0.6 12 -0.6 
C 11.840878 -0.6 11.688252 -0.53678 11.575736 -0.424264 
C 11.46322 -0.311748 11.4 -0.159122 11.4 0 
C 11.4 0.159122 11.46322 0.311748 11.575736 0.424264 
C 11.688252 0.53678 11.840878 0.6 12 0.6 
z
M 18 0.6 
C 18.159122 0.6 18.311748 0.53678 18.424264 0.424264 
C 18.53678 0.311748 18.6 0.159122 18.6 0 
C 18.6 -0.159122 18.53678 -0.311748 18.424264 -0.424264 
C 18.311748 -0.53678 18.159122 -0.6 18 -0.6 
C 17.840878 -0.6 17.688252 -0.53678 17.575736 -0.424264 
C 17.46322 -0.311748 17.4 -0.159122 17.4 0 
C 17.4 0.159122 17.46322 0.311748 17.575736 0.424264 
C 17.688252 0.53678 17.840878 0.6 18 0.6 
z
M 24 0.6 
C 24.159122 0.6 24.311748 0.53678 24.424264 0.424264 
C 24.53678 0.311748 24.6 0.159122 24.6 0 
C 24.6 -0.159122 24.53678 -0.311748 24.424264 -0.424264 
C 24.311748 -0.53678 24.159122 -0.6 24 -0.6 
C 23.840878 -0.6 23.688252 -0.53678 23.575736 -0.424264 
C 23.46322 -0.311748 23.4 -0.159122 23.4 0 
C 23.4 0.159122 23.46322 0.311748 23.575736 0.424264 
C 23.688252 0.53678 23.840878 0.6 24 0.6 
z
M 30 0.6 
C 30.159122 0.6 30.311748 0.53678 30.424264 0.424264 
C 30.53678 0.311748 30.6 0.159122 30.6 0 
C 30.6 -0.159122 30.53678 -0.311748 30.424264 -0.424264 
C 30.311748 -0.53678 30.159122 -0.6 30 -0.6 
C 29.840878 -0.6 29.688252 -0.53678 29.575736 -0.424264 
C 29.46322 -0.311748 29.4 -0.159122 29.4 0 
C 29.4 0.159122 29.46322 0.311748 29.575736 0.424264 
C 29.688252 0.53678 29.840878 0.6 30 0.6 
z
M 36 0.6 
C 36.159122 0.6 36.311748 0.53678 36.424264 0.424264 
C 36.53678 0.311748 36.6 0.159122 36.6 0 
C 36.6 -0.159122 36.53678 -0.311748 36.424264 -0.424264 
C 36.311748 -0.53678 36.159122 -0.6 36 -0.6 
C 35.840878 -0.6 35.688252 -0.53678 35.575736 -0.424264 
C 35.46322 -0.311748 35.4 -0.159122 35.4 0 
C 35.4 0.159122 35.46322 0.311748 35.575736 0.424264 
C 35.688252 0.53678 35.840878 0.6 36 0.6 
z
M 42 0.6 
C 42.159122 0.6 42.311748 0.53678 42.424264 0.424264 
C 42.53678 0.311748 42.6 0.159122 42.6 0 
C 42.6 -0.159122 42.53678 -0.311748 42.424264 -0.424264 
C 42.311748 -0.53678 42.159122 -0.6 42 -0.6 
C 41.840878 -0.6 41.688252 -0.53678 41.575736 -0.424264 
C 41.46322 -0.311748 41.4 -0.159122 41.4 0 
C 41.4 0.159122 41.46322 0.311748 41.575736 0.424264 
C 41.688252 0.53678 41.840878 0.6 42 0.6 
z
M 48 0.6 
C 48.159122 0.6 48.311748 0.53678 48.424264 0.424264 
C 48.53678 0.311748 48.6 0.159122 48.6 0 
C 48.6 -0.159122 48.53678 -0.311748 48.424264 -0.424264 
C 48.311748 -0.53678 48.159122 -0.6 48 -0.6 
C 47.840878 -0.6 47.688252 -0.53678 47.575736 -0.424264 
C 47.46322 -0.311748 47.4 -0.159122 47.4 0 
C 47.4 0.159122 47.46322 0.311748 47.575736 0.424264 
C 47.688252 0.53678 47.840878 0.6 48 0.6 
z
M 54 0.6 
C 54.159122 0.6 54.311748 0.53678 54.424264 0.424264 
C 54.53678 0.311748 54.6 0.159122 54.6 0 
C 54.6 -0.159122 54.53678 -0.311748 54.424264 -0.424264 
C 54.311748 -0.53678 54.159122 -0.6 54 -0.6 
C 53.840878 -0.6 53.688252 -0.53678 53.575736 -0.424264 
C 53.46322 -0.311748 53.4 -0.159122 53.4 0 
C 53.4 0.159122 53.46322 0.311748 53.575736 0.424264 
C 53.688252 0.53678 53.840878 0.6 54 0.6 
z
M 60 0.6 
C 60.159122 0.6 60.311748 0.53678 60.424264 0.424264 
C 60.53678 0.311748 60.6 0.159122 60.6 0 
C 60.6 -0.159122 60.53678 -0.311748 60.424264 -0.424264 
C 60.311748 -0.53678 60.159122 -0.6 60 -0.6 
C 59.840878 -0.6 59.688252 -0.53678 59.575736 -0.424264 
C 59.46322 -0.311748 59.4 -0.159122 59.4 0 
C 59.4 0.159122 59.46322 0.311748 59.575736 0.424264 
C 59.688252 0.53678 59.840878 0.6 60 0.6 
z
M 66 0.6 
C 66.159122 0.6 66.311748 0.53678 66.424264 0.424264 
C 66.53678 0.311748 66.6 0.159122 66.6 0 
C 66.6 -0.159122 66.53678 -0.311748 66.424264 -0.424264 
C 66.311748 -0.53678 66.159122 -0.6 66 -0.6 
C 65.840878 -0.6 65.688252 -0.53678 65.575736 -0.424264 
C 65.46322 -0.311748 65.4 -0.159122 65.4 0 
C 65.4 0.159122 65.46322 0.311748 65.575736 0.424264 
C 65.688252 0.53678 65.840878 0.6 66 0.6 
z
M 72 0.6 
C 72.159122 0.6 72.311748 0.53678 72.424264 0.424264 
C 72.53678 0.311748 72.6 0.159122 72.6 0 
C 72.6 -0.159122 72.53678 -0.311748 72.424264 -0.424264 
C 72.311748 -0.53678 72.159122 -0.6 72 -0.6 
C 71.840878 -0.6 71.688252 -0.53678 71.575736 -0.424264 
C 71.46322 -0.311748 71.4 -0.159122 71.4 0 
C 71.4 0.159122 71.46322 0.311748 71.575736 0.424264 
C 71.688252 0.53678 71.840878 0.6 72 0.6 
z
" style="fill: #000000; stroke: #000000; stroke-width: 1.0; stroke-linecap: butt; stroke-linejoin: miter; stroke-opacity: 0.95"/>
  </pattern>
  <pattern id="hef87ee5697" patternUnits="userSpaceOnUse" x="0" y="0" width="72" height="72">
   <rect x="0" y="0" width="73" height="73" fill="#cc79a7"/>
   <path d="M -36 36 
L 36 108 
M -30 30 
L 42 102 
M -24 24 
L 48 96 
M -18 18 
L 54 90 
M -12 12 
L 60 84 
M -6 6 
L 66 78 
M 0 0 
L 72 72 
M 6 -6 
L 78 66 
M 12 -12 
L 84 60 
M 18 -18 
L 90 54 
M 24 -24 
L 96 48 
M 30 -30 
L 102 42 
M 36 -36 
L 108 36 
" style="fill: #000000; stroke: #000000; stroke-width: 1.0; stroke-linecap: butt; stroke-linejoin: miter; stroke-opacity: 0.95"/>
  </pattern>
  <pattern id="h591e9d2eb5" patternUnits="userSpaceOnUse" x="0" y="0" width="72" height="72">
   <rect x="0" y="0" width="73" height="73" fill="#d55e00"/>
   <path d="M -36 36 
L 36 -36 
M -30 42 
L 42 -30 
M -24 48 
L 48 -24 
M -18 54 
L 54 -18 
M -12 60 
L 60 -12 
M -6 66 
L 66 -6 
M 0 72 
L 72 0 
M 6 78 
L 78 6 
M 12 84 
L 84 12 
M 18 90 
L 90 18 
M 24 96 
L 96 24 
M 30 102 
L 102 30 
M 36 108 
L 108 36 
M -36 36 
L 36 108 
M -30 30 
L 42 102 
M -24 24 
L 48 96 
M -18 18 
L 54 90 
M -12 12 
L 60 84 
M -6 6 
L 66 78 
M 0 0 
L 72 72 
M 6 -6 
L 78 66 
M 12 -12 
L 84 60 
M 18 -18 
L 90 54 
M 24 -24 
L 96 48 
M 30 -30 
L 102 42 
M 36 -36 
L 108 36 
" style="fill: #000000; stroke: #000000; stroke-width: 1.0; stroke-linecap: butt; stroke-linejoin: miter"/>
  </pattern>
 </defs>
</svg>
