<?xml version="1.0" encoding="utf-8" standalone="no"?>
<!DOCTYPE svg PUBLIC "-//W3C//DTD SVG 1.1//EN"
  "http://www.w3.org/Graphics/SVG/1.1/DTD/svg11.dtd">
<svg xmlns:xlink="http://www.w3.org/1999/xlink" width="633.456328pt" height="387.124687pt" viewBox="0 0 633.456328 387.124687" xmlns="http://www.w3.org/2000/svg" version="1.1">
 <metadata>
  <rdf:RDF xmlns:dc="http://purl.org/dc/elements/1.1/" xmlns:cc="http://creativecommons.org/ns#" xmlns:rdf="http://www.w3.org/1999/02/22-rdf-syntax-ns#">
   <cc:Work>
    <dc:type rdf:resource="http://purl.org/dc/dcmitype/StillImage"/>
    <dc:date>2026-03-27T19:40:48.829271</dc:date>
    <dc:format>image/svg+xml</dc:format>
    <dc:creator>
     <cc:Agent>
      <dc:title>Matplotlib v3.8.2, https://matplotlib.org/</dc:title>
     </cc:Agent>
    </dc:creator>
   </cc:Work>
  </rdf:RDF>
 </metadata>
 <defs>
  <style type="text/css">*{stroke-linejoin: round; stroke-linecap: butt}</style>
 </defs>
 <g id="figure_1">
  <g id="patch_1">
   <path d="M 0 387.124687 
L 633.456328 387.124687 
L 633.456328 0 
L 0 0 
z
" style="fill: #ffffff"/>
  </g>
  <g id="axes_1">
   <g id="patch_2">
    <path d="M 59.724063 344.381875 
L 617.724063 344.381875 
L 617.724063 11.741875 
L 59.724063 11.741875 
z
" style="fill: #ffffff"/>
   </g>
   <g id="patch_3">
    <path d="M 96.924063 344.381875 
L 134.124063 344.381875 
L 134.124063 344.381875 
L 96.924063 344.381875 
z
" clip-path="url(#p748901bb74)" style="fill: #440154; stroke: #000000; stroke-linejoin: miter"/>
   </g>
   <g id="patch_4">
    <path d="M 282.924063 344.381875 
L 320.124063 344.381875 
L 320.124063 344.381875 
L 282.924063 344.381875 
z
" clip-path="url(#p748901bb74)" style="fill: #440154; stroke: #000000; stroke-linejoin: miter"/>
   </g>
   <g id="patch_5">
    <path d="M 468.924062 344.381875 
L 506.124062 344.381875 
L 506.124062 11.741875 
L 468.924062 11.741875 
z
" clip-path="url(#p748901bb74)" style="fill: #440154; stroke: #000000; stroke-linejoin: miter"/>
   </g>
   <g id="patch_6">
    <path d="M 134.124063 344.381875 
L 171.324063 344.381875 
L 171.324063 343.383955 
L 134.124063 343.383955 
z
" clip-path="url(#p748901bb74)" style="fill: #21918c; stroke: #000000; stroke-linejoin: miter"/>
   </g>
   <g id="patch_7">
    <path d="M 320.124062 344.381875 
L 357.324062 344.381875 
L 357.324062 12.739795 
L 320.124062 12.739795 
z
" clip-path="url(#p748901bb74)" style="fill: #21918c; stroke: #000000; stroke-linejoin: miter"/>
   </g>
   <g id="patch_8">
    <path d="M 506.124062 344.381875 
L 543.324062 344.381875 
L 543.324062 344.381875 
L 506.124062 344.381875 
z
" clip-path="url(#p748901bb74)" style="fill: #21918c; stroke: #000000; stroke-linejoin: miter"/>
   </g>
   <g id="patch_9">
    <path d="M 171.324063 344.381875 
L 208.524063 344.381875 
L 208.524063 12.739795 
L 171.324063 12.739795 
z
" clip-path="url(#p748901bb74)" style="fill: #fde725; stroke: #000000; stroke-linejoin: miter"/>
   </g>
   <g id="patch_10">
    <path d="M 357.324063 344.381875 
L 394.524062 344.381875 
L 394.524062 343.383955 
L 357.324063 343.383955 
z
" clip-path="url(#p748901bb74)" style="fill: #fde725; stroke: #000000; stroke-linejoin: miter"/>
   </g>
   <g id="patch_11">
    <path d="M 543.324063 344.381875 
L 580.524063 344.381875 
L 580.524063 344.381875 
L 543.324063 344.381875 
z
" clip-path="url(#p748901bb74)" style="fill: #fde725; stroke: #000000; stroke-linejoin: miter"/>
   </g>
   <g id="matplotlib.axis_1">
    <g id="xtick_1">
     <g id="line2d_1">
      <defs>
       <path id="ma122508f22" d="M 0 0 
L 0 3.5 
" style="stroke: #000000; stroke-width: 0.8"/>
      </defs>
      <g>
       <use xlink:href="#ma122508f22" x="59.724063" y="344.381875" style="stroke: #000000; stroke-width: 0.8"/>
      </g>
     </g>
     <g id="text_1">
      <!-- 0.5 -->
      <g transform="translate(51.191797 360.465625) scale(0.13 -0.13)">
       <defs>
        <path id="Cambria-30" d="M 1738 -50 
Q 1063 -50 733 481 
Q 403 1013 403 2094 
Q 403 2669 504 3087 
Q 606 3506 789 3779 
Q 972 4053 1228 4184 
Q 1484 4316 1788 4316 
Q 2472 4316 2806 3787 
Q 3141 3259 3141 2191 
Q 3141 1084 2783 517 
Q 2425 -50 1738 -50 
z
M 1013 2188 
Q 1013 1169 1202 692 
Q 1391 216 1788 216 
Q 2166 216 2348 664 
Q 2531 1113 2531 2053 
Q 2531 2772 2437 3217 
Q 2344 3663 2176 3856 
Q 2009 4050 1772 4050 
Q 1556 4050 1411 3922 
Q 1266 3794 1177 3553 
Q 1088 3313 1050 2967 
Q 1013 2622 1013 2188 
z
" transform="scale(0.015625)"/>
        <path id="Cambria-2e" d="M 972 725 
L 972 0 
L 341 0 
L 341 725 
L 972 725 
z
" transform="scale(0.015625)"/>
        <path id="Cambria-35" d="M 469 172 
L 469 834 
L 847 834 
Q 941 516 1130 366 
Q 1319 216 1619 216 
Q 2034 216 2246 466 
Q 2459 716 2459 1213 
Q 2459 1544 2346 1761 
Q 2234 1978 2043 2075 
Q 1853 2172 1600 2172 
Q 1388 2172 1234 2145 
Q 1081 2119 906 2063 
L 656 2209 
L 656 4266 
L 2378 4266 
Q 2484 4266 2531 4283 
Q 2578 4300 2606 4336 
Q 2634 4372 2672 4472 
L 2916 4472 
L 2869 3747 
L 1072 3747 
L 1072 2375 
Q 1234 2444 1425 2478 
Q 1616 2513 1806 2513 
Q 2178 2513 2465 2361 
Q 2753 2209 2909 1929 
Q 3066 1650 3066 1281 
Q 3066 863 2891 563 
Q 2716 263 2384 106 
Q 2053 -50 1600 -50 
Q 1059 -50 469 172 
z
" transform="scale(0.015625)"/>
       </defs>
       <use xlink:href="#Cambria-30"/>
       <use xlink:href="#Cambria-2e" x="55.371094"/>
       <use xlink:href="#Cambria-35" x="75.878906"/>
      </g>
     </g>
    </g>
    <g id="xtick_2">
     <g id="line2d_2">
      <g>
       <use xlink:href="#ma122508f22" x="152.724063" y="344.381875" style="stroke: #000000; stroke-width: 0.8"/>
      </g>
     </g>
     <g id="text_2">
      <!-- 1.0 -->
      <g transform="translate(144.191797 360.465625) scale(0.13 -0.13)">
       <defs>
        <path id="Cambria-31" d="M 2172 816 
Q 2172 634 2192 542 
Q 2213 450 2264 392 
Q 2316 334 2412 301 
Q 2509 269 2656 251 
Q 2803 234 3044 228 
L 3044 0 
L 734 0 
L 734 228 
Q 1081 244 1229 270 
Q 1378 297 1456 350 
Q 1534 403 1570 500 
Q 1606 597 1606 816 
L 1606 3350 
Q 1606 3475 1562 3533 
Q 1519 3591 1434 3591 
Q 1334 3591 1150 3487 
Q 966 3384 694 3203 
L 556 3444 
L 2019 4316 
L 2191 4316 
Q 2172 4016 2172 3484 
L 2172 816 
z
" transform="scale(0.015625)"/>
       </defs>
       <use xlink:href="#Cambria-31"/>
       <use xlink:href="#Cambria-2e" x="55.371094"/>
       <use xlink:href="#Cambria-30" x="75.878906"/>
      </g>
     </g>
    </g>
    <g id="xtick_3">
     <g id="line2d_3">
      <g>
       <use xlink:href="#ma122508f22" x="245.724063" y="344.381875" style="stroke: #000000; stroke-width: 0.8"/>
      </g>
     </g>
     <g id="text_3">
      <!-- 1.5 -->
      <g transform="translate(237.191797 360.465625) scale(0.13 -0.13)">
       <use xlink:href="#Cambria-31"/>
       <use xlink:href="#Cambria-2e" x="55.371094"/>
       <use xlink:href="#Cambria-35" x="75.878906"/>
      </g>
     </g>
    </g>
    <g id="xtick_4">
     <g id="line2d_4">
      <g>
       <use xlink:href="#ma122508f22" x="338.724063" y="344.381875" style="stroke: #000000; stroke-width: 0.8"/>
      </g>
     </g>
     <g id="text_4">
      <!-- 2.0 -->
      <g transform="translate(330.191797 360.465625) scale(0.13 -0.13)">
       <defs>
        <path id="Cambria-32" d="M 2194 500 
Q 2347 500 2440 519 
Q 2534 538 2590 581 
Q 2647 625 2680 695 
Q 2713 766 2763 913 
L 3028 913 
L 2975 0 
L 403 0 
L 403 150 
Q 538 478 766 822 
Q 994 1166 1413 1631 
Q 1775 2031 1934 2238 
Q 2109 2463 2195 2627 
Q 2281 2791 2318 2936 
Q 2356 3081 2356 3228 
Q 2356 3463 2281 3642 
Q 2206 3822 2051 3925 
Q 1897 4028 1663 4028 
Q 1078 4028 875 3378 
L 497 3378 
L 497 3978 
Q 875 4156 1204 4236 
Q 1534 4316 1797 4316 
Q 2378 4316 2675 4061 
Q 2972 3806 2972 3322 
Q 2972 3156 2939 3017 
Q 2906 2878 2836 2742 
Q 2766 2606 2647 2450 
Q 2528 2294 2384 2133 
Q 2241 1972 1888 1597 
Q 1294 969 1016 500 
L 2194 500 
z
" transform="scale(0.015625)"/>
       </defs>
       <use xlink:href="#Cambria-32"/>
       <use xlink:href="#Cambria-2e" x="55.371094"/>
       <use xlink:href="#Cambria-30" x="75.878906"/>
      </g>
     </g>
    </g>
    <g id="xtick_5">
     <g id="line2d_5">
      <g>
       <use xlink:href="#ma122508f22" x="431.724063" y="344.381875" style="stroke: #000000; stroke-width: 0.8"/>
      </g>
     </g>
     <g id="text_5">
      <!-- 2.5 -->
      <g transform="translate(423.191797 360.465625) scale(0.13 -0.13)">
       <use xlink:href="#Cambria-32"/>
       <use xlink:href="#Cambria-2e" x="55.371094"/>
       <use xlink:href="#Cambria-35" x="75.878906"/>
      </g>
     </g>
    </g>
    <g id="xtick_6">
     <g id="line2d_6">
      <g>
       <use xlink:href="#ma122508f22" x="524.724063" y="344.381875" style="stroke: #000000; stroke-width: 0.8"/>
      </g>
     </g>
     <g id="text_6">
      <!-- 3.0 -->
      <g transform="translate(516.191797 360.465625) scale(0.13 -0.13)">
       <defs>
        <path id="Cambria-33" d="M 497 3381 
L 497 3975 
Q 859 4147 1175 4231 
Q 1491 4316 1784 4316 
Q 2138 4316 2403 4206 
Q 2669 4097 2809 3892 
Q 2950 3688 2950 3403 
Q 2950 3138 2844 2936 
Q 2738 2734 2545 2584 
Q 2353 2434 2047 2291 
L 2047 2263 
Q 2238 2228 2414 2145 
Q 2591 2063 2728 1931 
Q 2866 1800 2948 1617 
Q 3031 1434 3031 1200 
Q 3031 838 2873 556 
Q 2716 275 2391 112 
Q 2066 -50 1600 -50 
Q 1331 -50 1020 11 
Q 709 72 450 172 
L 450 834 
L 825 834 
Q 934 509 1114 362 
Q 1294 216 1603 216 
Q 2009 216 2217 437 
Q 2425 659 2425 1094 
Q 2425 1550 2150 1790 
Q 1875 2031 1344 2031 
L 1063 2031 
L 1063 2306 
Q 1484 2331 1773 2468 
Q 2063 2606 2203 2822 
Q 2344 3038 2344 3306 
Q 2344 3653 2159 3840 
Q 1975 4028 1622 4028 
Q 1328 4028 1143 3868 
Q 959 3709 872 3381 
L 497 3381 
z
" transform="scale(0.015625)"/>
       </defs>
       <use xlink:href="#Cambria-33"/>
       <use xlink:href="#Cambria-2e" x="55.371094"/>
       <use xlink:href="#Cambria-30" x="75.878906"/>
      </g>
     </g>
    </g>
    <g id="xtick_7">
     <g id="line2d_7">
      <g>
       <use xlink:href="#ma122508f22" x="617.724063" y="344.381875" style="stroke: #000000; stroke-width: 0.8"/>
      </g>
     </g>
     <g id="text_7">
      <!-- 3.5 -->
      <g transform="translate(609.191797 360.465625) scale(0.13 -0.13)">
       <use xlink:href="#Cambria-33"/>
       <use xlink:href="#Cambria-2e" x="55.371094"/>
       <use xlink:href="#Cambria-35" x="75.878906"/>
      </g>
     </g>
    </g>
    <g id="text_8">
     <!-- Rank -->
     <g transform="translate(321.97875 376.984688) scale(0.14 -0.14)">
      <defs>
       <path id="Cambria-Bold-52" d="M 1941 0 
L 300 0 
L 300 206 
Q 416 238 483 273 
Q 550 309 583 373 
Q 616 438 625 536 
Q 634 634 634 784 
L 634 3478 
Q 634 3625 626 3725 
Q 619 3825 586 3887 
Q 553 3950 486 3989 
Q 419 4028 300 4059 
L 300 4266 
L 2122 4266 
Q 2491 4266 2748 4214 
Q 3006 4163 3200 4056 
Q 3363 3969 3475 3836 
Q 3588 3703 3648 3526 
Q 3709 3350 3709 3116 
Q 3709 2809 3601 2590 
Q 3494 2372 3311 2226 
Q 3128 2081 2822 1953 
L 2822 1922 
Q 3053 1822 3204 1655 
Q 3356 1488 3478 1231 
L 3675 806 
Q 3806 522 3936 380 
Q 4066 238 4244 206 
L 4244 0 
L 3041 0 
Q 2859 250 2631 744 
L 2388 1278 
Q 2278 1516 2200 1616 
Q 2122 1716 2039 1753 
Q 1956 1791 1784 1791 
L 1603 1791 
L 1603 784 
Q 1603 550 1625 456 
Q 1647 363 1709 306 
Q 1772 250 1941 206 
L 1941 0 
z
M 1603 3894 
L 1603 2156 
L 1913 2156 
Q 2163 2156 2325 2223 
Q 2488 2291 2583 2411 
Q 2678 2531 2714 2693 
Q 2750 2856 2750 3050 
Q 2750 3475 2550 3687 
Q 2350 3900 1956 3900 
Q 1688 3900 1603 3894 
z
" transform="scale(0.015625)"/>
       <path id="Cambria-Bold-61" d="M 2116 409 
L 2069 425 
Q 1813 175 1570 62 
Q 1328 -50 1056 -50 
Q 788 -50 589 48 
Q 391 147 289 322 
Q 188 497 188 725 
Q 188 1184 639 1448 
Q 1091 1713 2009 1781 
L 2009 2078 
Q 2009 2369 1943 2526 
Q 1878 2684 1775 2748 
Q 1672 2813 1528 2813 
Q 1384 2813 1279 2763 
Q 1175 2713 1090 2573 
Q 1006 2434 966 2188 
L 375 2188 
L 375 2756 
Q 663 2884 853 2953 
Q 1044 3022 1230 3067 
Q 1416 3113 1562 3131 
Q 1709 3150 1856 3150 
Q 2234 3150 2461 3050 
Q 2688 2950 2800 2725 
Q 2913 2500 2913 2103 
L 2913 884 
Q 2913 678 2922 565 
Q 2931 453 2951 398 
Q 2972 344 3003 311 
Q 3034 278 3079 258 
Q 3125 238 3250 206 
L 3250 0 
L 2088 0 
L 2116 409 
z
M 2013 1475 
Q 1528 1463 1295 1294 
Q 1063 1125 1063 800 
Q 1063 606 1169 504 
Q 1275 403 1463 403 
Q 1606 403 1734 479 
Q 1863 556 1938 684 
Q 2013 813 2013 956 
L 2013 1475 
z
" transform="scale(0.015625)"/>
       <path id="Cambria-Bold-6e" d="M 3666 0 
L 2150 0 
L 2150 206 
Q 2294 241 2350 308 
Q 2406 375 2426 489 
Q 2447 603 2447 900 
L 2447 1734 
Q 2447 1956 2437 2098 
Q 2428 2241 2408 2331 
Q 2388 2422 2352 2483 
Q 2316 2544 2272 2583 
Q 2228 2622 2172 2640 
Q 2116 2659 2028 2659 
Q 1909 2659 1781 2586 
Q 1653 2513 1565 2383 
Q 1478 2253 1478 2106 
L 1478 903 
Q 1478 606 1497 490 
Q 1516 375 1573 308 
Q 1631 241 1778 206 
L 1778 0 
L 269 0 
L 269 206 
Q 419 247 476 312 
Q 534 378 554 490 
Q 575 603 575 900 
L 575 2184 
Q 575 2416 567 2527 
Q 559 2638 529 2705 
Q 500 2772 439 2814 
Q 378 2856 228 2888 
L 228 3100 
L 1084 3125 
L 1478 3125 
L 1431 2675 
L 1469 2666 
Q 1663 2838 1809 2936 
Q 1956 3034 2117 3092 
Q 2278 3150 2456 3150 
Q 2713 3150 2881 3076 
Q 3050 3003 3154 2862 
Q 3259 2722 3304 2519 
Q 3350 2316 3350 2047 
L 3350 903 
Q 3350 766 3354 645 
Q 3359 525 3378 453 
Q 3397 381 3430 336 
Q 3463 291 3522 259 
Q 3581 228 3666 206 
L 3666 0 
z
" transform="scale(0.015625)"/>
       <path id="Cambria-Bold-6b" d="M 2478 1972 
L 3284 778 
Q 3463 513 3547 413 
Q 3631 313 3693 270 
Q 3756 228 3850 206 
L 3850 0 
L 2322 0 
L 2322 206 
Q 2463 234 2463 353 
Q 2463 434 2408 545 
Q 2353 656 2194 891 
L 1953 1253 
Q 1872 1375 1822 1429 
Q 1772 1484 1723 1512 
Q 1675 1541 1588 1541 
L 1438 1541 
L 1438 903 
Q 1438 606 1456 493 
Q 1475 381 1533 314 
Q 1591 247 1750 206 
L 1750 0 
L 219 0 
L 219 206 
Q 313 228 366 258 
Q 419 288 448 327 
Q 478 366 500 427 
Q 522 488 528 595 
Q 534 703 534 903 
L 534 3341 
Q 534 3609 529 3736 
Q 525 3863 509 3948 
Q 494 4034 462 4086 
Q 431 4138 372 4169 
Q 313 4200 181 4225 
L 181 4431 
L 1050 4475 
L 1438 4475 
L 1438 1841 
L 1541 1841 
Q 1650 1841 1712 1862 
Q 1775 1884 1842 1932 
Q 1909 1981 2050 2107 
Q 2191 2234 2262 2332 
Q 2334 2431 2359 2504 
Q 2384 2578 2384 2647 
Q 2384 2863 2113 2900 
L 2113 3100 
L 3675 3100 
L 3675 2900 
Q 3553 2881 3403 2787 
Q 3253 2694 2931 2394 
L 2478 1972 
z
" transform="scale(0.015625)"/>
      </defs>
      <use xlink:href="#Cambria-Bold-52"/>
      <use xlink:href="#Cambria-Bold-61" x="66.162109"/>
      <use xlink:href="#Cambria-Bold-6e" x="119.677734"/>
      <use xlink:href="#Cambria-Bold-6b" x="180.029297"/>
     </g>
    </g>
   </g>
   <g id="matplotlib.axis_2">
    <g id="ytick_1">
     <g id="line2d_8">
      <defs>
       <path id="m8d220974fc" d="M 0 0 
L -3.5 0 
" style="stroke: #000000; stroke-width: 0.8"/>
      </defs>
      <g>
       <use xlink:href="#m8d220974fc" x="59.724063" y="344.381875" style="stroke: #000000; stroke-width: 0.8"/>
      </g>
     </g>
     <g id="text_9">
      <!-- 0 -->
      <g transform="translate(45.525313 348.92375) scale(0.13 -0.13)">
       <use xlink:href="#Cambria-30"/>
      </g>
     </g>
    </g>
    <g id="ytick_2">
     <g id="line2d_9">
      <g>
       <use xlink:href="#m8d220974fc" x="59.724063" y="277.853875" style="stroke: #000000; stroke-width: 0.8"/>
      </g>
     </g>
     <g id="text_10">
      <!-- 200 -->
      <g transform="translate(31.127813 282.39575) scale(0.13 -0.13)">
       <use xlink:href="#Cambria-32"/>
       <use xlink:href="#Cambria-30" x="55.371094"/>
       <use xlink:href="#Cambria-30" x="110.742188"/>
      </g>
     </g>
    </g>
    <g id="ytick_3">
     <g id="line2d_10">
      <g>
       <use xlink:href="#m8d220974fc" x="59.724063" y="211.325875" style="stroke: #000000; stroke-width: 0.8"/>
      </g>
     </g>
     <g id="text_11">
      <!-- 400 -->
      <g transform="translate(31.127813 215.86775) scale(0.13 -0.13)">
       <defs>
        <path id="Cambria-34" d="M 1613 153 
Q 1806 203 1872 264 
Q 1938 325 1958 437 
Q 1978 550 1978 781 
L 1978 1294 
L 241 1294 
L 241 1528 
L 2069 4288 
L 2516 4288 
L 2516 1597 
L 2581 1597 
Q 2763 1597 2841 1623 
Q 2919 1650 2970 1717 
Q 3022 1784 3066 1938 
L 3303 1938 
L 3266 1294 
L 2516 1294 
L 2516 781 
Q 2516 572 2530 475 
Q 2544 378 2576 322 
Q 2609 266 2673 228 
Q 2738 191 2881 153 
L 2881 0 
L 1613 0 
L 1613 153 
z
M 756 1597 
L 1978 1597 
L 1978 2375 
Q 1978 2669 1987 3033 
Q 1997 3397 2009 3581 
L 1978 3581 
L 756 1641 
L 756 1597 
z
" transform="scale(0.015625)"/>
       </defs>
       <use xlink:href="#Cambria-34"/>
       <use xlink:href="#Cambria-30" x="55.371094"/>
       <use xlink:href="#Cambria-30" x="110.742188"/>
      </g>
     </g>
    </g>
    <g id="ytick_4">
     <g id="line2d_11">
      <g>
       <use xlink:href="#m8d220974fc" x="59.724063" y="144.797875" style="stroke: #000000; stroke-width: 0.8"/>
      </g>
     </g>
     <g id="text_12">
      <!-- 600 -->
      <g transform="translate(31.127813 149.33975) scale(0.13 -0.13)">
       <defs>
        <path id="Cambria-36" d="M 2847 4144 
L 2847 3991 
Q 2366 3991 1994 3784 
Q 1622 3578 1376 3178 
Q 1131 2778 1031 2228 
L 1063 2216 
Q 1325 2403 1579 2490 
Q 1834 2578 2131 2578 
Q 2484 2578 2732 2423 
Q 2981 2269 3106 1989 
Q 3231 1709 3231 1334 
Q 3231 928 3075 617 
Q 2919 306 2592 128 
Q 2266 -50 1788 -50 
Q 1103 -50 754 375 
Q 406 800 406 1628 
Q 406 2184 581 2668 
Q 756 3153 1078 3514 
Q 1400 3875 1825 4083 
Q 2250 4291 2719 4316 
L 2847 4144 
z
M 1916 2250 
Q 1763 2250 1620 2215 
Q 1478 2181 1353 2115 
Q 1228 2050 1109 1950 
Q 1072 1916 1053 1878 
Q 1022 1819 1012 1731 
Q 1003 1644 1003 1438 
Q 1003 841 1203 528 
Q 1403 216 1809 216 
Q 2044 216 2203 297 
Q 2363 378 2461 520 
Q 2559 663 2601 855 
Q 2644 1047 2644 1272 
Q 2644 1734 2453 1992 
Q 2263 2250 1916 2250 
z
" transform="scale(0.015625)"/>
       </defs>
       <use xlink:href="#Cambria-36"/>
       <use xlink:href="#Cambria-30" x="55.371094"/>
       <use xlink:href="#Cambria-30" x="110.742188"/>
      </g>
     </g>
    </g>
    <g id="ytick_5">
     <g id="line2d_12">
      <g>
       <use xlink:href="#m8d220974fc" x="59.724063" y="78.269875" style="stroke: #000000; stroke-width: 0.8"/>
      </g>
     </g>
     <g id="text_13">
      <!-- 800 -->
      <g transform="translate(31.127813 82.81175) scale(0.13 -0.13)">
       <defs>
        <path id="Cambria-38" d="M 2475 2253 
L 2481 2213 
Q 2834 2075 3015 1811 
Q 3197 1547 3197 1175 
Q 3197 809 3022 531 
Q 2847 253 2514 101 
Q 2181 -50 1738 -50 
Q 1322 -50 1008 89 
Q 694 228 520 495 
Q 347 763 347 1125 
Q 347 1397 440 1597 
Q 534 1797 686 1926 
Q 838 2056 1069 2163 
L 1063 2203 
Q 391 2494 391 3200 
Q 391 3522 567 3775 
Q 744 4028 1070 4172 
Q 1397 4316 1794 4316 
Q 2244 4316 2550 4189 
Q 2856 4063 3011 3823 
Q 3166 3584 3166 3250 
Q 3166 2906 2997 2657 
Q 2828 2409 2475 2253 
z
M 978 3228 
Q 978 3044 1022 2881 
Q 1066 2719 1162 2600 
Q 1259 2481 1414 2411 
Q 1569 2341 1794 2341 
Q 2053 2341 2229 2442 
Q 2406 2544 2492 2739 
Q 2578 2934 2578 3191 
Q 2578 3472 2476 3667 
Q 2375 3863 2197 3956 
Q 2019 4050 1788 4050 
Q 1394 4050 1186 3836 
Q 978 3622 978 3228 
z
M 944 1178 
Q 944 975 991 798 
Q 1038 622 1139 494 
Q 1241 366 1400 291 
Q 1559 216 1788 216 
Q 2044 216 2226 320 
Q 2409 425 2504 631 
Q 2600 838 2600 1119 
Q 2600 1419 2497 1636 
Q 2394 1853 2206 1967 
Q 2019 2081 1772 2081 
Q 1541 2081 1383 2009 
Q 1225 1938 1126 1816 
Q 1028 1694 986 1530 
Q 944 1366 944 1178 
z
" transform="scale(0.015625)"/>
       </defs>
       <use xlink:href="#Cambria-38"/>
       <use xlink:href="#Cambria-30" x="55.371094"/>
       <use xlink:href="#Cambria-30" x="110.742188"/>
      </g>
     </g>
    </g>
    <g id="ytick_6">
     <g id="line2d_13">
      <g>
       <use xlink:href="#m8d220974fc" x="59.724063" y="11.741875" style="stroke: #000000; stroke-width: 0.8"/>
      </g>
     </g>
     <g id="text_14">
      <!-- 1000 -->
      <g transform="translate(23.929063 16.28375) scale(0.13 -0.13)">
       <use xlink:href="#Cambria-31"/>
       <use xlink:href="#Cambria-30" x="55.371094"/>
       <use xlink:href="#Cambria-30" x="110.742188"/>
       <use xlink:href="#Cambria-30" x="166.113281"/>
      </g>
     </g>
    </g>
    <g id="text_15">
     <!-- Frequency -->
     <g transform="translate(16.940938 211.982344) rotate(-90) scale(0.14 -0.14)">
      <defs>
       <path id="Cambria-Bold-46" d="M 1603 784 
Q 1603 619 1612 533 
Q 1622 447 1647 394 
Q 1672 341 1708 308 
Q 1744 275 1808 248 
Q 1872 222 1981 206 
L 1981 0 
L 300 0 
L 300 206 
Q 416 234 483 271 
Q 550 309 583 373 
Q 616 438 625 538 
Q 634 638 634 788 
L 634 3478 
Q 634 3625 626 3725 
Q 619 3825 586 3887 
Q 553 3950 486 3989 
Q 419 4028 300 4059 
L 300 4266 
L 3322 4266 
L 3322 3272 
L 2894 3272 
Q 2791 3569 2719 3673 
Q 2647 3778 2547 3839 
Q 2447 3900 2206 3900 
L 1603 3900 
L 1603 2309 
L 2003 2309 
Q 2150 2309 2229 2354 
Q 2309 2400 2361 2506 
Q 2413 2613 2447 2806 
L 2800 2806 
L 2800 1444 
L 2447 1444 
Q 2409 1641 2356 1748 
Q 2303 1856 2225 1900 
Q 2147 1944 2003 1944 
L 1603 1944 
L 1603 784 
z
" transform="scale(0.015625)"/>
       <path id="Cambria-Bold-72" d="M 1434 2653 
L 1475 2644 
Q 1703 2913 1943 3031 
Q 2184 3150 2466 3150 
Q 2656 3150 2866 3109 
L 2866 2247 
L 2300 2247 
Q 2247 2428 2161 2525 
Q 2075 2622 1931 2622 
Q 1863 2622 1780 2580 
Q 1697 2538 1626 2461 
Q 1556 2384 1526 2304 
Q 1497 2225 1487 2144 
Q 1478 2063 1478 1900 
L 1478 903 
Q 1478 606 1500 487 
Q 1522 369 1587 301 
Q 1653 234 1809 206 
L 1809 0 
L 269 0 
L 269 206 
Q 419 247 476 312 
Q 534 378 554 490 
Q 575 603 575 900 
L 575 2184 
Q 575 2416 567 2527 
Q 559 2638 529 2705 
Q 500 2772 439 2814 
Q 378 2856 228 2888 
L 228 3100 
L 1084 3125 
L 1478 3125 
L 1434 2653 
z
" transform="scale(0.015625)"/>
       <path id="Cambria-Bold-65" d="M 3097 569 
Q 2778 231 2465 90 
Q 2153 -50 1747 -50 
Q 1019 -50 651 348 
Q 284 747 284 1531 
Q 284 2038 473 2405 
Q 663 2772 1009 2961 
Q 1356 3150 1816 3150 
Q 2100 3150 2314 3084 
Q 2528 3019 2681 2901 
Q 2834 2784 2934 2619 
Q 3053 2422 3113 2169 
Q 3175 1909 3178 1541 
L 1197 1541 
Q 1200 975 1398 708 
Q 1597 441 2003 441 
Q 2241 441 2431 530 
Q 2622 619 2844 844 
L 3097 569 
z
M 2253 1878 
Q 2241 2356 2128 2590 
Q 2016 2825 1766 2825 
Q 1525 2825 1383 2581 
Q 1241 2338 1213 1878 
L 2253 1878 
z
" transform="scale(0.015625)"/>
       <path id="Cambria-Bold-71" d="M 2384 419 
Q 2213 256 2072 161 
Q 1931 66 1765 8 
Q 1600 -50 1413 -50 
Q 859 -50 579 342 
Q 300 734 300 1516 
Q 300 2044 472 2409 
Q 644 2775 980 2962 
Q 1316 3150 1784 3150 
Q 1934 3150 2078 3131 
Q 2222 3113 2347 3078 
Q 2472 3044 2656 2972 
L 2888 3150 
L 3288 3094 
L 3288 -559 
Q 3288 -797 3313 -892 
Q 3338 -988 3395 -1041 
Q 3453 -1094 3600 -1138 
L 3600 -1344 
L 2044 -1344 
L 2044 -1138 
Q 2203 -1100 2267 -1047 
Q 2331 -994 2357 -898 
Q 2384 -803 2384 -559 
L 2384 419 
z
M 2384 2075 
Q 2384 2456 2256 2640 
Q 2128 2825 1863 2825 
Q 1669 2825 1530 2686 
Q 1391 2547 1320 2284 
Q 1250 2022 1250 1663 
Q 1250 1047 1384 745 
Q 1519 444 1803 444 
Q 1947 444 2081 512 
Q 2216 581 2300 718 
Q 2384 856 2384 1041 
L 2384 2075 
z
" transform="scale(0.015625)"/>
       <path id="Cambria-Bold-75" d="M 200 3100 
L 1416 3100 
L 1416 1366 
Q 1416 1066 1434 897 
Q 1453 728 1506 629 
Q 1559 531 1636 486 
Q 1713 441 1831 441 
Q 1947 441 2075 512 
Q 2203 584 2292 714 
Q 2381 844 2381 991 
L 2381 2197 
Q 2381 2425 2372 2536 
Q 2363 2647 2336 2709 
Q 2309 2772 2253 2814 
Q 2197 2856 2069 2894 
L 2069 3100 
L 3288 3100 
L 3288 913 
Q 3288 675 3295 565 
Q 3303 456 3331 390 
Q 3359 325 3421 283 
Q 3484 241 3631 209 
L 3631 0 
L 2781 -28 
L 2403 -28 
L 2431 422 
L 2394 431 
Q 2103 163 1875 56 
Q 1647 -50 1416 -50 
Q 1084 -50 886 73 
Q 688 197 600 436 
Q 513 675 513 1053 
L 513 2197 
Q 513 2372 508 2465 
Q 503 2559 493 2611 
Q 484 2663 467 2705 
Q 450 2747 420 2781 
Q 391 2816 339 2844 
Q 288 2872 200 2894 
L 200 3100 
z
" transform="scale(0.015625)"/>
       <path id="Cambria-Bold-63" d="M 2650 800 
L 2891 509 
Q 2584 209 2298 79 
Q 2013 -50 1675 -50 
Q 997 -50 640 348 
Q 284 747 284 1506 
Q 284 2019 479 2392 
Q 675 2766 1040 2958 
Q 1406 3150 1878 3150 
Q 2131 3150 2382 3114 
Q 2634 3078 2841 3016 
L 2841 2263 
L 2222 2263 
Q 2175 2556 2081 2690 
Q 1988 2825 1813 2825 
Q 1697 2825 1592 2767 
Q 1488 2709 1408 2567 
Q 1328 2425 1281 2186 
Q 1234 1947 1234 1581 
Q 1234 1216 1303 964 
Q 1372 713 1525 577 
Q 1678 441 1928 441 
Q 2109 441 2270 519 
Q 2431 597 2650 800 
z
" transform="scale(0.015625)"/>
       <path id="Cambria-Bold-79" d="M 1844 -141 
Q 1641 -594 1461 -851 
Q 1281 -1109 1073 -1237 
Q 866 -1366 556 -1366 
Q 322 -1366 119 -1306 
L 119 -591 
L 469 -591 
Q 509 -738 570 -792 
Q 631 -847 741 -847 
Q 859 -847 954 -781 
Q 1050 -716 1170 -536 
Q 1291 -356 1466 0 
L 1288 0 
L 472 2347 
Q 384 2594 332 2686 
Q 281 2778 217 2826 
Q 153 2875 59 2894 
L 59 3100 
L 1619 3100 
L 1619 2894 
Q 1472 2866 1403 2809 
Q 1334 2753 1334 2641 
Q 1334 2491 1416 2250 
L 1866 884 
L 2363 2081 
Q 2425 2231 2456 2345 
Q 2488 2459 2488 2569 
Q 2488 2700 2413 2786 
Q 2338 2872 2200 2894 
L 2200 3100 
L 3416 3100 
L 3416 2891 
Q 3325 2863 3270 2822 
Q 3216 2781 3167 2715 
Q 3119 2650 3050 2520 
Q 2981 2391 2863 2128 
L 1844 -141 
z
" transform="scale(0.015625)"/>
      </defs>
      <use xlink:href="#Cambria-Bold-46"/>
      <use xlink:href="#Cambria-Bold-72" x="53.126953"/>
      <use xlink:href="#Cambria-Bold-65" x="99.269531"/>
      <use xlink:href="#Cambria-Bold-71" x="152.345703"/>
      <use xlink:href="#Cambria-Bold-75" x="211.476562"/>
      <use xlink:href="#Cambria-Bold-65" x="271.193359"/>
      <use xlink:href="#Cambria-Bold-6e" x="324.269531"/>
      <use xlink:href="#Cambria-Bold-63" x="384.621094"/>
      <use xlink:href="#Cambria-Bold-79" x="431.496094"/>
     </g>
    </g>
   </g>
   <g id="patch_12">
    <path d="M 59.724063 344.381875 
L 59.724063 11.741875 
" style="fill: none; stroke: #000000; stroke-width: 0.8; stroke-linejoin: miter; stroke-linecap: square"/>
   </g>
   <g id="patch_13">
    <path d="M 617.724063 344.381875 
L 617.724063 11.741875 
" style="fill: none; stroke: #000000; stroke-width: 0.8; stroke-linejoin: miter; stroke-linecap: square"/>
   </g>
   <g id="patch_14">
    <path d="M 59.724063 344.381875 
L 617.724063 344.381875 
" style="fill: none; stroke: #000000; stroke-width: 0.8; stroke-linejoin: miter; stroke-linecap: square"/>
   </g>
   <g id="patch_15">
    <path d="M 59.724063 11.741875 
L 617.724063 11.741875 
" style="fill: none; stroke: #000000; stroke-width: 0.8; stroke-linejoin: miter; stroke-linecap: square"/>
   </g>
   <g id="legend_1">
    <g id="patch_16">
     <path d="M 506.761563 90.824375 
L 609.324063 90.824375 
Q 611.724063 90.824375 611.724063 88.424375 
L 611.724063 20.141875 
Q 611.724063 17.741875 609.324063 17.741875 
L 506.761563 17.741875 
Q 504.361563 17.741875 504.361563 20.141875 
L 504.361563 88.424375 
Q 504.361563 90.824375 506.761563 90.824375 
z
" style="fill: #ffffff; opacity: 0.8; stroke: #cccccc; stroke-linejoin: miter"/>
    </g>
    <g id="text_16">
     <!-- Alternatives -->
     <g transform="translate(521.512656 32.324375) scale(0.14 -0.14)">
      <defs>
       <path id="Cambria-41" d="M 2488 0 
L 2488 153 
Q 2644 184 2720 221 
Q 2797 259 2834 326 
Q 2872 394 2872 506 
Q 2872 613 2847 736 
Q 2822 859 2775 1013 
L 2659 1416 
L 1203 1416 
L 1097 1109 
Q 1016 878 991 759 
Q 966 641 966 544 
Q 966 356 1061 268 
Q 1156 181 1353 153 
L 1353 0 
L 19 0 
L 19 153 
Q 194 181 323 356 
Q 453 531 575 856 
L 1878 4316 
L 2372 4316 
L 3434 831 
Q 3509 588 3567 459 
Q 3625 331 3706 259 
Q 3788 188 3928 153 
L 3928 0 
L 2488 0 
z
M 1288 1688 
L 2594 1688 
L 2000 3703 
L 1288 1688 
z
" transform="scale(0.015625)"/>
       <path id="Cambria-6c" d="M 1138 781 
Q 1138 513 1163 408 
Q 1188 303 1258 248 
Q 1328 194 1488 153 
L 1488 0 
L 247 0 
L 247 153 
Q 403 194 464 237 
Q 525 281 551 342 
Q 578 403 589 508 
Q 600 613 600 781 
L 600 3397 
Q 600 3697 595 3815 
Q 591 3934 570 4017 
Q 550 4100 514 4147 
Q 478 4194 417 4222 
Q 356 4250 197 4278 
L 197 4441 
L 950 4472 
L 1138 4472 
L 1138 781 
z
" transform="scale(0.015625)"/>
       <path id="Cambria-74" d="M 116 2831 
Q 272 2856 369 2918 
Q 466 2981 520 3079 
Q 575 3178 606 3326 
Q 638 3475 672 3759 
L 1116 3759 
L 1116 2988 
L 2125 2988 
L 2125 2672 
L 1116 2672 
L 1116 1281 
Q 1116 978 1141 798 
Q 1166 619 1234 517 
Q 1303 416 1390 372 
Q 1478 328 1616 328 
Q 1741 328 1850 379 
Q 1959 431 2066 528 
L 2206 359 
Q 1984 144 1786 47 
Q 1588 -50 1375 -50 
Q 972 -50 775 189 
Q 578 428 578 938 
L 578 2672 
L 116 2672 
L 116 2831 
z
" transform="scale(0.015625)"/>
       <path id="Cambria-65" d="M 2800 531 
Q 2600 322 2433 203 
Q 2266 84 2066 17 
Q 1866 -50 1625 -50 
Q 981 -50 653 336 
Q 325 722 325 1475 
Q 325 1941 492 2297 
Q 659 2653 968 2847 
Q 1278 3041 1681 3041 
Q 1997 3041 2219 2941 
Q 2441 2841 2573 2667 
Q 2706 2494 2779 2230 
Q 2853 1966 2863 1541 
L 894 1541 
L 894 1484 
Q 894 1116 976 864 
Q 1059 613 1248 470 
Q 1438 328 1741 328 
Q 1997 328 2201 423 
Q 2406 519 2609 734 
L 2800 531 
z
M 2275 1800 
Q 2256 2138 2190 2352 
Q 2125 2566 1994 2680 
Q 1863 2794 1650 2794 
Q 1328 2794 1136 2536 
Q 944 2278 909 1800 
L 2275 1800 
z
" transform="scale(0.015625)"/>
       <path id="Cambria-72" d="M 1147 2469 
L 1191 2459 
Q 1363 2669 1509 2789 
Q 1656 2909 1826 2975 
Q 1997 3041 2213 3041 
Q 2394 3041 2541 3022 
L 2541 2303 
L 2188 2303 
Q 2113 2472 2028 2548 
Q 1944 2625 1797 2625 
Q 1684 2625 1573 2559 
Q 1463 2494 1359 2369 
Q 1256 2244 1217 2134 
Q 1178 2025 1178 1875 
L 1178 781 
Q 1178 497 1212 389 
Q 1247 281 1326 231 
Q 1406 181 1566 153 
L 1566 0 
L 306 0 
L 306 153 
Q 425 191 476 219 
Q 528 247 565 297 
Q 603 347 622 450 
Q 641 553 641 772 
L 641 2134 
Q 641 2334 634 2456 
Q 628 2578 590 2651 
Q 553 2725 476 2761 
Q 400 2797 259 2822 
L 259 2984 
L 991 3016 
L 1181 3016 
L 1147 2469 
z
" transform="scale(0.015625)"/>
       <path id="Cambria-6e" d="M 3347 0 
L 2116 0 
L 2116 153 
Q 2238 191 2291 219 
Q 2344 247 2380 297 
Q 2416 347 2436 451 
Q 2456 556 2456 769 
L 2456 1588 
Q 2456 1806 2443 1984 
Q 2431 2163 2401 2277 
Q 2372 2391 2330 2455 
Q 2288 2519 2230 2564 
Q 2172 2609 2097 2636 
Q 2022 2663 1900 2663 
Q 1778 2663 1668 2614 
Q 1559 2566 1428 2447 
Q 1297 2328 1237 2212 
Q 1178 2097 1178 1947 
L 1178 781 
Q 1178 513 1203 408 
Q 1228 303 1298 248 
Q 1369 194 1528 153 
L 1528 0 
L 303 0 
L 303 153 
Q 425 191 476 219 
Q 528 247 564 297 
Q 600 347 620 450 
Q 641 553 641 772 
L 641 2134 
Q 641 2334 634 2456 
Q 628 2578 590 2651 
Q 553 2725 476 2761 
Q 400 2797 259 2822 
L 259 2988 
L 991 3016 
L 1181 3016 
L 1147 2506 
L 1191 2494 
Q 1422 2728 1564 2828 
Q 1706 2928 1851 2983 
Q 1997 3038 2159 3038 
Q 2328 3038 2461 2998 
Q 2594 2959 2695 2878 
Q 2797 2797 2862 2676 
Q 2928 2556 2961 2387 
Q 2994 2219 2994 1959 
L 2994 781 
Q 2994 566 3006 469 
Q 3019 372 3050 319 
Q 3081 266 3140 230 
Q 3200 194 3347 153 
L 3347 0 
z
" transform="scale(0.015625)"/>
       <path id="Cambria-61" d="M 2109 447 
L 2063 459 
Q 1791 181 1552 65 
Q 1313 -50 1044 -50 
Q 806 -50 625 42 
Q 444 134 347 301 
Q 250 469 250 688 
Q 250 1144 701 1392 
Q 1153 1641 2056 1681 
L 2056 1884 
Q 2056 2209 1993 2396 
Q 1931 2584 1797 2671 
Q 1663 2759 1438 2759 
Q 1194 2759 1045 2631 
Q 897 2503 822 2247 
L 413 2247 
L 413 2653 
Q 713 2809 913 2882 
Q 1113 2956 1313 2998 
Q 1513 3041 1719 3041 
Q 2028 3041 2215 2942 
Q 2403 2844 2497 2641 
Q 2591 2438 2591 2028 
L 2591 941 
Q 2591 709 2594 614 
Q 2597 519 2612 437 
Q 2628 356 2659 307 
Q 2691 259 2752 225 
Q 2813 191 2950 153 
L 2950 0 
L 2094 0 
L 2109 447 
z
M 2056 1425 
Q 1422 1419 1106 1256 
Q 791 1094 791 766 
Q 791 588 862 484 
Q 934 381 1043 342 
Q 1153 303 1303 303 
Q 1516 303 1689 406 
Q 1863 509 1959 668 
Q 2056 828 2056 984 
L 2056 1425 
z
" transform="scale(0.015625)"/>
       <path id="Cambria-69" d="M 1197 4213 
L 1197 3606 
L 622 3606 
L 622 4213 
L 1197 4213 
z
M 303 153 
Q 425 191 476 219 
Q 528 247 564 297 
Q 600 347 620 450 
Q 641 553 641 772 
L 641 2134 
Q 641 2334 634 2456 
Q 628 2578 590 2651 
Q 553 2725 476 2761 
Q 400 2797 259 2822 
L 259 2988 
L 988 3016 
L 1178 3016 
L 1178 781 
Q 1178 513 1203 408 
Q 1228 303 1298 248 
Q 1369 194 1528 153 
L 1528 0 
L 303 0 
L 303 153 
z
" transform="scale(0.015625)"/>
       <path id="Cambria-76" d="M 1334 2988 
L 1334 2834 
Q 1191 2800 1131 2769 
Q 1072 2738 1042 2688 
Q 1013 2638 1013 2553 
Q 1013 2469 1033 2376 
Q 1053 2284 1097 2163 
L 1641 581 
L 2278 2097 
Q 2341 2247 2366 2344 
Q 2391 2441 2391 2525 
Q 2391 2656 2320 2725 
Q 2250 2794 2063 2834 
L 2063 2988 
L 3231 2988 
L 3231 2834 
Q 3109 2809 3043 2757 
Q 2978 2706 2912 2595 
Q 2847 2484 2756 2284 
L 1703 -31 
L 1334 -31 
L 488 2303 
Q 400 2544 348 2633 
Q 297 2722 236 2765 
Q 175 2809 59 2834 
L 59 2988 
L 1334 2988 
z
" transform="scale(0.015625)"/>
       <path id="Cambria-73" d="M 2397 2303 
L 2097 2303 
Q 2028 2491 1934 2598 
Q 1841 2706 1722 2750 
Q 1603 2794 1431 2794 
Q 1181 2794 1032 2676 
Q 884 2559 884 2356 
Q 884 2213 943 2119 
Q 1003 2025 1128 1944 
Q 1253 1863 1569 1728 
Q 1888 1591 2061 1475 
Q 2234 1359 2332 1206 
Q 2431 1053 2431 841 
Q 2431 594 2347 425 
Q 2263 256 2109 150 
Q 1956 44 1745 -3 
Q 1534 -50 1284 -50 
Q 1022 -50 775 -11 
Q 528 28 294 91 
L 294 744 
L 600 744 
Q 684 456 850 326 
Q 1016 197 1306 197 
Q 1419 197 1526 220 
Q 1634 244 1718 298 
Q 1803 353 1853 447 
Q 1903 541 1903 681 
Q 1903 841 1840 941 
Q 1778 1041 1647 1123 
Q 1516 1206 1184 1347 
Q 900 1466 728 1578 
Q 556 1691 457 1844 
Q 359 1997 359 2206 
Q 359 2463 498 2652 
Q 638 2841 900 2941 
Q 1163 3041 1516 3041 
Q 1722 3041 1914 3020 
Q 2106 3000 2397 2941 
L 2397 2303 
z
" transform="scale(0.015625)"/>
      </defs>
      <use xlink:href="#Cambria-41"/>
      <use xlink:href="#Cambria-6c" x="62.304688"/>
      <use xlink:href="#Cambria-74" x="89.453125"/>
      <use xlink:href="#Cambria-65" x="123.291016"/>
      <use xlink:href="#Cambria-72" x="172.070312"/>
      <use xlink:href="#Cambria-6e" x="213.427734"/>
      <use xlink:href="#Cambria-61" x="269.238281"/>
      <use xlink:href="#Cambria-74" x="318.066406"/>
      <use xlink:href="#Cambria-69" x="351.904297"/>
      <use xlink:href="#Cambria-76" x="379.6875"/>
      <use xlink:href="#Cambria-65" x="430.078125"/>
      <use xlink:href="#Cambria-73" x="478.857422"/>
     </g>
    </g>
    <g id="patch_17">
     <path d="M 509.161563 49.664375 
L 533.161563 49.664375 
L 533.161563 41.264375 
L 509.161563 41.264375 
z
" style="fill: #440154; stroke: #000000; stroke-linejoin: miter"/>
    </g>
    <g id="text_17">
     <!-- Treatment A -->
     <g transform="translate(542.761563 49.664375) scale(0.12 -0.12)">
      <defs>
       <path id="Cambria-54" d="M 206 4266 
L 3588 4266 
L 3588 3178 
L 3281 3178 
Q 3213 3447 3145 3603 
Q 3078 3759 3003 3840 
Q 2928 3922 2842 3956 
Q 2756 3991 2584 3991 
L 2188 3991 
L 2188 791 
Q 2188 606 2208 497 
Q 2228 388 2270 323 
Q 2313 259 2384 223 
Q 2456 188 2609 153 
L 2609 0 
L 1181 0 
L 1181 153 
Q 1275 175 1347 200 
Q 1419 225 1464 261 
Q 1509 297 1539 353 
Q 1569 409 1586 506 
Q 1603 603 1603 791 
L 1603 3991 
L 1209 3991 
Q 1063 3991 967 3962 
Q 872 3934 790 3845 
Q 709 3756 642 3592 
Q 575 3428 516 3178 
L 206 3178 
L 206 4266 
z
" transform="scale(0.015625)"/>
       <path id="Cambria-6d" d="M 1147 2506 
L 1191 2494 
Q 1378 2681 1498 2776 
Q 1619 2872 1731 2930 
Q 1844 2988 1942 3013 
Q 2041 3038 2144 3038 
Q 2456 3038 2653 2894 
Q 2850 2750 2925 2453 
Q 3159 2691 3304 2803 
Q 3450 2916 3601 2977 
Q 3753 3038 3928 3038 
Q 4138 3038 4289 2977 
Q 4441 2916 4545 2789 
Q 4650 2663 4698 2472 
Q 4747 2281 4747 1959 
L 4747 781 
Q 4747 544 4762 453 
Q 4778 363 4808 313 
Q 4838 263 4897 227 
Q 4956 191 5097 153 
L 5097 0 
L 3869 0 
L 3869 153 
Q 3991 191 4044 219 
Q 4097 247 4133 297 
Q 4169 347 4189 451 
Q 4209 556 4209 769 
L 4209 1588 
Q 4209 1853 4195 2026 
Q 4181 2200 4151 2303 
Q 4122 2406 4080 2465 
Q 4038 2525 3984 2569 
Q 3931 2613 3859 2638 
Q 3788 2663 3669 2663 
Q 3544 2663 3436 2613 
Q 3328 2563 3201 2444 
Q 3075 2325 3019 2204 
Q 2963 2084 2963 1922 
L 2963 781 
Q 2963 544 2978 453 
Q 2994 363 3023 313 
Q 3053 263 3112 227 
Q 3172 191 3313 153 
L 3313 0 
L 2084 0 
L 2084 153 
Q 2206 191 2259 219 
Q 2313 247 2348 297 
Q 2384 347 2404 451 
Q 2425 556 2425 769 
L 2425 1588 
Q 2425 1866 2409 2041 
Q 2394 2216 2361 2322 
Q 2328 2428 2276 2493 
Q 2225 2559 2172 2593 
Q 2119 2628 2047 2645 
Q 1975 2663 1884 2663 
Q 1756 2663 1643 2605 
Q 1531 2547 1414 2437 
Q 1297 2328 1237 2209 
Q 1178 2091 1178 1953 
L 1178 781 
Q 1178 603 1187 509 
Q 1197 416 1217 362 
Q 1238 309 1269 276 
Q 1300 244 1358 214 
Q 1416 184 1531 153 
L 1531 0 
L 306 0 
L 306 153 
Q 425 191 476 219 
Q 528 247 565 297 
Q 603 347 622 450 
Q 641 553 641 772 
L 641 2134 
Q 641 2334 634 2456 
Q 628 2578 590 2651 
Q 553 2725 476 2761 
Q 400 2797 259 2822 
L 259 2988 
L 991 3016 
L 1181 3016 
L 1147 2506 
z
" transform="scale(0.015625)"/>
       <path id="Cambria-20" transform="scale(0.015625)"/>
      </defs>
      <use xlink:href="#Cambria-54"/>
      <use xlink:href="#Cambria-72" x="55.902344"/>
      <use xlink:href="#Cambria-65" x="97.259766"/>
      <use xlink:href="#Cambria-61" x="146.039062"/>
      <use xlink:href="#Cambria-74" x="194.867188"/>
      <use xlink:href="#Cambria-6d" x="228.705078"/>
      <use xlink:href="#Cambria-65" x="311.908203"/>
      <use xlink:href="#Cambria-6e" x="360.6875"/>
      <use xlink:href="#Cambria-74" x="416.498047"/>
      <use xlink:href="#Cambria-20" x="450.335938"/>
      <use xlink:href="#Cambria-41" x="472.357422"/>
     </g>
    </g>
    <g id="patch_18">
     <path d="M 509.161563 66.584375 
L 533.161563 66.584375 
L 533.161563 58.184375 
L 509.161563 58.184375 
z
" style="fill: #21918c; stroke: #000000; stroke-linejoin: miter"/>
    </g>
    <g id="text_18">
     <!-- Treatment B -->
     <g transform="translate(542.761563 66.584375) scale(0.12 -0.12)">
      <defs>
       <path id="Cambria-42" d="M 378 0 
L 378 153 
Q 572 203 637 264 
Q 703 325 723 437 
Q 744 550 744 781 
L 744 3484 
Q 744 3700 728 3798 
Q 713 3897 677 3951 
Q 641 4006 581 4039 
Q 522 4072 378 4113 
L 378 4266 
L 2088 4266 
Q 2584 4266 2886 4159 
Q 3188 4053 3334 3845 
Q 3481 3638 3481 3309 
Q 3481 3038 3376 2838 
Q 3272 2638 3103 2506 
Q 2934 2375 2669 2263 
L 2669 2234 
Q 3094 2106 3312 1839 
Q 3531 1572 3531 1203 
Q 3531 778 3342 509 
Q 3153 241 2812 120 
Q 2472 0 1988 0 
L 378 0 
z
M 1875 2353 
Q 2350 2353 2601 2583 
Q 2853 2813 2853 3250 
Q 2853 3466 2783 3608 
Q 2713 3750 2589 3834 
Q 2466 3919 2297 3955 
Q 2128 3991 1931 3991 
Q 1813 3991 1619 3984 
Q 1425 3978 1328 3972 
L 1328 2353 
L 1875 2353 
z
M 1328 297 
Q 1556 275 1838 275 
Q 2247 275 2473 378 
Q 2700 481 2801 682 
Q 2903 884 2903 1188 
Q 2903 1491 2792 1687 
Q 2681 1884 2450 1981 
Q 2219 2078 1813 2078 
L 1328 2078 
L 1328 297 
z
" transform="scale(0.015625)"/>
      </defs>
      <use xlink:href="#Cambria-54"/>
      <use xlink:href="#Cambria-72" x="55.902344"/>
      <use xlink:href="#Cambria-65" x="97.259766"/>
      <use xlink:href="#Cambria-61" x="146.039062"/>
      <use xlink:href="#Cambria-74" x="194.867188"/>
      <use xlink:href="#Cambria-6d" x="228.705078"/>
      <use xlink:href="#Cambria-65" x="311.908203"/>
      <use xlink:href="#Cambria-6e" x="360.6875"/>
      <use xlink:href="#Cambria-74" x="416.498047"/>
      <use xlink:href="#Cambria-20" x="450.335938"/>
      <use xlink:href="#Cambria-42" x="472.357422"/>
     </g>
    </g>
    <g id="patch_19">
     <path d="M 509.161563 83.504375 
L 533.161563 83.504375 
L 533.161563 75.104375 
L 509.161563 75.104375 
z
" style="fill: #fde725; stroke: #000000; stroke-linejoin: miter"/>
    </g>
    <g id="text_19">
     <!-- Treatment C -->
     <g transform="translate(542.761563 83.504375) scale(0.12 -0.12)">
      <defs>
       <path id="Cambria-43" d="M 3256 4175 
L 3256 3309 
L 2947 3309 
Q 2872 3581 2756 3742 
Q 2641 3903 2487 3972 
Q 2334 4041 2119 4041 
Q 1797 4041 1545 3827 
Q 1294 3613 1150 3183 
Q 1006 2753 1006 2144 
Q 1006 1531 1125 1098 
Q 1244 666 1475 445 
Q 1706 225 2044 225 
Q 2300 225 2462 298 
Q 2625 372 2736 531 
Q 2847 691 2947 1000 
L 3256 1000 
L 3256 106 
Q 2963 28 2655 -11 
Q 2347 -50 1978 -50 
Q 1184 -50 778 487 
Q 372 1025 372 2091 
Q 372 2759 583 3262 
Q 794 3766 1203 4041 
Q 1613 4316 2181 4316 
Q 2466 4316 2706 4286 
Q 2947 4256 3256 4175 
z
" transform="scale(0.015625)"/>
      </defs>
      <use xlink:href="#Cambria-54"/>
      <use xlink:href="#Cambria-72" x="55.902344"/>
      <use xlink:href="#Cambria-65" x="97.259766"/>
      <use xlink:href="#Cambria-61" x="146.039062"/>
      <use xlink:href="#Cambria-74" x="194.867188"/>
      <use xlink:href="#Cambria-6d" x="228.705078"/>
      <use xlink:href="#Cambria-65" x="311.908203"/>
      <use xlink:href="#Cambria-6e" x="360.6875"/>
      <use xlink:href="#Cambria-74" x="416.498047"/>
      <use xlink:href="#Cambria-20" x="450.335938"/>
      <use xlink:href="#Cambria-43" x="472.357422"/>
     </g>
    </g>
   </g>
  </g>
 </g>
 <defs>
  <clipPath id="p748901bb74">
   <rect x="59.724063" y="11.741875" width="558" height="332.64"/>
  </clipPath>
 </defs>
</svg>
