<?xml version="1.0" encoding="utf-8" standalone="no"?>
<!DOCTYPE svg PUBLIC "-//W3C//DTD SVG 1.1//EN"
  "http://www.w3.org/Graphics/SVG/1.1/DTD/svg11.dtd">
<svg xmlns:xlink="http://www.w3.org/1999/xlink" width="704.81875pt" height="416.21625pt" viewBox="0 0 704.81875 416.21625" xmlns="http://www.w3.org/2000/svg" version="1.1">
 <metadata>
  <rdf:RDF xmlns:dc="http://purl.org/dc/elements/1.1/" xmlns:cc="http://creativecommons.org/ns#" xmlns:rdf="http://www.w3.org/1999/02/22-rdf-syntax-ns#">
   <cc:Work>
    <dc:type rdf:resource="http://purl.org/dc/dcmitype/StillImage"/>
    <dc:date>2026-03-27T19:40:50.837692</dc:date>
    <dc:format>image/svg+xml</dc:format>
    <dc:creator>
     <cc:Agent>
      <dc:title>Matplotlib v3.8.2, https://matplotlib.org/</dc:title>
     </cc:Agent>
    </dc:creator>
   </cc:Work>
  </rdf:RDF>
 </metadata>
 <defs>
  <style type="text/css">*{stroke-linejoin: round; stroke-linecap: butt}</style>
 </defs>
 <g id="figure_1">
  <g id="patch_1">
   <path d="M 0 416.21625 
L 704.81875 416.21625 
L 704.81875 0 
L 0 0 
z
" style="fill: #ffffff"/>
  </g>
  <g id="axes_1">
   <g id="patch_2">
    <path d="M 52.51875 373.48 
L 697.61875 373.48 
L 697.61875 7.2 
L 52.51875 7.2 
z
" style="fill: #ffffff"/>
   </g>
   <g id="PolyCollection_1">
    <defs>
     <path id="m636b0571fa" d="M 81.841477 -172.653318 
L 81.841477 -42.73625 
L 86.036833 -42.73625 
L 86.036833 -42.73625 
L 90.232188 -42.73625 
L 90.232188 -42.73625 
L 94.427543 -42.73625 
L 94.427543 -42.73625 
L 98.622899 -42.73625 
L 98.622899 -42.73625 
L 102.818254 -42.73625 
L 102.818254 -42.73625 
L 107.013609 -42.73625 
L 107.013609 -42.73625 
L 111.208965 -42.73625 
L 111.208965 -42.73625 
L 115.40432 -42.73625 
L 115.40432 -42.73625 
L 119.599675 -42.73625 
L 119.599675 -42.73625 
L 123.795031 -42.73625 
L 123.795031 -42.73625 
L 127.990386 -42.73625 
L 127.990386 -42.73625 
L 132.185741 -42.73625 
L 132.185741 -42.73625 
L 136.381097 -42.73625 
L 136.381097 -42.73625 
L 140.576452 -42.73625 
L 140.576452 -42.73625 
L 144.771807 -42.73625 
L 144.771807 -42.73625 
L 148.967163 -42.73625 
L 148.967163 -42.73625 
L 153.162518 -42.73625 
L 153.162518 -42.73625 
L 157.357874 -42.73625 
L 157.357874 -42.73625 
L 161.553229 -42.73625 
L 161.553229 -42.73625 
L 165.748584 -42.73625 
L 165.748584 -42.73625 
L 169.94394 -42.73625 
L 169.94394 -42.73625 
L 174.139295 -42.73625 
L 174.139295 -42.73625 
L 178.33465 -42.73625 
L 178.33465 -42.73625 
L 182.530006 -42.73625 
L 182.530006 -42.73625 
L 186.725361 -42.73625 
L 186.725361 -42.73625 
L 190.920716 -42.73625 
L 190.920716 -42.73625 
L 195.116072 -42.73625 
L 195.116072 -42.73625 
L 199.311427 -42.73625 
L 199.311427 -42.73625 
L 203.506782 -42.73625 
L 203.506782 -42.73625 
L 207.702138 -42.73625 
L 207.702138 -42.73625 
L 211.897493 -42.73625 
L 211.897493 -42.73625 
L 216.092848 -42.73625 
L 216.092848 -42.73625 
L 220.288204 -42.73625 
L 220.288204 -42.73625 
L 224.483559 -42.73625 
L 224.483559 -42.73625 
L 228.678914 -42.73625 
L 228.678914 -42.73625 
L 232.87427 -42.73625 
L 232.87427 -42.73625 
L 237.069625 -42.73625 
L 237.069625 -42.73625 
L 241.264981 -42.73625 
L 241.264981 -42.73625 
L 245.460336 -42.73625 
L 245.460336 -42.73625 
L 249.655691 -42.73625 
L 249.655691 -42.73625 
L 253.851047 -42.73625 
L 253.851047 -42.73625 
L 258.046402 -42.73625 
L 258.046402 -42.73625 
L 262.241757 -42.73625 
L 262.241757 -42.73625 
L 266.437113 -42.73625 
L 266.437113 -42.73625 
L 270.632468 -42.73625 
L 270.632468 -42.73625 
L 274.827823 -42.73625 
L 274.827823 -42.73625 
L 279.023179 -42.73625 
L 279.023179 -42.73625 
L 283.218534 -42.73625 
L 283.218534 -42.73625 
L 287.413889 -42.73625 
L 287.413889 -42.73625 
L 291.609245 -42.73625 
L 291.609245 -42.73625 
L 291.609245 -43.454024 
L 291.609245 -43.454024 
L 291.609245 -43.454024 
L 287.413889 -43.454024 
L 287.413889 -42.73625 
L 283.218534 -42.73625 
L 283.218534 -42.73625 
L 279.023179 -42.73625 
L 279.023179 -42.73625 
L 274.827823 -42.73625 
L 274.827823 -43.454024 
L 270.632468 -43.454024 
L 270.632468 -43.454024 
L 266.437113 -43.454024 
L 266.437113 -42.73625 
L 262.241757 -42.73625 
L 262.241757 -42.73625 
L 258.046402 -42.73625 
L 258.046402 -42.73625 
L 253.851047 -42.73625 
L 253.851047 -42.73625 
L 249.655691 -42.73625 
L 249.655691 -43.454024 
L 245.460336 -43.454024 
L 245.460336 -42.73625 
L 241.264981 -42.73625 
L 241.264981 -43.454024 
L 237.069625 -43.454024 
L 237.069625 -42.73625 
L 232.87427 -42.73625 
L 232.87427 -43.454024 
L 228.678914 -43.454024 
L 228.678914 -43.454024 
L 224.483559 -43.454024 
L 224.483559 -42.73625 
L 220.288204 -42.73625 
L 220.288204 -44.171798 
L 216.092848 -44.171798 
L 216.092848 -43.454024 
L 211.897493 -43.454024 
L 211.897493 -42.73625 
L 207.702138 -42.73625 
L 207.702138 -42.73625 
L 203.506782 -42.73625 
L 203.506782 -42.73625 
L 199.311427 -42.73625 
L 199.311427 -42.73625 
L 195.116072 -42.73625 
L 195.116072 -42.73625 
L 190.920716 -42.73625 
L 190.920716 -42.73625 
L 186.725361 -42.73625 
L 186.725361 -42.73625 
L 182.530006 -42.73625 
L 182.530006 -44.889572 
L 178.33465 -44.889572 
L 178.33465 -43.454024 
L 174.139295 -43.454024 
L 174.139295 -44.889572 
L 169.94394 -44.889572 
L 169.94394 -44.171798 
L 165.748584 -44.171798 
L 165.748584 -43.454024 
L 161.553229 -43.454024 
L 161.553229 -43.454024 
L 157.357874 -43.454024 
L 157.357874 -44.171798 
L 153.162518 -44.171798 
L 153.162518 -43.454024 
L 148.967163 -43.454024 
L 148.967163 -47.042893 
L 144.771807 -47.042893 
L 144.771807 -47.042893 
L 140.576452 -47.042893 
L 140.576452 -49.196215 
L 136.381097 -49.196215 
L 136.381097 -59.962823 
L 132.185741 -59.962823 
L 132.185741 -55.656179 
L 127.990386 -55.656179 
L 127.990386 -64.269466 
L 123.795031 -64.269466 
L 123.795031 -69.293883 
L 119.599675 -69.293883 
L 119.599675 -72.164978 
L 115.40432 -72.164978 
L 115.40432 -77.189395 
L 111.208965 -77.189395 
L 111.208965 -87.956003 
L 107.013609 -87.956003 
L 107.013609 -98.722611 
L 102.818254 -98.722611 
L 102.818254 -105.182576 
L 98.622899 -105.182576 
L 98.622899 -123.126922 
L 94.427543 -123.126922 
L 94.427543 -118.820279 
L 90.232188 -118.820279 
L 90.232188 -136.046852 
L 86.036833 -136.046852 
L 86.036833 -172.653318 
L 81.841477 -172.653318 
z
" style="stroke: #440154"/>
    </defs>
    <g clip-path="url(#p1bbed0875c)">
     <use xlink:href="#m636b0571fa" x="0" y="416.21625" style="fill: #440154; fill-opacity: 0.5; stroke: #440154"/>
    </g>
   </g>
   <g id="PolyCollection_2">
    <defs>
     <path id="mb0954bfeb5" d="M 267.569693 -43.454024 
L 267.569693 -42.73625 
L 275.239349 -42.73625 
L 275.239349 -42.73625 
L 282.909005 -42.73625 
L 282.909005 -42.73625 
L 290.578661 -42.73625 
L 290.578661 -42.73625 
L 298.248318 -42.73625 
L 298.248318 -42.73625 
L 305.917974 -42.73625 
L 305.917974 -42.73625 
L 313.58763 -42.73625 
L 313.58763 -42.73625 
L 321.257286 -42.73625 
L 321.257286 -42.73625 
L 328.926943 -42.73625 
L 328.926943 -42.73625 
L 336.596599 -42.73625 
L 336.596599 -42.73625 
L 344.266255 -42.73625 
L 344.266255 -42.73625 
L 351.935911 -42.73625 
L 351.935911 -42.73625 
L 359.605567 -42.73625 
L 359.605567 -42.73625 
L 367.275224 -42.73625 
L 367.275224 -42.73625 
L 374.94488 -42.73625 
L 374.94488 -42.73625 
L 382.614536 -42.73625 
L 382.614536 -42.73625 
L 390.284192 -42.73625 
L 390.284192 -42.73625 
L 397.953848 -42.73625 
L 397.953848 -42.73625 
L 405.623505 -42.73625 
L 405.623505 -42.73625 
L 413.293161 -42.73625 
L 413.293161 -42.73625 
L 420.962817 -42.73625 
L 420.962817 -42.73625 
L 428.632473 -42.73625 
L 428.632473 -42.73625 
L 436.30213 -42.73625 
L 436.30213 -42.73625 
L 443.971786 -42.73625 
L 443.971786 -42.73625 
L 451.641442 -42.73625 
L 451.641442 -42.73625 
L 459.311098 -42.73625 
L 459.311098 -42.73625 
L 466.980754 -42.73625 
L 466.980754 -42.73625 
L 474.650411 -42.73625 
L 474.650411 -42.73625 
L 482.320067 -42.73625 
L 482.320067 -42.73625 
L 489.989723 -42.73625 
L 489.989723 -42.73625 
L 497.659379 -42.73625 
L 497.659379 -42.73625 
L 505.329035 -42.73625 
L 505.329035 -42.73625 
L 512.998692 -42.73625 
L 512.998692 -42.73625 
L 520.668348 -42.73625 
L 520.668348 -42.73625 
L 528.338004 -42.73625 
L 528.338004 -42.73625 
L 536.00766 -42.73625 
L 536.00766 -42.73625 
L 543.677316 -42.73625 
L 543.677316 -42.73625 
L 551.346973 -42.73625 
L 551.346973 -42.73625 
L 559.016629 -42.73625 
L 559.016629 -42.73625 
L 566.686285 -42.73625 
L 566.686285 -42.73625 
L 574.355941 -42.73625 
L 574.355941 -42.73625 
L 582.025598 -42.73625 
L 582.025598 -42.73625 
L 589.695254 -42.73625 
L 589.695254 -42.73625 
L 597.36491 -42.73625 
L 597.36491 -42.73625 
L 605.034566 -42.73625 
L 605.034566 -42.73625 
L 612.704222 -42.73625 
L 612.704222 -42.73625 
L 620.373879 -42.73625 
L 620.373879 -42.73625 
L 628.043535 -42.73625 
L 628.043535 -42.73625 
L 635.713191 -42.73625 
L 635.713191 -42.73625 
L 643.382847 -42.73625 
L 643.382847 -42.73625 
L 651.052503 -42.73625 
L 651.052503 -42.73625 
L 651.052503 -45.607345 
L 651.052503 -45.607345 
L 651.052503 -45.607345 
L 643.382847 -45.607345 
L 643.382847 -44.889572 
L 635.713191 -44.889572 
L 635.713191 -48.478441 
L 628.043535 -48.478441 
L 628.043535 -49.196215 
L 620.373879 -49.196215 
L 620.373879 -47.042893 
L 612.704222 -47.042893 
L 612.704222 -49.196215 
L 605.034566 -49.196215 
L 605.034566 -57.091727 
L 597.36491 -57.091727 
L 597.36491 -53.502858 
L 589.695254 -53.502858 
L 589.695254 -61.39837 
L 582.025598 -61.39837 
L 582.025598 -63.551692 
L 574.355941 -63.551692 
L 574.355941 -59.962823 
L 566.686285 -59.962823 
L 566.686285 -62.116144 
L 559.016629 -62.116144 
L 559.016629 -67.140561 
L 551.346973 -67.140561 
L 551.346973 -72.164978 
L 543.677316 -72.164978 
L 543.677316 -68.576109 
L 536.00766 -68.576109 
L 536.00766 -70.72943 
L 528.338004 -70.72943 
L 528.338004 -74.3183 
L 520.668348 -74.3183 
L 520.668348 -73.600526 
L 512.998692 -73.600526 
L 512.998692 -77.907169 
L 505.329035 -77.907169 
L 505.329035 -72.882752 
L 497.659379 -72.882752 
L 497.659379 -76.471621 
L 489.989723 -76.471621 
L 489.989723 -68.576109 
L 482.320067 -68.576109 
L 482.320067 -69.293883 
L 474.650411 -69.293883 
L 474.650411 -75.036074 
L 466.980754 -75.036074 
L 466.980754 -69.293883 
L 459.311098 -69.293883 
L 459.311098 -62.833918 
L 451.641442 -62.833918 
L 451.641442 -62.833918 
L 443.971786 -62.833918 
L 443.971786 -75.753847 
L 436.30213 -75.753847 
L 436.30213 -58.527275 
L 428.632473 -58.527275 
L 428.632473 -57.091727 
L 420.962817 -57.091727 
L 420.962817 -57.091727 
L 413.293161 -57.091727 
L 413.293161 -60.680596 
L 405.623505 -60.680596 
L 405.623505 -54.220632 
L 397.953848 -54.220632 
L 397.953848 -55.656179 
L 390.284192 -55.656179 
L 390.284192 -49.196215 
L 382.614536 -49.196215 
L 382.614536 -53.502858 
L 374.94488 -53.502858 
L 374.94488 -47.760667 
L 367.275224 -47.760667 
L 367.275224 -48.478441 
L 359.605567 -48.478441 
L 359.605567 -47.042893 
L 351.935911 -47.042893 
L 351.935911 -47.042893 
L 344.266255 -47.042893 
L 344.266255 -44.171798 
L 336.596599 -44.171798 
L 336.596599 -46.325119 
L 328.926943 -46.325119 
L 328.926943 -44.889572 
L 321.257286 -44.889572 
L 321.257286 -44.889572 
L 313.58763 -44.889572 
L 313.58763 -42.73625 
L 305.917974 -42.73625 
L 305.917974 -43.454024 
L 298.248318 -43.454024 
L 298.248318 -43.454024 
L 290.578661 -43.454024 
L 290.578661 -42.73625 
L 282.909005 -42.73625 
L 282.909005 -42.73625 
L 275.239349 -42.73625 
L 275.239349 -43.454024 
L 267.569693 -43.454024 
z
" style="stroke: #21918c"/>
    </defs>
    <g clip-path="url(#p1bbed0875c)">
     <use xlink:href="#mb0954bfeb5" x="0" y="416.21625" style="fill: #21918c; fill-opacity: 0.5; stroke: #21918c"/>
    </g>
   </g>
   <g id="PolyCollection_3">
    <defs>
     <path id="me910836075" d="M 620.177815 -44.171798 
L 620.177815 -42.73625 
L 621.140179 -42.73625 
L 621.140179 -42.73625 
L 622.102543 -42.73625 
L 622.102543 -42.73625 
L 623.064907 -42.73625 
L 623.064907 -42.73625 
L 624.027271 -42.73625 
L 624.027271 -42.73625 
L 624.989635 -42.73625 
L 624.989635 -42.73625 
L 625.951999 -42.73625 
L 625.951999 -42.73625 
L 626.914364 -42.73625 
L 626.914364 -42.73625 
L 627.876728 -42.73625 
L 627.876728 -42.73625 
L 628.839092 -42.73625 
L 628.839092 -42.73625 
L 629.801456 -42.73625 
L 629.801456 -42.73625 
L 630.76382 -42.73625 
L 630.76382 -42.73625 
L 631.726184 -42.73625 
L 631.726184 -42.73625 
L 632.688549 -42.73625 
L 632.688549 -42.73625 
L 633.650913 -42.73625 
L 633.650913 -42.73625 
L 634.613277 -42.73625 
L 634.613277 -42.73625 
L 635.575641 -42.73625 
L 635.575641 -42.73625 
L 636.538005 -42.73625 
L 636.538005 -42.73625 
L 637.500369 -42.73625 
L 637.500369 -42.73625 
L 638.462734 -42.73625 
L 638.462734 -42.73625 
L 639.425098 -42.73625 
L 639.425098 -42.73625 
L 640.387462 -42.73625 
L 640.387462 -42.73625 
L 641.349826 -42.73625 
L 641.349826 -42.73625 
L 642.31219 -42.73625 
L 642.31219 -42.73625 
L 643.274554 -42.73625 
L 643.274554 -42.73625 
L 644.236919 -42.73625 
L 644.236919 -42.73625 
L 645.199283 -42.73625 
L 645.199283 -42.73625 
L 646.161647 -42.73625 
L 646.161647 -42.73625 
L 647.124011 -42.73625 
L 647.124011 -42.73625 
L 648.086375 -42.73625 
L 648.086375 -42.73625 
L 649.048739 -42.73625 
L 649.048739 -42.73625 
L 650.011104 -42.73625 
L 650.011104 -42.73625 
L 650.973468 -42.73625 
L 650.973468 -42.73625 
L 651.935832 -42.73625 
L 651.935832 -42.73625 
L 652.898196 -42.73625 
L 652.898196 -42.73625 
L 653.86056 -42.73625 
L 653.86056 -42.73625 
L 654.822924 -42.73625 
L 654.822924 -42.73625 
L 655.785289 -42.73625 
L 655.785289 -42.73625 
L 656.747653 -42.73625 
L 656.747653 -42.73625 
L 657.710017 -42.73625 
L 657.710017 -42.73625 
L 658.672381 -42.73625 
L 658.672381 -42.73625 
L 659.634745 -42.73625 
L 659.634745 -42.73625 
L 660.597109 -42.73625 
L 660.597109 -42.73625 
L 661.559474 -42.73625 
L 661.559474 -42.73625 
L 662.521838 -42.73625 
L 662.521838 -42.73625 
L 663.484202 -42.73625 
L 663.484202 -42.73625 
L 664.446566 -42.73625 
L 664.446566 -42.73625 
L 665.40893 -42.73625 
L 665.40893 -42.73625 
L 666.371294 -42.73625 
L 666.371294 -42.73625 
L 667.333659 -42.73625 
L 667.333659 -42.73625 
L 668.296023 -42.73625 
L 668.296023 -42.73625 
L 668.296023 -391.574345 
L 668.296023 -391.574345 
L 668.296023 -391.574345 
L 667.333659 -391.574345 
L 667.333659 -120.255827 
L 666.371294 -120.255827 
L 666.371294 -97.287063 
L 665.40893 -97.287063 
L 665.40893 -85.802682 
L 664.446566 -85.802682 
L 664.446566 -72.882752 
L 663.484202 -72.882752 
L 663.484202 -62.116144 
L 662.521838 -62.116144 
L 662.521838 -70.011657 
L 661.559474 -70.011657 
L 661.559474 -62.116144 
L 660.597109 -62.116144 
L 660.597109 -57.091727 
L 659.634745 -57.091727 
L 659.634745 -52.785084 
L 658.672381 -52.785084 
L 658.672381 -54.220632 
L 657.710017 -54.220632 
L 657.710017 -51.349536 
L 656.747653 -51.349536 
L 656.747653 -52.785084 
L 655.785289 -52.785084 
L 655.785289 -47.042893 
L 654.822924 -47.042893 
L 654.822924 -47.042893 
L 653.86056 -47.042893 
L 653.86056 -46.325119 
L 652.898196 -46.325119 
L 652.898196 -44.171798 
L 651.935832 -44.171798 
L 651.935832 -47.042893 
L 650.973468 -47.042893 
L 650.973468 -45.607345 
L 650.011104 -45.607345 
L 650.011104 -43.454024 
L 649.048739 -43.454024 
L 649.048739 -47.760667 
L 648.086375 -47.760667 
L 648.086375 -45.607345 
L 647.124011 -45.607345 
L 647.124011 -44.171798 
L 646.161647 -44.171798 
L 646.161647 -43.454024 
L 645.199283 -43.454024 
L 645.199283 -45.607345 
L 644.236919 -45.607345 
L 644.236919 -42.73625 
L 643.274554 -42.73625 
L 643.274554 -42.73625 
L 642.31219 -42.73625 
L 642.31219 -44.171798 
L 641.349826 -44.171798 
L 641.349826 -42.73625 
L 640.387462 -42.73625 
L 640.387462 -43.454024 
L 639.425098 -43.454024 
L 639.425098 -42.73625 
L 638.462734 -42.73625 
L 638.462734 -43.454024 
L 637.500369 -43.454024 
L 637.500369 -43.454024 
L 636.538005 -43.454024 
L 636.538005 -42.73625 
L 635.575641 -42.73625 
L 635.575641 -44.171798 
L 634.613277 -44.171798 
L 634.613277 -42.73625 
L 633.650913 -42.73625 
L 633.650913 -44.171798 
L 632.688549 -44.171798 
L 632.688549 -42.73625 
L 631.726184 -42.73625 
L 631.726184 -42.73625 
L 630.76382 -42.73625 
L 630.76382 -42.73625 
L 629.801456 -42.73625 
L 629.801456 -42.73625 
L 628.839092 -42.73625 
L 628.839092 -42.73625 
L 627.876728 -42.73625 
L 627.876728 -42.73625 
L 626.914364 -42.73625 
L 626.914364 -42.73625 
L 625.951999 -42.73625 
L 625.951999 -42.73625 
L 624.989635 -42.73625 
L 624.989635 -42.73625 
L 624.027271 -42.73625 
L 624.027271 -42.73625 
L 623.064907 -42.73625 
L 623.064907 -42.73625 
L 622.102543 -42.73625 
L 622.102543 -43.454024 
L 621.140179 -43.454024 
L 621.140179 -44.171798 
L 620.177815 -44.171798 
z
" style="stroke: #fde725"/>
    </defs>
    <g clip-path="url(#p1bbed0875c)">
     <use xlink:href="#me910836075" x="0" y="416.21625" style="fill: #fde725; fill-opacity: 0.5; stroke: #fde725"/>
    </g>
   </g>
   <g id="matplotlib.axis_1">
    <g id="xtick_1">
     <g id="line2d_1">
      <defs>
       <path id="m1a1fb663c2" d="M 0 0 
L 0 3.5 
" style="stroke: #000000; stroke-width: 0.8"/>
      </defs>
      <g>
       <use xlink:href="#m1a1fb663c2" x="81.841477" y="373.48" style="stroke: #000000; stroke-width: 0.8"/>
      </g>
     </g>
     <g id="text_1">
      <!-- 0.0 -->
      <g transform="translate(73.309212 389.56375) scale(0.13 -0.13)">
       <defs>
        <path id="Cambria-30" d="M 1738 -50 
Q 1063 -50 733 481 
Q 403 1013 403 2094 
Q 403 2669 504 3087 
Q 606 3506 789 3779 
Q 972 4053 1228 4184 
Q 1484 4316 1788 4316 
Q 2472 4316 2806 3787 
Q 3141 3259 3141 2191 
Q 3141 1084 2783 517 
Q 2425 -50 1738 -50 
z
M 1013 2188 
Q 1013 1169 1202 692 
Q 1391 216 1788 216 
Q 2166 216 2348 664 
Q 2531 1113 2531 2053 
Q 2531 2772 2437 3217 
Q 2344 3663 2176 3856 
Q 2009 4050 1772 4050 
Q 1556 4050 1411 3922 
Q 1266 3794 1177 3553 
Q 1088 3313 1050 2967 
Q 1013 2622 1013 2188 
z
" transform="scale(0.015625)"/>
        <path id="Cambria-2e" d="M 972 725 
L 972 0 
L 341 0 
L 341 725 
L 972 725 
z
" transform="scale(0.015625)"/>
       </defs>
       <use xlink:href="#Cambria-30"/>
       <use xlink:href="#Cambria-2e" x="55.371094"/>
       <use xlink:href="#Cambria-30" x="75.878906"/>
      </g>
     </g>
    </g>
    <g id="xtick_2">
     <g id="line2d_2">
      <g>
       <use xlink:href="#m1a1fb663c2" x="199.132386" y="373.48" style="stroke: #000000; stroke-width: 0.8"/>
      </g>
     </g>
     <g id="text_2">
      <!-- 0.2 -->
      <g transform="translate(190.600121 389.56375) scale(0.13 -0.13)">
       <defs>
        <path id="Cambria-32" d="M 2194 500 
Q 2347 500 2440 519 
Q 2534 538 2590 581 
Q 2647 625 2680 695 
Q 2713 766 2763 913 
L 3028 913 
L 2975 0 
L 403 0 
L 403 150 
Q 538 478 766 822 
Q 994 1166 1413 1631 
Q 1775 2031 1934 2238 
Q 2109 2463 2195 2627 
Q 2281 2791 2318 2936 
Q 2356 3081 2356 3228 
Q 2356 3463 2281 3642 
Q 2206 3822 2051 3925 
Q 1897 4028 1663 4028 
Q 1078 4028 875 3378 
L 497 3378 
L 497 3978 
Q 875 4156 1204 4236 
Q 1534 4316 1797 4316 
Q 2378 4316 2675 4061 
Q 2972 3806 2972 3322 
Q 2972 3156 2939 3017 
Q 2906 2878 2836 2742 
Q 2766 2606 2647 2450 
Q 2528 2294 2384 2133 
Q 2241 1972 1888 1597 
Q 1294 969 1016 500 
L 2194 500 
z
" transform="scale(0.015625)"/>
       </defs>
       <use xlink:href="#Cambria-30"/>
       <use xlink:href="#Cambria-2e" x="55.371094"/>
       <use xlink:href="#Cambria-32" x="75.878906"/>
      </g>
     </g>
    </g>
    <g id="xtick_3">
     <g id="line2d_3">
      <g>
       <use xlink:href="#m1a1fb663c2" x="316.423295" y="373.48" style="stroke: #000000; stroke-width: 0.8"/>
      </g>
     </g>
     <g id="text_3">
      <!-- 0.4 -->
      <g transform="translate(307.89103 389.56375) scale(0.13 -0.13)">
       <defs>
        <path id="Cambria-34" d="M 1613 153 
Q 1806 203 1872 264 
Q 1938 325 1958 437 
Q 1978 550 1978 781 
L 1978 1294 
L 241 1294 
L 241 1528 
L 2069 4288 
L 2516 4288 
L 2516 1597 
L 2581 1597 
Q 2763 1597 2841 1623 
Q 2919 1650 2970 1717 
Q 3022 1784 3066 1938 
L 3303 1938 
L 3266 1294 
L 2516 1294 
L 2516 781 
Q 2516 572 2530 475 
Q 2544 378 2576 322 
Q 2609 266 2673 228 
Q 2738 191 2881 153 
L 2881 0 
L 1613 0 
L 1613 153 
z
M 756 1597 
L 1978 1597 
L 1978 2375 
Q 1978 2669 1987 3033 
Q 1997 3397 2009 3581 
L 1978 3581 
L 756 1641 
L 756 1597 
z
" transform="scale(0.015625)"/>
       </defs>
       <use xlink:href="#Cambria-30"/>
       <use xlink:href="#Cambria-2e" x="55.371094"/>
       <use xlink:href="#Cambria-34" x="75.878906"/>
      </g>
     </g>
    </g>
    <g id="xtick_4">
     <g id="line2d_4">
      <g>
       <use xlink:href="#m1a1fb663c2" x="433.714205" y="373.48" style="stroke: #000000; stroke-width: 0.8"/>
      </g>
     </g>
     <g id="text_4">
      <!-- 0.6 -->
      <g transform="translate(425.181939 389.56375) scale(0.13 -0.13)">
       <defs>
        <path id="Cambria-36" d="M 2847 4144 
L 2847 3991 
Q 2366 3991 1994 3784 
Q 1622 3578 1376 3178 
Q 1131 2778 1031 2228 
L 1063 2216 
Q 1325 2403 1579 2490 
Q 1834 2578 2131 2578 
Q 2484 2578 2732 2423 
Q 2981 2269 3106 1989 
Q 3231 1709 3231 1334 
Q 3231 928 3075 617 
Q 2919 306 2592 128 
Q 2266 -50 1788 -50 
Q 1103 -50 754 375 
Q 406 800 406 1628 
Q 406 2184 581 2668 
Q 756 3153 1078 3514 
Q 1400 3875 1825 4083 
Q 2250 4291 2719 4316 
L 2847 4144 
z
M 1916 2250 
Q 1763 2250 1620 2215 
Q 1478 2181 1353 2115 
Q 1228 2050 1109 1950 
Q 1072 1916 1053 1878 
Q 1022 1819 1012 1731 
Q 1003 1644 1003 1438 
Q 1003 841 1203 528 
Q 1403 216 1809 216 
Q 2044 216 2203 297 
Q 2363 378 2461 520 
Q 2559 663 2601 855 
Q 2644 1047 2644 1272 
Q 2644 1734 2453 1992 
Q 2263 2250 1916 2250 
z
" transform="scale(0.015625)"/>
       </defs>
       <use xlink:href="#Cambria-30"/>
       <use xlink:href="#Cambria-2e" x="55.371094"/>
       <use xlink:href="#Cambria-36" x="75.878906"/>
      </g>
     </g>
    </g>
    <g id="xtick_5">
     <g id="line2d_5">
      <g>
       <use xlink:href="#m1a1fb663c2" x="551.005114" y="373.48" style="stroke: #000000; stroke-width: 0.8"/>
      </g>
     </g>
     <g id="text_5">
      <!-- 0.8 -->
      <g transform="translate(542.472848 389.56375) scale(0.13 -0.13)">
       <defs>
        <path id="Cambria-38" d="M 2475 2253 
L 2481 2213 
Q 2834 2075 3015 1811 
Q 3197 1547 3197 1175 
Q 3197 809 3022 531 
Q 2847 253 2514 101 
Q 2181 -50 1738 -50 
Q 1322 -50 1008 89 
Q 694 228 520 495 
Q 347 763 347 1125 
Q 347 1397 440 1597 
Q 534 1797 686 1926 
Q 838 2056 1069 2163 
L 1063 2203 
Q 391 2494 391 3200 
Q 391 3522 567 3775 
Q 744 4028 1070 4172 
Q 1397 4316 1794 4316 
Q 2244 4316 2550 4189 
Q 2856 4063 3011 3823 
Q 3166 3584 3166 3250 
Q 3166 2906 2997 2657 
Q 2828 2409 2475 2253 
z
M 978 3228 
Q 978 3044 1022 2881 
Q 1066 2719 1162 2600 
Q 1259 2481 1414 2411 
Q 1569 2341 1794 2341 
Q 2053 2341 2229 2442 
Q 2406 2544 2492 2739 
Q 2578 2934 2578 3191 
Q 2578 3472 2476 3667 
Q 2375 3863 2197 3956 
Q 2019 4050 1788 4050 
Q 1394 4050 1186 3836 
Q 978 3622 978 3228 
z
M 944 1178 
Q 944 975 991 798 
Q 1038 622 1139 494 
Q 1241 366 1400 291 
Q 1559 216 1788 216 
Q 2044 216 2226 320 
Q 2409 425 2504 631 
Q 2600 838 2600 1119 
Q 2600 1419 2497 1636 
Q 2394 1853 2206 1967 
Q 2019 2081 1772 2081 
Q 1541 2081 1383 2009 
Q 1225 1938 1126 1816 
Q 1028 1694 986 1530 
Q 944 1366 944 1178 
z
" transform="scale(0.015625)"/>
       </defs>
       <use xlink:href="#Cambria-30"/>
       <use xlink:href="#Cambria-2e" x="55.371094"/>
       <use xlink:href="#Cambria-38" x="75.878906"/>
      </g>
     </g>
    </g>
    <g id="xtick_6">
     <g id="line2d_6">
      <g>
       <use xlink:href="#m1a1fb663c2" x="668.296023" y="373.48" style="stroke: #000000; stroke-width: 0.8"/>
      </g>
     </g>
     <g id="text_6">
      <!-- 1.0 -->
      <g transform="translate(659.763757 389.56375) scale(0.13 -0.13)">
       <defs>
        <path id="Cambria-31" d="M 2172 816 
Q 2172 634 2192 542 
Q 2213 450 2264 392 
Q 2316 334 2412 301 
Q 2509 269 2656 251 
Q 2803 234 3044 228 
L 3044 0 
L 734 0 
L 734 228 
Q 1081 244 1229 270 
Q 1378 297 1456 350 
Q 1534 403 1570 500 
Q 1606 597 1606 816 
L 1606 3350 
Q 1606 3475 1562 3533 
Q 1519 3591 1434 3591 
Q 1334 3591 1150 3487 
Q 966 3384 694 3203 
L 556 3444 
L 2019 4316 
L 2191 4316 
Q 2172 4016 2172 3484 
L 2172 816 
z
" transform="scale(0.015625)"/>
       </defs>
       <use xlink:href="#Cambria-31"/>
       <use xlink:href="#Cambria-2e" x="55.371094"/>
       <use xlink:href="#Cambria-30" x="75.878906"/>
      </g>
     </g>
    </g>
    <g id="text_7">
     <!-- RC Score -->
     <g transform="translate(348.797969 406.07625) scale(0.14 -0.14)">
      <defs>
       <path id="Cambria-52" d="M 1331 1853 
L 1331 791 
Q 1331 566 1348 464 
Q 1366 363 1400 311 
Q 1434 259 1493 226 
Q 1553 194 1697 153 
L 1697 0 
L 378 0 
L 378 153 
Q 572 203 637 264 
Q 703 325 723 437 
Q 744 550 744 781 
L 744 3484 
Q 744 3700 728 3798 
Q 713 3897 677 3951 
Q 641 4006 581 4039 
Q 522 4072 378 4113 
L 378 4266 
L 1925 4266 
Q 2656 4266 3018 4000 
Q 3381 3734 3381 3175 
Q 3381 2747 3145 2447 
Q 2909 2147 2438 1978 
L 2438 1953 
Q 2628 1875 2764 1729 
Q 2900 1584 3066 1278 
L 3347 766 
Q 3469 541 3556 422 
Q 3644 303 3734 240 
Q 3825 178 3975 153 
L 3975 0 
L 3109 0 
Q 2991 166 2884 356 
Q 2778 547 2675 744 
L 2400 1266 
Q 2275 1503 2195 1615 
Q 2116 1728 2048 1773 
Q 1981 1819 1904 1836 
Q 1828 1853 1675 1853 
L 1331 1853 
z
M 1331 3978 
L 1331 2122 
L 1684 2122 
Q 1956 2122 2125 2161 
Q 2294 2200 2437 2309 
Q 2581 2419 2667 2614 
Q 2753 2809 2753 3094 
Q 2753 3391 2651 3587 
Q 2550 3784 2344 3887 
Q 2138 3991 1788 3991 
Q 1506 3991 1331 3978 
z
" transform="scale(0.015625)"/>
       <path id="Cambria-43" d="M 3256 4175 
L 3256 3309 
L 2947 3309 
Q 2872 3581 2756 3742 
Q 2641 3903 2487 3972 
Q 2334 4041 2119 4041 
Q 1797 4041 1545 3827 
Q 1294 3613 1150 3183 
Q 1006 2753 1006 2144 
Q 1006 1531 1125 1098 
Q 1244 666 1475 445 
Q 1706 225 2044 225 
Q 2300 225 2462 298 
Q 2625 372 2736 531 
Q 2847 691 2947 1000 
L 3256 1000 
L 3256 106 
Q 2963 28 2655 -11 
Q 2347 -50 1978 -50 
Q 1184 -50 778 487 
Q 372 1025 372 2091 
Q 372 2759 583 3262 
Q 794 3766 1203 4041 
Q 1613 4316 2181 4316 
Q 2466 4316 2706 4286 
Q 2947 4256 3256 4175 
z
" transform="scale(0.015625)"/>
       <path id="Cambria-20" transform="scale(0.015625)"/>
       <path id="Cambria-53" d="M 663 972 
Q 725 697 831 537 
Q 938 378 1106 301 
Q 1275 225 1541 225 
Q 1906 225 2101 415 
Q 2297 606 2297 972 
Q 2297 1206 2215 1365 
Q 2134 1525 1950 1665 
Q 1766 1806 1388 1994 
Q 1022 2175 809 2348 
Q 597 2522 492 2725 
Q 388 2928 388 3169 
Q 388 3519 552 3776 
Q 716 4034 1033 4175 
Q 1350 4316 1759 4316 
Q 1997 4316 2223 4291 
Q 2450 4266 2791 4178 
L 2791 3334 
L 2481 3334 
Q 2409 3609 2300 3762 
Q 2191 3916 2044 3977 
Q 1897 4038 1663 4038 
Q 1459 4038 1298 3963 
Q 1138 3888 1044 3736 
Q 950 3584 950 3375 
Q 950 3153 1029 3000 
Q 1109 2847 1278 2715 
Q 1447 2584 1778 2422 
Q 2178 2222 2398 2050 
Q 2619 1878 2742 1658 
Q 2866 1438 2866 1144 
Q 2866 816 2762 589 
Q 2659 363 2476 220 
Q 2294 78 2039 14 
Q 1784 -50 1481 -50 
Q 991 -50 350 116 
L 350 972 
L 663 972 
z
" transform="scale(0.015625)"/>
       <path id="Cambria-63" d="M 2631 2916 
L 2631 2263 
L 2234 2263 
Q 2181 2466 2103 2583 
Q 2025 2700 1922 2747 
Q 1819 2794 1666 2794 
Q 1447 2794 1278 2653 
Q 1109 2513 1011 2225 
Q 913 1938 913 1522 
Q 913 1256 950 1036 
Q 988 816 1078 659 
Q 1169 503 1319 415 
Q 1469 328 1691 328 
Q 1906 328 2092 412 
Q 2278 497 2478 709 
L 2656 503 
Q 2497 328 2375 233 
Q 2253 138 2114 73 
Q 1975 9 1839 -20 
Q 1703 -50 1544 -50 
Q 953 -50 640 342 
Q 328 734 328 1475 
Q 328 1938 503 2295 
Q 678 2653 993 2847 
Q 1309 3041 1722 3041 
Q 1978 3041 2195 3011 
Q 2413 2981 2631 2916 
z
" transform="scale(0.015625)"/>
       <path id="Cambria-6f" d="M 1663 -50 
Q 1013 -50 670 333 
Q 328 716 328 1466 
Q 328 1981 508 2337 
Q 688 2694 1000 2867 
Q 1313 3041 1713 3041 
Q 2381 3041 2725 2652 
Q 3069 2263 3069 1534 
Q 3069 1016 2897 659 
Q 2725 303 2409 126 
Q 2094 -50 1663 -50 
z
M 919 1531 
Q 919 888 1123 542 
Q 1328 197 1709 197 
Q 1919 197 2066 298 
Q 2213 400 2305 572 
Q 2397 744 2437 970 
Q 2478 1197 2478 1444 
Q 2478 1903 2376 2206 
Q 2275 2509 2100 2651 
Q 1925 2794 1700 2794 
Q 1322 2794 1120 2466 
Q 919 2138 919 1531 
z
" transform="scale(0.015625)"/>
       <path id="Cambria-72" d="M 1147 2469 
L 1191 2459 
Q 1363 2669 1509 2789 
Q 1656 2909 1826 2975 
Q 1997 3041 2213 3041 
Q 2394 3041 2541 3022 
L 2541 2303 
L 2188 2303 
Q 2113 2472 2028 2548 
Q 1944 2625 1797 2625 
Q 1684 2625 1573 2559 
Q 1463 2494 1359 2369 
Q 1256 2244 1217 2134 
Q 1178 2025 1178 1875 
L 1178 781 
Q 1178 497 1212 389 
Q 1247 281 1326 231 
Q 1406 181 1566 153 
L 1566 0 
L 306 0 
L 306 153 
Q 425 191 476 219 
Q 528 247 565 297 
Q 603 347 622 450 
Q 641 553 641 772 
L 641 2134 
Q 641 2334 634 2456 
Q 628 2578 590 2651 
Q 553 2725 476 2761 
Q 400 2797 259 2822 
L 259 2984 
L 991 3016 
L 1181 3016 
L 1147 2469 
z
" transform="scale(0.015625)"/>
       <path id="Cambria-65" d="M 2800 531 
Q 2600 322 2433 203 
Q 2266 84 2066 17 
Q 1866 -50 1625 -50 
Q 981 -50 653 336 
Q 325 722 325 1475 
Q 325 1941 492 2297 
Q 659 2653 968 2847 
Q 1278 3041 1681 3041 
Q 1997 3041 2219 2941 
Q 2441 2841 2573 2667 
Q 2706 2494 2779 2230 
Q 2853 1966 2863 1541 
L 894 1541 
L 894 1484 
Q 894 1116 976 864 
Q 1059 613 1248 470 
Q 1438 328 1741 328 
Q 1997 328 2201 423 
Q 2406 519 2609 734 
L 2800 531 
z
M 2275 1800 
Q 2256 2138 2190 2352 
Q 2125 2566 1994 2680 
Q 1863 2794 1650 2794 
Q 1328 2794 1136 2536 
Q 944 2278 909 1800 
L 2275 1800 
z
" transform="scale(0.015625)"/>
      </defs>
      <use xlink:href="#Cambria-52"/>
      <use xlink:href="#Cambria-43" x="60.109375"/>
      <use xlink:href="#Cambria-20" x="116.359375"/>
      <use xlink:href="#Cambria-53" x="138.380859"/>
      <use xlink:href="#Cambria-63" x="187.990234"/>
      <use xlink:href="#Cambria-6f" x="232.082031"/>
      <use xlink:href="#Cambria-72" x="285.158203"/>
      <use xlink:href="#Cambria-65" x="326.515625"/>
     </g>
    </g>
   </g>
   <g id="matplotlib.axis_2">
    <g id="ytick_1">
     <g id="line2d_7">
      <defs>
       <path id="m1590af5492" d="M 0 0 
L -3.5 0 
" style="stroke: #000000; stroke-width: 0.8"/>
      </defs>
      <g>
       <use xlink:href="#m1590af5492" x="52.51875" y="373.48" style="stroke: #000000; stroke-width: 0.8"/>
      </g>
     </g>
     <g id="text_8">
      <!-- 0 -->
      <g transform="translate(38.32 378.021875) scale(0.13 -0.13)">
       <use xlink:href="#Cambria-30"/>
      </g>
     </g>
    </g>
    <g id="ytick_2">
     <g id="line2d_8">
      <g>
       <use xlink:href="#m1590af5492" x="52.51875" y="301.702614" style="stroke: #000000; stroke-width: 0.8"/>
      </g>
     </g>
     <g id="text_9">
      <!-- 100 -->
      <g transform="translate(23.9225 306.244489) scale(0.13 -0.13)">
       <use xlink:href="#Cambria-31"/>
       <use xlink:href="#Cambria-30" x="55.371094"/>
       <use xlink:href="#Cambria-30" x="110.742188"/>
      </g>
     </g>
    </g>
    <g id="ytick_3">
     <g id="line2d_9">
      <g>
       <use xlink:href="#m1590af5492" x="52.51875" y="229.925228" style="stroke: #000000; stroke-width: 0.8"/>
      </g>
     </g>
     <g id="text_10">
      <!-- 200 -->
      <g transform="translate(23.9225 234.467103) scale(0.13 -0.13)">
       <use xlink:href="#Cambria-32"/>
       <use xlink:href="#Cambria-30" x="55.371094"/>
       <use xlink:href="#Cambria-30" x="110.742188"/>
      </g>
     </g>
    </g>
    <g id="ytick_4">
     <g id="line2d_10">
      <g>
       <use xlink:href="#m1590af5492" x="52.51875" y="158.147842" style="stroke: #000000; stroke-width: 0.8"/>
      </g>
     </g>
     <g id="text_11">
      <!-- 300 -->
      <g transform="translate(23.9225 162.689717) scale(0.13 -0.13)">
       <defs>
        <path id="Cambria-33" d="M 497 3381 
L 497 3975 
Q 859 4147 1175 4231 
Q 1491 4316 1784 4316 
Q 2138 4316 2403 4206 
Q 2669 4097 2809 3892 
Q 2950 3688 2950 3403 
Q 2950 3138 2844 2936 
Q 2738 2734 2545 2584 
Q 2353 2434 2047 2291 
L 2047 2263 
Q 2238 2228 2414 2145 
Q 2591 2063 2728 1931 
Q 2866 1800 2948 1617 
Q 3031 1434 3031 1200 
Q 3031 838 2873 556 
Q 2716 275 2391 112 
Q 2066 -50 1600 -50 
Q 1331 -50 1020 11 
Q 709 72 450 172 
L 450 834 
L 825 834 
Q 934 509 1114 362 
Q 1294 216 1603 216 
Q 2009 216 2217 437 
Q 2425 659 2425 1094 
Q 2425 1550 2150 1790 
Q 1875 2031 1344 2031 
L 1063 2031 
L 1063 2306 
Q 1484 2331 1773 2468 
Q 2063 2606 2203 2822 
Q 2344 3038 2344 3306 
Q 2344 3653 2159 3840 
Q 1975 4028 1622 4028 
Q 1328 4028 1143 3868 
Q 959 3709 872 3381 
L 497 3381 
z
" transform="scale(0.015625)"/>
       </defs>
       <use xlink:href="#Cambria-33"/>
       <use xlink:href="#Cambria-30" x="55.371094"/>
       <use xlink:href="#Cambria-30" x="110.742188"/>
      </g>
     </g>
    </g>
    <g id="ytick_5">
     <g id="line2d_11">
      <g>
       <use xlink:href="#m1590af5492" x="52.51875" y="86.370457" style="stroke: #000000; stroke-width: 0.8"/>
      </g>
     </g>
     <g id="text_12">
      <!-- 400 -->
      <g transform="translate(23.9225 90.912332) scale(0.13 -0.13)">
       <use xlink:href="#Cambria-34"/>
       <use xlink:href="#Cambria-30" x="55.371094"/>
       <use xlink:href="#Cambria-30" x="110.742188"/>
      </g>
     </g>
    </g>
    <g id="ytick_6">
     <g id="line2d_12">
      <g>
       <use xlink:href="#m1590af5492" x="52.51875" y="14.593071" style="stroke: #000000; stroke-width: 0.8"/>
      </g>
     </g>
     <g id="text_13">
      <!-- 500 -->
      <g transform="translate(23.9225 19.134946) scale(0.13 -0.13)">
       <defs>
        <path id="Cambria-35" d="M 469 172 
L 469 834 
L 847 834 
Q 941 516 1130 366 
Q 1319 216 1619 216 
Q 2034 216 2246 466 
Q 2459 716 2459 1213 
Q 2459 1544 2346 1761 
Q 2234 1978 2043 2075 
Q 1853 2172 1600 2172 
Q 1388 2172 1234 2145 
Q 1081 2119 906 2063 
L 656 2209 
L 656 4266 
L 2378 4266 
Q 2484 4266 2531 4283 
Q 2578 4300 2606 4336 
Q 2634 4372 2672 4472 
L 2916 4472 
L 2869 3747 
L 1072 3747 
L 1072 2375 
Q 1234 2444 1425 2478 
Q 1616 2513 1806 2513 
Q 2178 2513 2465 2361 
Q 2753 2209 2909 1929 
Q 3066 1650 3066 1281 
Q 3066 863 2891 563 
Q 2716 263 2384 106 
Q 2053 -50 1600 -50 
Q 1059 -50 469 172 
z
" transform="scale(0.015625)"/>
       </defs>
       <use xlink:href="#Cambria-35"/>
       <use xlink:href="#Cambria-30" x="55.371094"/>
       <use xlink:href="#Cambria-30" x="110.742188"/>
      </g>
     </g>
    </g>
    <g id="text_14">
     <!-- Density -->
     <g transform="translate(16.927813 213.141406) rotate(-90) scale(0.14 -0.14)">
      <defs>
       <path id="Cambria-44" d="M 375 0 
L 375 153 
Q 519 191 581 225 
Q 644 259 678 312 
Q 713 366 728 466 
Q 744 566 744 781 
L 744 3484 
Q 744 3703 728 3801 
Q 713 3900 677 3953 
Q 641 4006 581 4039 
Q 522 4072 375 4113 
L 375 4266 
L 1744 4266 
Q 2334 4266 2711 4136 
Q 3088 4006 3347 3753 
Q 3606 3500 3734 3123 
Q 3863 2747 3863 2225 
Q 3863 1697 3742 1295 
Q 3622 894 3391 622 
Q 3191 384 2900 231 
Q 2659 106 2343 53 
Q 2028 0 1506 0 
L 375 0 
z
M 1328 291 
Q 1453 278 1697 278 
Q 1959 278 2165 322 
Q 2372 366 2540 459 
Q 2709 553 2843 720 
Q 2978 888 3062 1105 
Q 3147 1322 3186 1587 
Q 3225 1853 3225 2169 
Q 3225 2803 3042 3211 
Q 2859 3619 2526 3806 
Q 2194 3994 1731 3994 
Q 1519 3994 1328 3981 
L 1328 291 
z
" transform="scale(0.015625)"/>
       <path id="Cambria-6e" d="M 3347 0 
L 2116 0 
L 2116 153 
Q 2238 191 2291 219 
Q 2344 247 2380 297 
Q 2416 347 2436 451 
Q 2456 556 2456 769 
L 2456 1588 
Q 2456 1806 2443 1984 
Q 2431 2163 2401 2277 
Q 2372 2391 2330 2455 
Q 2288 2519 2230 2564 
Q 2172 2609 2097 2636 
Q 2022 2663 1900 2663 
Q 1778 2663 1668 2614 
Q 1559 2566 1428 2447 
Q 1297 2328 1237 2212 
Q 1178 2097 1178 1947 
L 1178 781 
Q 1178 513 1203 408 
Q 1228 303 1298 248 
Q 1369 194 1528 153 
L 1528 0 
L 303 0 
L 303 153 
Q 425 191 476 219 
Q 528 247 564 297 
Q 600 347 620 450 
Q 641 553 641 772 
L 641 2134 
Q 641 2334 634 2456 
Q 628 2578 590 2651 
Q 553 2725 476 2761 
Q 400 2797 259 2822 
L 259 2988 
L 991 3016 
L 1181 3016 
L 1147 2506 
L 1191 2494 
Q 1422 2728 1564 2828 
Q 1706 2928 1851 2983 
Q 1997 3038 2159 3038 
Q 2328 3038 2461 2998 
Q 2594 2959 2695 2878 
Q 2797 2797 2862 2676 
Q 2928 2556 2961 2387 
Q 2994 2219 2994 1959 
L 2994 781 
Q 2994 566 3006 469 
Q 3019 372 3050 319 
Q 3081 266 3140 230 
Q 3200 194 3347 153 
L 3347 0 
z
" transform="scale(0.015625)"/>
       <path id="Cambria-73" d="M 2397 2303 
L 2097 2303 
Q 2028 2491 1934 2598 
Q 1841 2706 1722 2750 
Q 1603 2794 1431 2794 
Q 1181 2794 1032 2676 
Q 884 2559 884 2356 
Q 884 2213 943 2119 
Q 1003 2025 1128 1944 
Q 1253 1863 1569 1728 
Q 1888 1591 2061 1475 
Q 2234 1359 2332 1206 
Q 2431 1053 2431 841 
Q 2431 594 2347 425 
Q 2263 256 2109 150 
Q 1956 44 1745 -3 
Q 1534 -50 1284 -50 
Q 1022 -50 775 -11 
Q 528 28 294 91 
L 294 744 
L 600 744 
Q 684 456 850 326 
Q 1016 197 1306 197 
Q 1419 197 1526 220 
Q 1634 244 1718 298 
Q 1803 353 1853 447 
Q 1903 541 1903 681 
Q 1903 841 1840 941 
Q 1778 1041 1647 1123 
Q 1516 1206 1184 1347 
Q 900 1466 728 1578 
Q 556 1691 457 1844 
Q 359 1997 359 2206 
Q 359 2463 498 2652 
Q 638 2841 900 2941 
Q 1163 3041 1516 3041 
Q 1722 3041 1914 3020 
Q 2106 3000 2397 2941 
L 2397 2303 
z
" transform="scale(0.015625)"/>
       <path id="Cambria-69" d="M 1197 4213 
L 1197 3606 
L 622 3606 
L 622 4213 
L 1197 4213 
z
M 303 153 
Q 425 191 476 219 
Q 528 247 564 297 
Q 600 347 620 450 
Q 641 553 641 772 
L 641 2134 
Q 641 2334 634 2456 
Q 628 2578 590 2651 
Q 553 2725 476 2761 
Q 400 2797 259 2822 
L 259 2988 
L 988 3016 
L 1178 3016 
L 1178 781 
Q 1178 513 1203 408 
Q 1228 303 1298 248 
Q 1369 194 1528 153 
L 1528 0 
L 303 0 
L 303 153 
z
" transform="scale(0.015625)"/>
       <path id="Cambria-74" d="M 116 2831 
Q 272 2856 369 2918 
Q 466 2981 520 3079 
Q 575 3178 606 3326 
Q 638 3475 672 3759 
L 1116 3759 
L 1116 2988 
L 2125 2988 
L 2125 2672 
L 1116 2672 
L 1116 1281 
Q 1116 978 1141 798 
Q 1166 619 1234 517 
Q 1303 416 1390 372 
Q 1478 328 1616 328 
Q 1741 328 1850 379 
Q 1959 431 2066 528 
L 2206 359 
Q 1984 144 1786 47 
Q 1588 -50 1375 -50 
Q 972 -50 775 189 
Q 578 428 578 938 
L 578 2672 
L 116 2672 
L 116 2831 
z
" transform="scale(0.015625)"/>
       <path id="Cambria-79" d="M 1625 -256 
Q 1453 -644 1290 -884 
Q 1128 -1125 933 -1247 
Q 738 -1369 469 -1369 
Q 297 -1369 81 -1328 
L 81 -709 
L 359 -709 
Q 397 -838 453 -888 
Q 509 -938 616 -938 
Q 709 -938 782 -902 
Q 856 -866 936 -778 
Q 1016 -691 1123 -509 
Q 1231 -328 1366 -50 
L 491 2303 
Q 406 2531 354 2622 
Q 303 2713 243 2759 
Q 184 2806 63 2834 
L 63 2988 
L 1334 2988 
L 1334 2834 
Q 1188 2800 1128 2767 
Q 1069 2734 1041 2682 
Q 1013 2631 1013 2550 
Q 1013 2466 1033 2375 
Q 1053 2284 1097 2163 
L 1653 597 
L 2278 2097 
Q 2331 2222 2361 2326 
Q 2391 2431 2391 2522 
Q 2391 2656 2317 2725 
Q 2244 2794 2063 2834 
L 2063 2988 
L 3231 2988 
L 3231 2834 
Q 3109 2809 3043 2757 
Q 2978 2706 2912 2595 
Q 2847 2484 2756 2284 
L 1625 -256 
z
" transform="scale(0.015625)"/>
      </defs>
      <use xlink:href="#Cambria-44"/>
      <use xlink:href="#Cambria-65" x="66.162109"/>
      <use xlink:href="#Cambria-6e" x="114.941406"/>
      <use xlink:href="#Cambria-73" x="170.751953"/>
      <use xlink:href="#Cambria-69" x="213.720703"/>
      <use xlink:href="#Cambria-74" x="241.503906"/>
      <use xlink:href="#Cambria-79" x="275.341797"/>
     </g>
    </g>
   </g>
   <g id="line2d_13">
    <path d="M 81.841477 316.906743 
L 82.895587 310.279751 
L 83.949696 304.412297 
L 85.003805 299.515281 
L 86.057915 295.715297 
L 87.112024 293.048594 
L 88.166134 291.467904 
L 89.220243 290.859613 
L 90.274352 291.067053 
L 91.328462 291.915239 
L 92.382571 293.232875 
L 94.49079 296.701999 
L 98.707227 304.694106 
L 102.923665 313.136903 
L 106.085993 320.023424 
L 111.35654 331.722369 
L 113.464759 335.935738 
L 115.572978 339.704033 
L 117.681196 343.023266 
L 119.789415 345.944543 
L 121.897634 348.540815 
L 125.059962 351.968716 
L 128.22229 354.981333 
L 135.601056 361.74209 
L 138.763384 364.716313 
L 140.871603 366.459298 
L 142.979822 367.907305 
L 145.08804 369.075434 
L 147.196259 370.02443 
L 149.304478 370.798805 
L 151.412697 371.407985 
L 153.520915 371.850446 
L 156.683244 372.239643 
L 160.899681 372.424247 
L 166.170228 372.358871 
L 174.603103 372.119228 
L 178.819541 372.269995 
L 184.090088 372.757244 
L 189.360634 373.242784 
L 193.577072 373.423331 
L 200.955838 373.466581 
L 207.280494 373.33439 
L 219.929807 372.811356 
L 262.094182 373.292137 
L 271.581166 373.138414 
L 291.609245 373.262726 
L 291.609245 373.262726 
" clip-path="url(#p1bbed0875c)" style="fill: none; stroke: #440154; stroke-width: 1.5; stroke-linecap: square"/>
   </g>
   <g id="line2d_14">
    <path d="M 267.569693 373.294045 
L 290.694284 373.046114 
L 302.25658 372.68952 
L 313.818876 372.08124 
L 329.23527 371.005276 
L 346.578714 369.619984 
L 356.213961 368.639279 
L 363.922158 367.652045 
L 371.630355 366.461061 
L 381.265602 364.732124 
L 404.390193 360.215576 
L 414.02544 358.218817 
L 421.733637 356.41571 
L 441.00413 351.657433 
L 448.712327 350.128111 
L 458.347574 348.51324 
L 479.545116 345.263618 
L 491.107412 343.629949 
L 496.888559 342.958563 
L 502.669707 342.506307 
L 506.523806 342.373285 
L 510.377905 342.394828 
L 514.232003 342.572717 
L 520.013151 343.104599 
L 525.794299 343.886795 
L 533.502496 345.189732 
L 541.210693 346.703149 
L 550.84594 348.847261 
L 568.189384 353.050939 
L 581.678729 356.475422 
L 591.313975 359.181838 
L 606.73037 363.589947 
L 614.438567 365.509809 
L 622.146764 367.152874 
L 629.854961 368.568425 
L 639.490208 370.113078 
L 649.125454 371.415544 
L 651.052503 371.639832 
L 651.052503 371.639832 
" clip-path="url(#p1bbed0875c)" style="fill: none; stroke: #21918c; stroke-width: 1.5; stroke-linecap: square"/>
   </g>
   <g id="line2d_15">
    <path d="M 620.177815 372.998641 
L 621.145015 372.947826 
L 622.354015 373.134907 
L 624.046615 373.415928 
L 626.222816 373.478913 
L 630.333416 373.397275 
L 632.267817 373.075524 
L 633.960417 372.901285 
L 636.862017 372.889017 
L 640.489018 373.012183 
L 643.390618 372.718693 
L 645.083219 372.122436 
L 647.017619 371.295011 
L 648.226619 370.78675 
L 649.193819 370.661051 
L 650.88642 370.535204 
L 652.57902 370.146678 
L 653.30442 369.782052 
L 654.02982 369.136552 
L 654.75522 368.167653 
L 658.865821 361.534298 
L 659.591221 359.483337 
L 660.800221 355.03512 
L 662.734622 347.585512 
L 663.218222 344.857788 
L 663.701822 341.143519 
L 664.185422 336.046772 
L 664.669022 329.116485 
L 665.394422 314.302864 
L 666.361622 286.663547 
L 667.087023 266.711058 
L 667.570623 259.568573 
L 667.812423 259.01491 
L 668.054223 260.768703 
L 668.296023 264.853746 
L 668.296023 264.853746 
" clip-path="url(#p1bbed0875c)" style="fill: none; stroke: #fde725; stroke-width: 1.5; stroke-linecap: square"/>
   </g>
   <g id="patch_3">
    <path d="M 52.51875 373.48 
L 52.51875 7.2 
" style="fill: none; stroke: #000000; stroke-width: 0.8; stroke-linejoin: miter; stroke-linecap: square"/>
   </g>
   <g id="patch_4">
    <path d="M 52.51875 373.48 
L 697.61875 373.48 
" style="fill: none; stroke: #000000; stroke-width: 0.8; stroke-linejoin: miter; stroke-linecap: square"/>
   </g>
   <g id="legend_1">
    <g id="patch_5">
     <path d="M 586.65625 86.2825 
L 689.21875 86.2825 
Q 691.61875 86.2825 691.61875 83.8825 
L 691.61875 15.6 
Q 691.61875 13.2 689.21875 13.2 
L 586.65625 13.2 
Q 584.25625 13.2 584.25625 15.6 
L 584.25625 83.8825 
Q 584.25625 86.2825 586.65625 86.2825 
z
" style="fill: #ffffff; opacity: 0.8; stroke: #cccccc; stroke-linejoin: miter"/>
    </g>
    <g id="text_15">
     <!-- Alternatives -->
     <g transform="translate(601.407344 27.7825) scale(0.14 -0.14)">
      <defs>
       <path id="Cambria-41" d="M 2488 0 
L 2488 153 
Q 2644 184 2720 221 
Q 2797 259 2834 326 
Q 2872 394 2872 506 
Q 2872 613 2847 736 
Q 2822 859 2775 1013 
L 2659 1416 
L 1203 1416 
L 1097 1109 
Q 1016 878 991 759 
Q 966 641 966 544 
Q 966 356 1061 268 
Q 1156 181 1353 153 
L 1353 0 
L 19 0 
L 19 153 
Q 194 181 323 356 
Q 453 531 575 856 
L 1878 4316 
L 2372 4316 
L 3434 831 
Q 3509 588 3567 459 
Q 3625 331 3706 259 
Q 3788 188 3928 153 
L 3928 0 
L 2488 0 
z
M 1288 1688 
L 2594 1688 
L 2000 3703 
L 1288 1688 
z
" transform="scale(0.015625)"/>
       <path id="Cambria-6c" d="M 1138 781 
Q 1138 513 1163 408 
Q 1188 303 1258 248 
Q 1328 194 1488 153 
L 1488 0 
L 247 0 
L 247 153 
Q 403 194 464 237 
Q 525 281 551 342 
Q 578 403 589 508 
Q 600 613 600 781 
L 600 3397 
Q 600 3697 595 3815 
Q 591 3934 570 4017 
Q 550 4100 514 4147 
Q 478 4194 417 4222 
Q 356 4250 197 4278 
L 197 4441 
L 950 4472 
L 1138 4472 
L 1138 781 
z
" transform="scale(0.015625)"/>
       <path id="Cambria-61" d="M 2109 447 
L 2063 459 
Q 1791 181 1552 65 
Q 1313 -50 1044 -50 
Q 806 -50 625 42 
Q 444 134 347 301 
Q 250 469 250 688 
Q 250 1144 701 1392 
Q 1153 1641 2056 1681 
L 2056 1884 
Q 2056 2209 1993 2396 
Q 1931 2584 1797 2671 
Q 1663 2759 1438 2759 
Q 1194 2759 1045 2631 
Q 897 2503 822 2247 
L 413 2247 
L 413 2653 
Q 713 2809 913 2882 
Q 1113 2956 1313 2998 
Q 1513 3041 1719 3041 
Q 2028 3041 2215 2942 
Q 2403 2844 2497 2641 
Q 2591 2438 2591 2028 
L 2591 941 
Q 2591 709 2594 614 
Q 2597 519 2612 437 
Q 2628 356 2659 307 
Q 2691 259 2752 225 
Q 2813 191 2950 153 
L 2950 0 
L 2094 0 
L 2109 447 
z
M 2056 1425 
Q 1422 1419 1106 1256 
Q 791 1094 791 766 
Q 791 588 862 484 
Q 934 381 1043 342 
Q 1153 303 1303 303 
Q 1516 303 1689 406 
Q 1863 509 1959 668 
Q 2056 828 2056 984 
L 2056 1425 
z
" transform="scale(0.015625)"/>
       <path id="Cambria-76" d="M 1334 2988 
L 1334 2834 
Q 1191 2800 1131 2769 
Q 1072 2738 1042 2688 
Q 1013 2638 1013 2553 
Q 1013 2469 1033 2376 
Q 1053 2284 1097 2163 
L 1641 581 
L 2278 2097 
Q 2341 2247 2366 2344 
Q 2391 2441 2391 2525 
Q 2391 2656 2320 2725 
Q 2250 2794 2063 2834 
L 2063 2988 
L 3231 2988 
L 3231 2834 
Q 3109 2809 3043 2757 
Q 2978 2706 2912 2595 
Q 2847 2484 2756 2284 
L 1703 -31 
L 1334 -31 
L 488 2303 
Q 400 2544 348 2633 
Q 297 2722 236 2765 
Q 175 2809 59 2834 
L 59 2988 
L 1334 2988 
z
" transform="scale(0.015625)"/>
      </defs>
      <use xlink:href="#Cambria-41"/>
      <use xlink:href="#Cambria-6c" x="62.304688"/>
      <use xlink:href="#Cambria-74" x="89.453125"/>
      <use xlink:href="#Cambria-65" x="123.291016"/>
      <use xlink:href="#Cambria-72" x="172.070312"/>
      <use xlink:href="#Cambria-6e" x="213.427734"/>
      <use xlink:href="#Cambria-61" x="269.238281"/>
      <use xlink:href="#Cambria-74" x="318.066406"/>
      <use xlink:href="#Cambria-69" x="351.904297"/>
      <use xlink:href="#Cambria-76" x="379.6875"/>
      <use xlink:href="#Cambria-65" x="430.078125"/>
      <use xlink:href="#Cambria-73" x="478.857422"/>
     </g>
    </g>
    <g id="patch_6">
     <path d="M 589.05625 45.1225 
L 613.05625 45.1225 
L 613.05625 36.7225 
L 589.05625 36.7225 
z
" style="fill: #440154; fill-opacity: 0.5; stroke: #440154; stroke-linejoin: miter"/>
    </g>
    <g id="text_16">
     <!-- Treatment A -->
     <g transform="translate(622.65625 45.1225) scale(0.12 -0.12)">
      <defs>
       <path id="Cambria-54" d="M 206 4266 
L 3588 4266 
L 3588 3178 
L 3281 3178 
Q 3213 3447 3145 3603 
Q 3078 3759 3003 3840 
Q 2928 3922 2842 3956 
Q 2756 3991 2584 3991 
L 2188 3991 
L 2188 791 
Q 2188 606 2208 497 
Q 2228 388 2270 323 
Q 2313 259 2384 223 
Q 2456 188 2609 153 
L 2609 0 
L 1181 0 
L 1181 153 
Q 1275 175 1347 200 
Q 1419 225 1464 261 
Q 1509 297 1539 353 
Q 1569 409 1586 506 
Q 1603 603 1603 791 
L 1603 3991 
L 1209 3991 
Q 1063 3991 967 3962 
Q 872 3934 790 3845 
Q 709 3756 642 3592 
Q 575 3428 516 3178 
L 206 3178 
L 206 4266 
z
" transform="scale(0.015625)"/>
       <path id="Cambria-6d" d="M 1147 2506 
L 1191 2494 
Q 1378 2681 1498 2776 
Q 1619 2872 1731 2930 
Q 1844 2988 1942 3013 
Q 2041 3038 2144 3038 
Q 2456 3038 2653 2894 
Q 2850 2750 2925 2453 
Q 3159 2691 3304 2803 
Q 3450 2916 3601 2977 
Q 3753 3038 3928 3038 
Q 4138 3038 4289 2977 
Q 4441 2916 4545 2789 
Q 4650 2663 4698 2472 
Q 4747 2281 4747 1959 
L 4747 781 
Q 4747 544 4762 453 
Q 4778 363 4808 313 
Q 4838 263 4897 227 
Q 4956 191 5097 153 
L 5097 0 
L 3869 0 
L 3869 153 
Q 3991 191 4044 219 
Q 4097 247 4133 297 
Q 4169 347 4189 451 
Q 4209 556 4209 769 
L 4209 1588 
Q 4209 1853 4195 2026 
Q 4181 2200 4151 2303 
Q 4122 2406 4080 2465 
Q 4038 2525 3984 2569 
Q 3931 2613 3859 2638 
Q 3788 2663 3669 2663 
Q 3544 2663 3436 2613 
Q 3328 2563 3201 2444 
Q 3075 2325 3019 2204 
Q 2963 2084 2963 1922 
L 2963 781 
Q 2963 544 2978 453 
Q 2994 363 3023 313 
Q 3053 263 3112 227 
Q 3172 191 3313 153 
L 3313 0 
L 2084 0 
L 2084 153 
Q 2206 191 2259 219 
Q 2313 247 2348 297 
Q 2384 347 2404 451 
Q 2425 556 2425 769 
L 2425 1588 
Q 2425 1866 2409 2041 
Q 2394 2216 2361 2322 
Q 2328 2428 2276 2493 
Q 2225 2559 2172 2593 
Q 2119 2628 2047 2645 
Q 1975 2663 1884 2663 
Q 1756 2663 1643 2605 
Q 1531 2547 1414 2437 
Q 1297 2328 1237 2209 
Q 1178 2091 1178 1953 
L 1178 781 
Q 1178 603 1187 509 
Q 1197 416 1217 362 
Q 1238 309 1269 276 
Q 1300 244 1358 214 
Q 1416 184 1531 153 
L 1531 0 
L 306 0 
L 306 153 
Q 425 191 476 219 
Q 528 247 565 297 
Q 603 347 622 450 
Q 641 553 641 772 
L 641 2134 
Q 641 2334 634 2456 
Q 628 2578 590 2651 
Q 553 2725 476 2761 
Q 400 2797 259 2822 
L 259 2988 
L 991 3016 
L 1181 3016 
L 1147 2506 
z
" transform="scale(0.015625)"/>
      </defs>
      <use xlink:href="#Cambria-54"/>
      <use xlink:href="#Cambria-72" x="55.902344"/>
      <use xlink:href="#Cambria-65" x="97.259766"/>
      <use xlink:href="#Cambria-61" x="146.039062"/>
      <use xlink:href="#Cambria-74" x="194.867188"/>
      <use xlink:href="#Cambria-6d" x="228.705078"/>
      <use xlink:href="#Cambria-65" x="311.908203"/>
      <use xlink:href="#Cambria-6e" x="360.6875"/>
      <use xlink:href="#Cambria-74" x="416.498047"/>
      <use xlink:href="#Cambria-20" x="450.335938"/>
      <use xlink:href="#Cambria-41" x="472.357422"/>
     </g>
    </g>
    <g id="patch_7">
     <path d="M 589.05625 62.0425 
L 613.05625 62.0425 
L 613.05625 53.6425 
L 589.05625 53.6425 
z
" style="fill: #21918c; fill-opacity: 0.5; stroke: #21918c; stroke-linejoin: miter"/>
    </g>
    <g id="text_17">
     <!-- Treatment B -->
     <g transform="translate(622.65625 62.0425) scale(0.12 -0.12)">
      <defs>
       <path id="Cambria-42" d="M 378 0 
L 378 153 
Q 572 203 637 264 
Q 703 325 723 437 
Q 744 550 744 781 
L 744 3484 
Q 744 3700 728 3798 
Q 713 3897 677 3951 
Q 641 4006 581 4039 
Q 522 4072 378 4113 
L 378 4266 
L 2088 4266 
Q 2584 4266 2886 4159 
Q 3188 4053 3334 3845 
Q 3481 3638 3481 3309 
Q 3481 3038 3376 2838 
Q 3272 2638 3103 2506 
Q 2934 2375 2669 2263 
L 2669 2234 
Q 3094 2106 3312 1839 
Q 3531 1572 3531 1203 
Q 3531 778 3342 509 
Q 3153 241 2812 120 
Q 2472 0 1988 0 
L 378 0 
z
M 1875 2353 
Q 2350 2353 2601 2583 
Q 2853 2813 2853 3250 
Q 2853 3466 2783 3608 
Q 2713 3750 2589 3834 
Q 2466 3919 2297 3955 
Q 2128 3991 1931 3991 
Q 1813 3991 1619 3984 
Q 1425 3978 1328 3972 
L 1328 2353 
L 1875 2353 
z
M 1328 297 
Q 1556 275 1838 275 
Q 2247 275 2473 378 
Q 2700 481 2801 682 
Q 2903 884 2903 1188 
Q 2903 1491 2792 1687 
Q 2681 1884 2450 1981 
Q 2219 2078 1813 2078 
L 1328 2078 
L 1328 297 
z
" transform="scale(0.015625)"/>
      </defs>
      <use xlink:href="#Cambria-54"/>
      <use xlink:href="#Cambria-72" x="55.902344"/>
      <use xlink:href="#Cambria-65" x="97.259766"/>
      <use xlink:href="#Cambria-61" x="146.039062"/>
      <use xlink:href="#Cambria-74" x="194.867188"/>
      <use xlink:href="#Cambria-6d" x="228.705078"/>
      <use xlink:href="#Cambria-65" x="311.908203"/>
      <use xlink:href="#Cambria-6e" x="360.6875"/>
      <use xlink:href="#Cambria-74" x="416.498047"/>
      <use xlink:href="#Cambria-20" x="450.335938"/>
      <use xlink:href="#Cambria-42" x="472.357422"/>
     </g>
    </g>
    <g id="patch_8">
     <path d="M 589.05625 78.9625 
L 613.05625 78.9625 
L 613.05625 70.5625 
L 589.05625 70.5625 
z
" style="fill: #fde725; fill-opacity: 0.5; stroke: #fde725; stroke-linejoin: miter"/>
    </g>
    <g id="text_18">
     <!-- Treatment C -->
     <g transform="translate(622.65625 78.9625) scale(0.12 -0.12)">
      <use xlink:href="#Cambria-54"/>
      <use xlink:href="#Cambria-72" x="55.902344"/>
      <use xlink:href="#Cambria-65" x="97.259766"/>
      <use xlink:href="#Cambria-61" x="146.039062"/>
      <use xlink:href="#Cambria-74" x="194.867188"/>
      <use xlink:href="#Cambria-6d" x="228.705078"/>
      <use xlink:href="#Cambria-65" x="311.908203"/>
      <use xlink:href="#Cambria-6e" x="360.6875"/>
      <use xlink:href="#Cambria-74" x="416.498047"/>
      <use xlink:href="#Cambria-20" x="450.335938"/>
      <use xlink:href="#Cambria-43" x="472.357422"/>
     </g>
    </g>
   </g>
  </g>
 </g>
 <defs>
  <clipPath id="p1bbed0875c">
   <rect x="52.51875" y="7.2" width="645.1" height="366.28"/>
  </clipPath>
 </defs>
</svg>
