<?xml version="1.0" encoding="utf-8" standalone="no"?>
<!DOCTYPE svg PUBLIC "-//W3C//DTD SVG 1.1//EN"
  "http://www.w3.org/Graphics/SVG/1.1/DTD/svg11.dtd">
<svg xmlns:xlink="http://www.w3.org/1999/xlink" width="848.751719pt" height="488.275312pt" viewBox="0 0 848.751719 488.275312" xmlns="http://www.w3.org/2000/svg" version="1.1">
 <metadata>
  <rdf:RDF xmlns:dc="http://purl.org/dc/elements/1.1/" xmlns:cc="http://creativecommons.org/ns#" xmlns:rdf="http://www.w3.org/1999/02/22-rdf-syntax-ns#">
   <cc:Work>
    <dc:type rdf:resource="http://purl.org/dc/dcmitype/StillImage"/>
    <dc:date>2026-03-27T18:27:23.480980</dc:date>
    <dc:format>image/svg+xml</dc:format>
    <dc:creator>
     <cc:Agent>
      <dc:title>Matplotlib v3.8.2, https://matplotlib.org/</dc:title>
     </cc:Agent>
    </dc:creator>
   </cc:Work>
  </rdf:RDF>
 </metadata>
 <defs>
  <style type="text/css">*{stroke-linejoin: round; stroke-linecap: butt}</style>
 </defs>
 <g id="figure_1">
  <g id="patch_1">
   <path d="M 0 488.275312 
L 848.751719 488.275312 
L 848.751719 0 
L 0 0 
z
" style="fill: #ffffff"/>
  </g>
  <g id="axes_1">
   <g id="patch_2">
    <path d="M 48.041719 445.48 
L 841.551719 445.48 
L 841.551719 7.2 
L 48.041719 7.2 
z
" style="fill: #ffffff"/>
   </g>
   <g id="matplotlib.axis_1">
    <g id="xtick_1">
     <g id="line2d_1">
      <path d="M 84.110355 445.48 
L 84.110355 7.2 
" clip-path="url(#p020d0eea2e)" style="fill: none; stroke-dasharray: 2.96,1.28; stroke-dashoffset: 0; stroke: #b0b0b0; stroke-opacity: 0.5; stroke-width: 0.8"/>
     </g>
     <g id="line2d_2">
      <defs>
       <path id="m4dc13b946d" d="M 0 0 
L 0 3.5 
" style="stroke: #000000; stroke-width: 0.8"/>
      </defs>
      <g>
       <use xlink:href="#m4dc13b946d" x="84.110355" y="445.48" style="stroke: #000000; stroke-width: 0.8"/>
      </g>
     </g>
     <g id="text_1">
      <!-- 0.0 -->
      <g transform="translate(75.578089 461.56375) scale(0.13 -0.13)">
       <defs>
        <path id="Cambria-30" d="M 1738 -50 
Q 1063 -50 733 481 
Q 403 1013 403 2094 
Q 403 2669 504 3087 
Q 606 3506 789 3779 
Q 972 4053 1228 4184 
Q 1484 4316 1788 4316 
Q 2472 4316 2806 3787 
Q 3141 3259 3141 2191 
Q 3141 1084 2783 517 
Q 2425 -50 1738 -50 
z
M 1013 2188 
Q 1013 1169 1202 692 
Q 1391 216 1788 216 
Q 2166 216 2348 664 
Q 2531 1113 2531 2053 
Q 2531 2772 2437 3217 
Q 2344 3663 2176 3856 
Q 2009 4050 1772 4050 
Q 1556 4050 1411 3922 
Q 1266 3794 1177 3553 
Q 1088 3313 1050 2967 
Q 1013 2622 1013 2188 
z
" transform="scale(0.015625)"/>
        <path id="Cambria-2e" d="M 972 725 
L 972 0 
L 341 0 
L 341 725 
L 972 725 
z
" transform="scale(0.015625)"/>
       </defs>
       <use xlink:href="#Cambria-30"/>
       <use xlink:href="#Cambria-2e" x="55.371094"/>
       <use xlink:href="#Cambria-30" x="75.878906"/>
      </g>
     </g>
    </g>
    <g id="xtick_2">
     <g id="line2d_3">
      <path d="M 228.384901 445.48 
L 228.384901 7.2 
" clip-path="url(#p020d0eea2e)" style="fill: none; stroke-dasharray: 2.96,1.28; stroke-dashoffset: 0; stroke: #b0b0b0; stroke-opacity: 0.5; stroke-width: 0.8"/>
     </g>
     <g id="line2d_4">
      <g>
       <use xlink:href="#m4dc13b946d" x="228.384901" y="445.48" style="stroke: #000000; stroke-width: 0.8"/>
      </g>
     </g>
     <g id="text_2">
      <!-- 0.2 -->
      <g transform="translate(219.852635 461.56375) scale(0.13 -0.13)">
       <defs>
        <path id="Cambria-32" d="M 2194 500 
Q 2347 500 2440 519 
Q 2534 538 2590 581 
Q 2647 625 2680 695 
Q 2713 766 2763 913 
L 3028 913 
L 2975 0 
L 403 0 
L 403 150 
Q 538 478 766 822 
Q 994 1166 1413 1631 
Q 1775 2031 1934 2238 
Q 2109 2463 2195 2627 
Q 2281 2791 2318 2936 
Q 2356 3081 2356 3228 
Q 2356 3463 2281 3642 
Q 2206 3822 2051 3925 
Q 1897 4028 1663 4028 
Q 1078 4028 875 3378 
L 497 3378 
L 497 3978 
Q 875 4156 1204 4236 
Q 1534 4316 1797 4316 
Q 2378 4316 2675 4061 
Q 2972 3806 2972 3322 
Q 2972 3156 2939 3017 
Q 2906 2878 2836 2742 
Q 2766 2606 2647 2450 
Q 2528 2294 2384 2133 
Q 2241 1972 1888 1597 
Q 1294 969 1016 500 
L 2194 500 
z
" transform="scale(0.015625)"/>
       </defs>
       <use xlink:href="#Cambria-30"/>
       <use xlink:href="#Cambria-2e" x="55.371094"/>
       <use xlink:href="#Cambria-32" x="75.878906"/>
      </g>
     </g>
    </g>
    <g id="xtick_3">
     <g id="line2d_5">
      <path d="M 372.659446 445.48 
L 372.659446 7.2 
" clip-path="url(#p020d0eea2e)" style="fill: none; stroke-dasharray: 2.96,1.28; stroke-dashoffset: 0; stroke: #b0b0b0; stroke-opacity: 0.5; stroke-width: 0.8"/>
     </g>
     <g id="line2d_6">
      <g>
       <use xlink:href="#m4dc13b946d" x="372.659446" y="445.48" style="stroke: #000000; stroke-width: 0.8"/>
      </g>
     </g>
     <g id="text_3">
      <!-- 0.4 -->
      <g transform="translate(364.12718 461.56375) scale(0.13 -0.13)">
       <defs>
        <path id="Cambria-34" d="M 1613 153 
Q 1806 203 1872 264 
Q 1938 325 1958 437 
Q 1978 550 1978 781 
L 1978 1294 
L 241 1294 
L 241 1528 
L 2069 4288 
L 2516 4288 
L 2516 1597 
L 2581 1597 
Q 2763 1597 2841 1623 
Q 2919 1650 2970 1717 
Q 3022 1784 3066 1938 
L 3303 1938 
L 3266 1294 
L 2516 1294 
L 2516 781 
Q 2516 572 2530 475 
Q 2544 378 2576 322 
Q 2609 266 2673 228 
Q 2738 191 2881 153 
L 2881 0 
L 1613 0 
L 1613 153 
z
M 756 1597 
L 1978 1597 
L 1978 2375 
Q 1978 2669 1987 3033 
Q 1997 3397 2009 3581 
L 1978 3581 
L 756 1641 
L 756 1597 
z
" transform="scale(0.015625)"/>
       </defs>
       <use xlink:href="#Cambria-30"/>
       <use xlink:href="#Cambria-2e" x="55.371094"/>
       <use xlink:href="#Cambria-34" x="75.878906"/>
      </g>
     </g>
    </g>
    <g id="xtick_4">
     <g id="line2d_7">
      <path d="M 516.933991 445.48 
L 516.933991 7.2 
" clip-path="url(#p020d0eea2e)" style="fill: none; stroke-dasharray: 2.96,1.28; stroke-dashoffset: 0; stroke: #b0b0b0; stroke-opacity: 0.5; stroke-width: 0.8"/>
     </g>
     <g id="line2d_8">
      <g>
       <use xlink:href="#m4dc13b946d" x="516.933991" y="445.48" style="stroke: #000000; stroke-width: 0.8"/>
      </g>
     </g>
     <g id="text_4">
      <!-- 0.6 -->
      <g transform="translate(508.401726 461.56375) scale(0.13 -0.13)">
       <defs>
        <path id="Cambria-36" d="M 2847 4144 
L 2847 3991 
Q 2366 3991 1994 3784 
Q 1622 3578 1376 3178 
Q 1131 2778 1031 2228 
L 1063 2216 
Q 1325 2403 1579 2490 
Q 1834 2578 2131 2578 
Q 2484 2578 2732 2423 
Q 2981 2269 3106 1989 
Q 3231 1709 3231 1334 
Q 3231 928 3075 617 
Q 2919 306 2592 128 
Q 2266 -50 1788 -50 
Q 1103 -50 754 375 
Q 406 800 406 1628 
Q 406 2184 581 2668 
Q 756 3153 1078 3514 
Q 1400 3875 1825 4083 
Q 2250 4291 2719 4316 
L 2847 4144 
z
M 1916 2250 
Q 1763 2250 1620 2215 
Q 1478 2181 1353 2115 
Q 1228 2050 1109 1950 
Q 1072 1916 1053 1878 
Q 1022 1819 1012 1731 
Q 1003 1644 1003 1438 
Q 1003 841 1203 528 
Q 1403 216 1809 216 
Q 2044 216 2203 297 
Q 2363 378 2461 520 
Q 2559 663 2601 855 
Q 2644 1047 2644 1272 
Q 2644 1734 2453 1992 
Q 2263 2250 1916 2250 
z
" transform="scale(0.015625)"/>
       </defs>
       <use xlink:href="#Cambria-30"/>
       <use xlink:href="#Cambria-2e" x="55.371094"/>
       <use xlink:href="#Cambria-36" x="75.878906"/>
      </g>
     </g>
    </g>
    <g id="xtick_5">
     <g id="line2d_9">
      <path d="M 661.208537 445.48 
L 661.208537 7.2 
" clip-path="url(#p020d0eea2e)" style="fill: none; stroke-dasharray: 2.96,1.28; stroke-dashoffset: 0; stroke: #b0b0b0; stroke-opacity: 0.5; stroke-width: 0.8"/>
     </g>
     <g id="line2d_10">
      <g>
       <use xlink:href="#m4dc13b946d" x="661.208537" y="445.48" style="stroke: #000000; stroke-width: 0.8"/>
      </g>
     </g>
     <g id="text_5">
      <!-- 0.8 -->
      <g transform="translate(652.676271 461.56375) scale(0.13 -0.13)">
       <defs>
        <path id="Cambria-38" d="M 2475 2253 
L 2481 2213 
Q 2834 2075 3015 1811 
Q 3197 1547 3197 1175 
Q 3197 809 3022 531 
Q 2847 253 2514 101 
Q 2181 -50 1738 -50 
Q 1322 -50 1008 89 
Q 694 228 520 495 
Q 347 763 347 1125 
Q 347 1397 440 1597 
Q 534 1797 686 1926 
Q 838 2056 1069 2163 
L 1063 2203 
Q 391 2494 391 3200 
Q 391 3522 567 3775 
Q 744 4028 1070 4172 
Q 1397 4316 1794 4316 
Q 2244 4316 2550 4189 
Q 2856 4063 3011 3823 
Q 3166 3584 3166 3250 
Q 3166 2906 2997 2657 
Q 2828 2409 2475 2253 
z
M 978 3228 
Q 978 3044 1022 2881 
Q 1066 2719 1162 2600 
Q 1259 2481 1414 2411 
Q 1569 2341 1794 2341 
Q 2053 2341 2229 2442 
Q 2406 2544 2492 2739 
Q 2578 2934 2578 3191 
Q 2578 3472 2476 3667 
Q 2375 3863 2197 3956 
Q 2019 4050 1788 4050 
Q 1394 4050 1186 3836 
Q 978 3622 978 3228 
z
M 944 1178 
Q 944 975 991 798 
Q 1038 622 1139 494 
Q 1241 366 1400 291 
Q 1559 216 1788 216 
Q 2044 216 2226 320 
Q 2409 425 2504 631 
Q 2600 838 2600 1119 
Q 2600 1419 2497 1636 
Q 2394 1853 2206 1967 
Q 2019 2081 1772 2081 
Q 1541 2081 1383 2009 
Q 1225 1938 1126 1816 
Q 1028 1694 986 1530 
Q 944 1366 944 1178 
z
" transform="scale(0.015625)"/>
       </defs>
       <use xlink:href="#Cambria-30"/>
       <use xlink:href="#Cambria-2e" x="55.371094"/>
       <use xlink:href="#Cambria-38" x="75.878906"/>
      </g>
     </g>
    </g>
    <g id="xtick_6">
     <g id="line2d_11">
      <path d="M 805.483082 445.48 
L 805.483082 7.2 
" clip-path="url(#p020d0eea2e)" style="fill: none; stroke-dasharray: 2.96,1.28; stroke-dashoffset: 0; stroke: #b0b0b0; stroke-opacity: 0.5; stroke-width: 0.8"/>
     </g>
     <g id="line2d_12">
      <g>
       <use xlink:href="#m4dc13b946d" x="805.483082" y="445.48" style="stroke: #000000; stroke-width: 0.8"/>
      </g>
     </g>
     <g id="text_6">
      <!-- 1.0 -->
      <g transform="translate(796.950817 461.56375) scale(0.13 -0.13)">
       <defs>
        <path id="Cambria-31" d="M 2172 816 
Q 2172 634 2192 542 
Q 2213 450 2264 392 
Q 2316 334 2412 301 
Q 2509 269 2656 251 
Q 2803 234 3044 228 
L 3044 0 
L 734 0 
L 734 228 
Q 1081 244 1229 270 
Q 1378 297 1456 350 
Q 1534 403 1570 500 
Q 1606 597 1606 816 
L 1606 3350 
Q 1606 3475 1562 3533 
Q 1519 3591 1434 3591 
Q 1334 3591 1150 3487 
Q 966 3384 694 3203 
L 556 3444 
L 2019 4316 
L 2191 4316 
Q 2172 4016 2172 3484 
L 2172 816 
z
" transform="scale(0.015625)"/>
       </defs>
       <use xlink:href="#Cambria-31"/>
       <use xlink:href="#Cambria-2e" x="55.371094"/>
       <use xlink:href="#Cambria-30" x="75.878906"/>
      </g>
     </g>
    </g>
    <g id="text_7">
     <!-- Relative Closeness (RC) -->
     <g transform="translate(369.743594 478.1025) scale(0.14 -0.14)">
      <defs>
       <path id="Cambria-Bold-52" d="M 1941 0 
L 300 0 
L 300 206 
Q 416 238 483 273 
Q 550 309 583 373 
Q 616 438 625 536 
Q 634 634 634 784 
L 634 3478 
Q 634 3625 626 3725 
Q 619 3825 586 3887 
Q 553 3950 486 3989 
Q 419 4028 300 4059 
L 300 4266 
L 2122 4266 
Q 2491 4266 2748 4214 
Q 3006 4163 3200 4056 
Q 3363 3969 3475 3836 
Q 3588 3703 3648 3526 
Q 3709 3350 3709 3116 
Q 3709 2809 3601 2590 
Q 3494 2372 3311 2226 
Q 3128 2081 2822 1953 
L 2822 1922 
Q 3053 1822 3204 1655 
Q 3356 1488 3478 1231 
L 3675 806 
Q 3806 522 3936 380 
Q 4066 238 4244 206 
L 4244 0 
L 3041 0 
Q 2859 250 2631 744 
L 2388 1278 
Q 2278 1516 2200 1616 
Q 2122 1716 2039 1753 
Q 1956 1791 1784 1791 
L 1603 1791 
L 1603 784 
Q 1603 550 1625 456 
Q 1647 363 1709 306 
Q 1772 250 1941 206 
L 1941 0 
z
M 1603 3894 
L 1603 2156 
L 1913 2156 
Q 2163 2156 2325 2223 
Q 2488 2291 2583 2411 
Q 2678 2531 2714 2693 
Q 2750 2856 2750 3050 
Q 2750 3475 2550 3687 
Q 2350 3900 1956 3900 
Q 1688 3900 1603 3894 
z
" transform="scale(0.015625)"/>
       <path id="Cambria-Bold-65" d="M 3097 569 
Q 2778 231 2465 90 
Q 2153 -50 1747 -50 
Q 1019 -50 651 348 
Q 284 747 284 1531 
Q 284 2038 473 2405 
Q 663 2772 1009 2961 
Q 1356 3150 1816 3150 
Q 2100 3150 2314 3084 
Q 2528 3019 2681 2901 
Q 2834 2784 2934 2619 
Q 3053 2422 3113 2169 
Q 3175 1909 3178 1541 
L 1197 1541 
Q 1200 975 1398 708 
Q 1597 441 2003 441 
Q 2241 441 2431 530 
Q 2622 619 2844 844 
L 3097 569 
z
M 2253 1878 
Q 2241 2356 2128 2590 
Q 2016 2825 1766 2825 
Q 1525 2825 1383 2581 
Q 1241 2338 1213 1878 
L 2253 1878 
z
" transform="scale(0.015625)"/>
       <path id="Cambria-Bold-6c" d="M 1438 903 
Q 1438 606 1456 493 
Q 1475 381 1533 314 
Q 1591 247 1750 206 
L 1750 0 
L 219 0 
L 219 206 
Q 313 228 366 258 
Q 419 288 448 327 
Q 478 366 500 427 
Q 522 488 528 595 
Q 534 703 534 903 
L 534 3341 
Q 534 3609 529 3736 
Q 525 3863 511 3948 
Q 497 4034 464 4086 
Q 431 4138 372 4169 
Q 313 4200 181 4225 
L 181 4431 
L 1047 4475 
L 1438 4475 
L 1438 903 
z
" transform="scale(0.015625)"/>
       <path id="Cambria-Bold-61" d="M 2116 409 
L 2069 425 
Q 1813 175 1570 62 
Q 1328 -50 1056 -50 
Q 788 -50 589 48 
Q 391 147 289 322 
Q 188 497 188 725 
Q 188 1184 639 1448 
Q 1091 1713 2009 1781 
L 2009 2078 
Q 2009 2369 1943 2526 
Q 1878 2684 1775 2748 
Q 1672 2813 1528 2813 
Q 1384 2813 1279 2763 
Q 1175 2713 1090 2573 
Q 1006 2434 966 2188 
L 375 2188 
L 375 2756 
Q 663 2884 853 2953 
Q 1044 3022 1230 3067 
Q 1416 3113 1562 3131 
Q 1709 3150 1856 3150 
Q 2234 3150 2461 3050 
Q 2688 2950 2800 2725 
Q 2913 2500 2913 2103 
L 2913 884 
Q 2913 678 2922 565 
Q 2931 453 2951 398 
Q 2972 344 3003 311 
Q 3034 278 3079 258 
Q 3125 238 3250 206 
L 3250 0 
L 2088 0 
L 2116 409 
z
M 2013 1475 
Q 1528 1463 1295 1294 
Q 1063 1125 1063 800 
Q 1063 606 1169 504 
Q 1275 403 1463 403 
Q 1606 403 1734 479 
Q 1863 556 1938 684 
Q 2013 813 2013 956 
L 2013 1475 
z
" transform="scale(0.015625)"/>
       <path id="Cambria-Bold-74" d="M 2406 375 
Q 2131 141 1906 45 
Q 1681 -50 1431 -50 
Q 966 -50 736 201 
Q 506 453 506 963 
L 506 2709 
L 116 2709 
L 116 2925 
Q 306 2956 397 3018 
Q 488 3081 538 3186 
Q 588 3291 617 3459 
Q 647 3628 663 3881 
L 1409 3881 
L 1409 3100 
L 2300 3100 
L 2300 2709 
L 1409 2709 
L 1409 1300 
Q 1409 947 1442 778 
Q 1475 609 1553 529 
Q 1631 450 1747 450 
Q 1834 450 1903 465 
Q 1972 481 2048 522 
Q 2125 563 2209 638 
L 2406 375 
z
" transform="scale(0.015625)"/>
       <path id="Cambria-Bold-69" d="M 1453 4347 
L 1453 3581 
L 597 3581 
L 597 4347 
L 1453 4347 
z
M 266 206 
Q 419 247 476 312 
Q 534 378 554 490 
Q 575 603 575 900 
L 575 2353 
Q 575 2506 561 2600 
Q 547 2694 508 2750 
Q 469 2806 401 2836 
Q 334 2866 228 2888 
L 228 3100 
L 1088 3125 
L 1478 3125 
L 1478 903 
Q 1478 728 1483 633 
Q 1488 538 1497 486 
Q 1506 434 1523 393 
Q 1541 353 1569 318 
Q 1597 284 1650 256 
Q 1703 228 1791 206 
L 1791 0 
L 266 0 
L 266 206 
z
" transform="scale(0.015625)"/>
       <path id="Cambria-Bold-76" d="M 1619 3100 
L 1619 2894 
Q 1472 2866 1403 2809 
Q 1334 2753 1334 2641 
Q 1334 2491 1416 2250 
L 1866 884 
L 2363 2081 
Q 2425 2231 2456 2345 
Q 2488 2459 2488 2569 
Q 2488 2700 2413 2786 
Q 2338 2872 2200 2894 
L 2200 3100 
L 3416 3100 
L 3416 2891 
Q 3325 2863 3270 2822 
Q 3216 2781 3167 2715 
Q 3119 2650 3050 2520 
Q 2981 2391 2863 2128 
L 1888 -31 
L 1297 -31 
L 472 2347 
Q 388 2594 334 2686 
Q 281 2778 217 2826 
Q 153 2875 59 2894 
L 59 3100 
L 1619 3100 
z
" transform="scale(0.015625)"/>
       <path id="Cambria-Bold-20" transform="scale(0.015625)"/>
       <path id="Cambria-Bold-43" d="M 3403 4169 
L 3403 3263 
L 2978 3263 
Q 2903 3616 2740 3783 
Q 2578 3950 2316 3950 
Q 1822 3950 1569 3476 
Q 1316 3003 1316 2072 
Q 1316 1206 1547 761 
Q 1778 316 2225 316 
Q 2453 316 2597 392 
Q 2741 469 2827 622 
Q 2913 775 2975 1053 
L 3403 1053 
L 3403 106 
Q 3059 25 2775 -12 
Q 2491 -50 2184 -50 
Q 1534 -50 1123 184 
Q 713 419 517 892 
Q 322 1366 322 2091 
Q 322 2769 551 3270 
Q 781 3772 1228 4044 
Q 1675 4316 2297 4316 
Q 2613 4316 2869 4281 
Q 3125 4247 3403 4169 
z
" transform="scale(0.015625)"/>
       <path id="Cambria-Bold-6f" d="M 1784 -50 
Q 1325 -50 992 111 
Q 659 272 471 626 
Q 284 981 284 1528 
Q 284 1947 400 2253 
Q 516 2559 722 2759 
Q 928 2959 1214 3054 
Q 1500 3150 1834 3150 
Q 2591 3150 2975 2751 
Q 3359 2353 3359 1584 
Q 3359 1041 3168 673 
Q 2978 306 2625 128 
Q 2272 -50 1784 -50 
z
M 1234 1597 
Q 1234 934 1382 604 
Q 1531 275 1831 275 
Q 1997 275 2108 359 
Q 2219 444 2286 603 
Q 2353 763 2381 986 
Q 2409 1209 2409 1488 
Q 2409 2159 2261 2492 
Q 2113 2825 1822 2825 
Q 1609 2825 1481 2690 
Q 1353 2556 1293 2287 
Q 1234 2019 1234 1597 
z
" transform="scale(0.015625)"/>
       <path id="Cambria-Bold-73" d="M 672 844 
Q 747 559 909 417 
Q 1072 275 1344 275 
Q 1578 275 1698 381 
Q 1819 488 1819 691 
Q 1819 819 1764 909 
Q 1709 1000 1582 1083 
Q 1456 1166 1150 1300 
Q 978 1375 826 1465 
Q 675 1556 562 1670 
Q 450 1784 384 1925 
Q 319 2066 319 2238 
Q 319 2519 481 2725 
Q 644 2931 945 3040 
Q 1247 3150 1634 3150 
Q 1863 3150 2081 3131 
Q 2300 3113 2647 3050 
L 2647 2322 
L 2234 2322 
Q 2163 2522 2077 2631 
Q 1991 2741 1887 2783 
Q 1784 2825 1641 2825 
Q 1434 2825 1312 2731 
Q 1191 2638 1191 2469 
Q 1191 2350 1234 2265 
Q 1278 2181 1390 2101 
Q 1503 2022 1825 1888 
Q 2119 1766 2303 1633 
Q 2488 1500 2584 1326 
Q 2681 1153 2681 922 
Q 2681 669 2587 486 
Q 2494 303 2325 184 
Q 2156 66 1920 8 
Q 1684 -50 1400 -50 
Q 884 -50 253 97 
L 253 844 
L 672 844 
z
" transform="scale(0.015625)"/>
       <path id="Cambria-Bold-6e" d="M 3666 0 
L 2150 0 
L 2150 206 
Q 2294 241 2350 308 
Q 2406 375 2426 489 
Q 2447 603 2447 900 
L 2447 1734 
Q 2447 1956 2437 2098 
Q 2428 2241 2408 2331 
Q 2388 2422 2352 2483 
Q 2316 2544 2272 2583 
Q 2228 2622 2172 2640 
Q 2116 2659 2028 2659 
Q 1909 2659 1781 2586 
Q 1653 2513 1565 2383 
Q 1478 2253 1478 2106 
L 1478 903 
Q 1478 606 1497 490 
Q 1516 375 1573 308 
Q 1631 241 1778 206 
L 1778 0 
L 269 0 
L 269 206 
Q 419 247 476 312 
Q 534 378 554 490 
Q 575 603 575 900 
L 575 2184 
Q 575 2416 567 2527 
Q 559 2638 529 2705 
Q 500 2772 439 2814 
Q 378 2856 228 2888 
L 228 3100 
L 1084 3125 
L 1478 3125 
L 1431 2675 
L 1469 2666 
Q 1663 2838 1809 2936 
Q 1956 3034 2117 3092 
Q 2278 3150 2456 3150 
Q 2713 3150 2881 3076 
Q 3050 3003 3154 2862 
Q 3259 2722 3304 2519 
Q 3350 2316 3350 2047 
L 3350 903 
Q 3350 766 3354 645 
Q 3359 525 3378 453 
Q 3397 381 3430 336 
Q 3463 291 3522 259 
Q 3581 228 3666 206 
L 3666 0 
z
" transform="scale(0.015625)"/>
       <path id="Cambria-Bold-28" d="M 2478 -1359 
Q 1888 -1359 1514 -1200 
Q 1141 -1041 931 -717 
Q 722 -394 626 128 
Q 531 650 531 1550 
Q 531 2456 626 2982 
Q 722 3509 933 3836 
Q 1144 4163 1520 4323 
Q 1897 4484 2478 4484 
L 2478 4141 
Q 2278 4141 2128 4100 
Q 1978 4059 1866 3947 
Q 1731 3813 1653 3566 
Q 1559 3281 1515 2795 
Q 1472 2309 1472 1575 
Q 1472 897 1513 428 
Q 1553 -75 1647 -381 
Q 1725 -634 1841 -775 
Q 1938 -891 2075 -950 
Q 2228 -1016 2478 -1016 
L 2478 -1359 
z
" transform="scale(0.015625)"/>
       <path id="Cambria-Bold-29" d="M 134 4484 
Q 716 4484 1089 4328 
Q 1463 4172 1675 3851 
Q 1888 3531 1984 3007 
Q 2081 2484 2081 1575 
Q 2081 669 1986 142 
Q 1891 -384 1680 -711 
Q 1469 -1038 1092 -1198 
Q 716 -1359 134 -1359 
L 134 -1016 
Q 334 -1016 484 -975 
Q 634 -934 747 -822 
Q 881 -688 959 -441 
Q 1053 -156 1097 330 
Q 1141 816 1141 1550 
Q 1141 2228 1100 2697 
Q 1059 3200 966 3506 
Q 888 3759 772 3900 
Q 675 4016 538 4075 
Q 384 4141 134 4141 
L 134 4484 
z
" transform="scale(0.015625)"/>
      </defs>
      <use xlink:href="#Cambria-Bold-52"/>
      <use xlink:href="#Cambria-Bold-65" x="64.412109"/>
      <use xlink:href="#Cambria-Bold-6c" x="117.488281"/>
      <use xlink:href="#Cambria-Bold-61" x="148.298828"/>
      <use xlink:href="#Cambria-Bold-74" x="201.814453"/>
      <use xlink:href="#Cambria-Bold-69" x="238.337891"/>
      <use xlink:href="#Cambria-Bold-76" x="269.783203"/>
      <use xlink:href="#Cambria-Bold-65" x="322.859375"/>
      <use xlink:href="#Cambria-Bold-20" x="375.935547"/>
      <use xlink:href="#Cambria-Bold-43" x="397.957031"/>
      <use xlink:href="#Cambria-Bold-6c" x="455.28125"/>
      <use xlink:href="#Cambria-Bold-6f" x="486.091797"/>
      <use xlink:href="#Cambria-Bold-73" x="543.025391"/>
      <use xlink:href="#Cambria-Bold-65" x="588.923828"/>
      <use xlink:href="#Cambria-Bold-6e" x="642"/>
      <use xlink:href="#Cambria-Bold-65" x="702.351562"/>
      <use xlink:href="#Cambria-Bold-73" x="755.427734"/>
      <use xlink:href="#Cambria-Bold-73" x="801.326172"/>
      <use xlink:href="#Cambria-Bold-20" x="847.224609"/>
      <use xlink:href="#Cambria-Bold-28" x="869.246094"/>
      <use xlink:href="#Cambria-Bold-52" x="910.066406"/>
      <use xlink:href="#Cambria-Bold-43" x="973.978516"/>
      <use xlink:href="#Cambria-Bold-29" x="1031.302734"/>
     </g>
    </g>
   </g>
   <g id="matplotlib.axis_2">
    <g id="ytick_1">
     <g id="line2d_13">
      <path d="M 48.041719 425.957017 
L 841.551719 425.957017 
" clip-path="url(#p020d0eea2e)" style="fill: none; stroke-dasharray: 2.96,1.28; stroke-dashoffset: 0; stroke: #b0b0b0; stroke-opacity: 0.5; stroke-width: 0.8"/>
     </g>
     <g id="line2d_14">
      <defs>
       <path id="maf5441ea9b" d="M 0 0 
L -3.5 0 
" style="stroke: #000000; stroke-width: 0.8"/>
      </defs>
      <g>
       <use xlink:href="#maf5441ea9b" x="48.041719" y="425.957017" style="stroke: #000000; stroke-width: 0.8"/>
      </g>
     </g>
     <g id="text_8">
      <!-- 0.0 -->
      <g transform="translate(23.977188 430.498892) scale(0.13 -0.13)">
       <use xlink:href="#Cambria-30"/>
       <use xlink:href="#Cambria-2e" x="55.371094"/>
       <use xlink:href="#Cambria-30" x="75.878906"/>
      </g>
     </g>
    </g>
    <g id="ytick_2">
     <g id="line2d_15">
      <path d="M 48.041719 346.189977 
L 841.551719 346.189977 
" clip-path="url(#p020d0eea2e)" style="fill: none; stroke-dasharray: 2.96,1.28; stroke-dashoffset: 0; stroke: #b0b0b0; stroke-opacity: 0.5; stroke-width: 0.8"/>
     </g>
     <g id="line2d_16">
      <g>
       <use xlink:href="#maf5441ea9b" x="48.041719" y="346.189977" style="stroke: #000000; stroke-width: 0.8"/>
      </g>
     </g>
     <g id="text_9">
      <!-- 0.2 -->
      <g transform="translate(23.977188 350.731852) scale(0.13 -0.13)">
       <use xlink:href="#Cambria-30"/>
       <use xlink:href="#Cambria-2e" x="55.371094"/>
       <use xlink:href="#Cambria-32" x="75.878906"/>
      </g>
     </g>
    </g>
    <g id="ytick_3">
     <g id="line2d_17">
      <path d="M 48.041719 266.422937 
L 841.551719 266.422937 
" clip-path="url(#p020d0eea2e)" style="fill: none; stroke-dasharray: 2.96,1.28; stroke-dashoffset: 0; stroke: #b0b0b0; stroke-opacity: 0.5; stroke-width: 0.8"/>
     </g>
     <g id="line2d_18">
      <g>
       <use xlink:href="#maf5441ea9b" x="48.041719" y="266.422937" style="stroke: #000000; stroke-width: 0.8"/>
      </g>
     </g>
     <g id="text_10">
      <!-- 0.4 -->
      <g transform="translate(23.977188 270.964812) scale(0.13 -0.13)">
       <use xlink:href="#Cambria-30"/>
       <use xlink:href="#Cambria-2e" x="55.371094"/>
       <use xlink:href="#Cambria-34" x="75.878906"/>
      </g>
     </g>
    </g>
    <g id="ytick_4">
     <g id="line2d_19">
      <path d="M 48.041719 186.655898 
L 841.551719 186.655898 
" clip-path="url(#p020d0eea2e)" style="fill: none; stroke-dasharray: 2.96,1.28; stroke-dashoffset: 0; stroke: #b0b0b0; stroke-opacity: 0.5; stroke-width: 0.8"/>
     </g>
     <g id="line2d_20">
      <g>
       <use xlink:href="#maf5441ea9b" x="48.041719" y="186.655898" style="stroke: #000000; stroke-width: 0.8"/>
      </g>
     </g>
     <g id="text_11">
      <!-- 0.6 -->
      <g transform="translate(23.977188 191.197773) scale(0.13 -0.13)">
       <use xlink:href="#Cambria-30"/>
       <use xlink:href="#Cambria-2e" x="55.371094"/>
       <use xlink:href="#Cambria-36" x="75.878906"/>
      </g>
     </g>
    </g>
    <g id="ytick_5">
     <g id="line2d_21">
      <path d="M 48.041719 106.888858 
L 841.551719 106.888858 
" clip-path="url(#p020d0eea2e)" style="fill: none; stroke-dasharray: 2.96,1.28; stroke-dashoffset: 0; stroke: #b0b0b0; stroke-opacity: 0.5; stroke-width: 0.8"/>
     </g>
     <g id="line2d_22">
      <g>
       <use xlink:href="#maf5441ea9b" x="48.041719" y="106.888858" style="stroke: #000000; stroke-width: 0.8"/>
      </g>
     </g>
     <g id="text_12">
      <!-- 0.8 -->
      <g transform="translate(23.977188 111.430733) scale(0.13 -0.13)">
       <use xlink:href="#Cambria-30"/>
       <use xlink:href="#Cambria-2e" x="55.371094"/>
       <use xlink:href="#Cambria-38" x="75.878906"/>
      </g>
     </g>
    </g>
    <g id="ytick_6">
     <g id="line2d_23">
      <path d="M 48.041719 27.121818 
L 841.551719 27.121818 
" clip-path="url(#p020d0eea2e)" style="fill: none; stroke-dasharray: 2.96,1.28; stroke-dashoffset: 0; stroke: #b0b0b0; stroke-opacity: 0.5; stroke-width: 0.8"/>
     </g>
     <g id="line2d_24">
      <g>
       <use xlink:href="#maf5441ea9b" x="48.041719" y="27.121818" style="stroke: #000000; stroke-width: 0.8"/>
      </g>
     </g>
     <g id="text_13">
      <!-- 1.0 -->
      <g transform="translate(23.977188 31.663693) scale(0.13 -0.13)">
       <use xlink:href="#Cambria-31"/>
       <use xlink:href="#Cambria-2e" x="55.371094"/>
       <use xlink:href="#Cambria-30" x="75.878906"/>
      </g>
     </g>
    </g>
    <g id="text_14">
     <!-- Cumulative Probability -->
     <g transform="translate(16.989063 300.894375) rotate(-90) scale(0.14 -0.14)">
      <defs>
       <path id="Cambria-Bold-75" d="M 200 3100 
L 1416 3100 
L 1416 1366 
Q 1416 1066 1434 897 
Q 1453 728 1506 629 
Q 1559 531 1636 486 
Q 1713 441 1831 441 
Q 1947 441 2075 512 
Q 2203 584 2292 714 
Q 2381 844 2381 991 
L 2381 2197 
Q 2381 2425 2372 2536 
Q 2363 2647 2336 2709 
Q 2309 2772 2253 2814 
Q 2197 2856 2069 2894 
L 2069 3100 
L 3288 3100 
L 3288 913 
Q 3288 675 3295 565 
Q 3303 456 3331 390 
Q 3359 325 3421 283 
Q 3484 241 3631 209 
L 3631 0 
L 2781 -28 
L 2403 -28 
L 2431 422 
L 2394 431 
Q 2103 163 1875 56 
Q 1647 -50 1416 -50 
Q 1084 -50 886 73 
Q 688 197 600 436 
Q 513 675 513 1053 
L 513 2197 
Q 513 2372 508 2465 
Q 503 2559 493 2611 
Q 484 2663 467 2705 
Q 450 2747 420 2781 
Q 391 2816 339 2844 
Q 288 2872 200 2894 
L 200 3100 
z
" transform="scale(0.015625)"/>
       <path id="Cambria-Bold-6d" d="M 1431 2675 
L 1469 2666 
Q 1753 2931 1981 3040 
Q 2209 3150 2447 3150 
Q 2678 3150 2831 3090 
Q 2984 3031 3090 2917 
Q 3197 2803 3263 2619 
Q 3578 2913 3811 3031 
Q 4044 3150 4297 3150 
Q 4547 3150 4711 3084 
Q 4875 3019 4981 2881 
Q 5088 2744 5136 2537 
Q 5184 2331 5184 2044 
L 5184 903 
Q 5184 766 5189 645 
Q 5194 525 5212 453 
Q 5231 381 5264 336 
Q 5297 291 5356 259 
Q 5416 228 5500 206 
L 5500 0 
L 3994 0 
L 3994 206 
Q 4134 241 4187 306 
Q 4241 372 4261 487 
Q 4281 603 4281 900 
L 4281 1738 
Q 4281 2019 4262 2195 
Q 4244 2372 4191 2472 
Q 4138 2572 4064 2615 
Q 3991 2659 3872 2659 
Q 3791 2659 3722 2634 
Q 3653 2609 3583 2557 
Q 3513 2506 3463 2453 
Q 3413 2400 3383 2334 
Q 3353 2269 3342 2187 
Q 3331 2106 3331 1922 
L 3331 903 
Q 3331 691 3339 578 
Q 3347 466 3372 397 
Q 3397 328 3451 283 
Q 3506 238 3622 206 
L 3622 0 
L 2134 0 
L 2134 206 
Q 2278 241 2333 306 
Q 2388 372 2406 486 
Q 2425 600 2425 900 
L 2425 1738 
Q 2425 1944 2417 2086 
Q 2409 2228 2390 2315 
Q 2372 2403 2339 2468 
Q 2306 2534 2264 2575 
Q 2222 2616 2164 2637 
Q 2106 2659 2019 2659 
Q 1903 2659 1776 2587 
Q 1650 2516 1564 2387 
Q 1478 2259 1478 2113 
L 1478 903 
Q 1478 609 1495 492 
Q 1513 375 1569 308 
Q 1625 241 1766 206 
L 1766 0 
L 269 0 
L 269 206 
Q 419 247 476 312 
Q 534 378 554 490 
Q 575 603 575 900 
L 575 2184 
Q 575 2416 567 2527 
Q 559 2638 529 2705 
Q 500 2772 439 2814 
Q 378 2856 228 2888 
L 228 3100 
L 1084 3125 
L 1478 3125 
L 1431 2675 
z
" transform="scale(0.015625)"/>
       <path id="Cambria-Bold-50" d="M 1603 781 
Q 1603 575 1618 489 
Q 1634 403 1670 351 
Q 1706 300 1773 265 
Q 1841 231 1981 206 
L 1981 0 
L 300 0 
L 300 206 
Q 416 238 483 273 
Q 550 309 583 373 
Q 616 438 625 536 
Q 634 634 634 784 
L 634 3478 
Q 634 3625 626 3725 
Q 619 3825 586 3887 
Q 553 3950 486 3989 
Q 419 4028 300 4059 
L 300 4266 
L 2116 4266 
Q 2906 4266 3300 3983 
Q 3694 3700 3694 3113 
Q 3694 2697 3509 2390 
Q 3325 2084 2975 1926 
Q 2625 1769 2100 1769 
Q 1797 1769 1603 1781 
L 1603 781 
z
M 1603 2134 
L 1872 2134 
Q 2184 2134 2368 2223 
Q 2553 2313 2642 2506 
Q 2731 2700 2731 3028 
Q 2731 3353 2642 3545 
Q 2553 3738 2381 3819 
Q 2209 3900 1941 3900 
Q 1722 3900 1603 3894 
L 1603 2134 
z
" transform="scale(0.015625)"/>
       <path id="Cambria-Bold-72" d="M 1434 2653 
L 1475 2644 
Q 1703 2913 1943 3031 
Q 2184 3150 2466 3150 
Q 2656 3150 2866 3109 
L 2866 2247 
L 2300 2247 
Q 2247 2428 2161 2525 
Q 2075 2622 1931 2622 
Q 1863 2622 1780 2580 
Q 1697 2538 1626 2461 
Q 1556 2384 1526 2304 
Q 1497 2225 1487 2144 
Q 1478 2063 1478 1900 
L 1478 903 
Q 1478 606 1500 487 
Q 1522 369 1587 301 
Q 1653 234 1809 206 
L 1809 0 
L 269 0 
L 269 206 
Q 419 247 476 312 
Q 534 378 554 490 
Q 575 603 575 900 
L 575 2184 
Q 575 2416 567 2527 
Q 559 2638 529 2705 
Q 500 2772 439 2814 
Q 378 2856 228 2888 
L 228 3100 
L 1084 3125 
L 1478 3125 
L 1434 2653 
z
" transform="scale(0.015625)"/>
       <path id="Cambria-Bold-62" d="M 497 3397 
Q 497 3622 494 3740 
Q 491 3859 475 3946 
Q 459 4034 425 4084 
Q 391 4134 333 4165 
Q 275 4197 144 4225 
L 144 4431 
L 1016 4475 
L 1400 4475 
L 1400 2684 
L 1403 2681 
Q 1591 2853 1731 2947 
Q 1872 3041 2031 3095 
Q 2191 3150 2372 3150 
Q 2928 3150 3206 2758 
Q 3484 2366 3484 1584 
Q 3484 1044 3320 680 
Q 3156 316 2831 133 
Q 2506 -50 2031 -50 
Q 1538 -50 1128 128 
L 897 -50 
L 497 6 
L 497 3397 
z
M 1400 1025 
Q 1400 641 1533 458 
Q 1666 275 1944 275 
Q 2231 275 2382 576 
Q 2534 878 2534 1438 
Q 2534 2053 2400 2356 
Q 2266 2659 1981 2659 
Q 1844 2659 1709 2587 
Q 1575 2516 1487 2383 
Q 1400 2250 1400 2091 
L 1400 1025 
z
" transform="scale(0.015625)"/>
       <path id="Cambria-Bold-79" d="M 1844 -141 
Q 1641 -594 1461 -851 
Q 1281 -1109 1073 -1237 
Q 866 -1366 556 -1366 
Q 322 -1366 119 -1306 
L 119 -591 
L 469 -591 
Q 509 -738 570 -792 
Q 631 -847 741 -847 
Q 859 -847 954 -781 
Q 1050 -716 1170 -536 
Q 1291 -356 1466 0 
L 1288 0 
L 472 2347 
Q 384 2594 332 2686 
Q 281 2778 217 2826 
Q 153 2875 59 2894 
L 59 3100 
L 1619 3100 
L 1619 2894 
Q 1472 2866 1403 2809 
Q 1334 2753 1334 2641 
Q 1334 2491 1416 2250 
L 1866 884 
L 2363 2081 
Q 2425 2231 2456 2345 
Q 2488 2459 2488 2569 
Q 2488 2700 2413 2786 
Q 2338 2872 2200 2894 
L 2200 3100 
L 3416 3100 
L 3416 2891 
Q 3325 2863 3270 2822 
Q 3216 2781 3167 2715 
Q 3119 2650 3050 2520 
Q 2981 2391 2863 2128 
L 1844 -141 
z
" transform="scale(0.015625)"/>
      </defs>
      <use xlink:href="#Cambria-Bold-43"/>
      <use xlink:href="#Cambria-Bold-75" x="56.574219"/>
      <use xlink:href="#Cambria-Bold-6d" x="116.291016"/>
      <use xlink:href="#Cambria-Bold-75" x="205.304688"/>
      <use xlink:href="#Cambria-Bold-6c" x="265.021484"/>
      <use xlink:href="#Cambria-Bold-61" x="295.832031"/>
      <use xlink:href="#Cambria-Bold-74" x="349.347656"/>
      <use xlink:href="#Cambria-Bold-69" x="385.871094"/>
      <use xlink:href="#Cambria-Bold-76" x="417.316406"/>
      <use xlink:href="#Cambria-Bold-65" x="470.392578"/>
      <use xlink:href="#Cambria-Bold-20" x="523.46875"/>
      <use xlink:href="#Cambria-Bold-50" x="545.490234"/>
      <use xlink:href="#Cambria-Bold-72" x="606.867188"/>
      <use xlink:href="#Cambria-Bold-6f" x="653.009766"/>
      <use xlink:href="#Cambria-Bold-62" x="709.943359"/>
      <use xlink:href="#Cambria-Bold-61" x="769.074219"/>
      <use xlink:href="#Cambria-Bold-62" x="822.589844"/>
      <use xlink:href="#Cambria-Bold-69" x="881.720703"/>
      <use xlink:href="#Cambria-Bold-6c" x="913.166016"/>
      <use xlink:href="#Cambria-Bold-69" x="943.976562"/>
      <use xlink:href="#Cambria-Bold-74" x="975.421875"/>
      <use xlink:href="#Cambria-Bold-79" x="1011.945312"/>
     </g>
    </g>
   </g>
   <g id="line2d_25">
    <path d="M 84.110355 425.558182 
L 84.203895 410.003609 
L 84.597684 404.419916 
L 84.715671 403.622246 
L 85.171862 399.633894 
L 85.277285 398.836223 
L 85.436023 398.437388 
L 85.537441 396.842048 
L 85.873034 392.853696 
L 86.067667 390.061849 
L 86.224841 389.663014 
L 86.381364 387.270003 
L 86.516968 386.073497 
L 86.64896 384.478156 
L 86.782958 383.680486 
L 87.100874 380.090969 
L 87.218604 378.495628 
L 87.659266 371.71543 
L 87.926608 369.322419 
L 88.226418 364.137561 
L 88.31585 362.941056 
L 88.393326 361.345715 
L 88.749875 357.756198 
L 88.749996 357.357363 
L 88.988486 356.958528 
L 89.042652 354.964352 
L 89.222631 353.767846 
L 89.391481 352.172505 
L 89.516947 350.577164 
L 89.686312 347.785318 
L 89.809475 346.987648 
L 89.942092 346.189977 
L 90.239452 343.398131 
L 90.367528 341.80279 
L 90.583541 340.606284 
L 90.595528 340.207449 
L 90.76794 339.409779 
L 90.913553 337.415603 
L 90.981167 336.617932 
L 90.984645 336.219097 
L 91.13353 335.820262 
L 91.411351 331.433075 
L 91.536241 330.635404 
L 91.786988 327.045888 
L 91.934948 326.647053 
L 92.202423 322.658701 
L 92.346496 321.86103 
L 92.698088 315.878502 
L 92.838345 315.479667 
L 92.9798 314.283161 
L 93.303599 311.09248 
L 93.317337 310.693645 
L 93.486287 310.294809 
L 93.650329 308.300633 
L 93.899985 307.901798 
L 94.032129 305.109952 
L 94.199209 303.913446 
L 94.242759 302.716941 
L 94.430052 301.91927 
L 94.798931 299.925094 
L 94.914579 298.329753 
L 95.001411 297.133248 
L 95.087941 295.936742 
L 95.220405 293.543731 
L 95.390012 291.94839 
L 95.654613 289.555379 
L 95.859768 289.156544 
L 95.976674 285.965862 
L 96.590237 282.775181 
L 96.702375 281.17984 
L 96.873211 279.584499 
L 97.697791 271.20896 
L 97.950671 270.810125 
L 98.03771 269.214784 
L 98.305028 266.024102 
L 98.580044 265.226432 
L 98.810934 263.631091 
L 98.93528 262.833421 
L 98.975354 262.434585 
L 99.241476 262.03575 
L 99.285772 261.23808 
L 99.486445 260.839245 
L 100.671966 251.2672 
L 100.857932 248.874189 
L 101.431894 245.683507 
L 101.545416 242.492826 
L 101.717559 241.695155 
L 101.857714 240.099814 
L 102.088609 238.504474 
L 102.514718 234.117286 
L 102.636193 233.319616 
L 102.995142 228.533594 
L 103.180574 228.134758 
L 103.234537 227.337088 
L 103.388704 226.938253 
L 103.518348 224.944077 
L 104.255037 219.759219 
L 104.71835 214.973197 
L 105.098551 213.377856 
L 105.235885 212.580186 
L 105.411269 210.187174 
L 105.648246 208.591834 
L 105.828844 206.996493 
L 106.164765 205.799987 
L 106.404985 204.603482 
L 106.512212 203.805811 
L 106.889189 203.406976 
L 107.182546 202.609306 
L 107.192346 202.21047 
L 107.391848 201.811635 
L 108.402989 194.233766 
L 108.569869 191.043085 
L 108.778933 190.64425 
L 109.079109 187.852403 
L 109.517548 183.864051 
L 109.671862 181.869875 
L 110.066241 178.679194 
L 110.199605 177.881523 
L 110.302221 177.083853 
L 110.30281 176.685018 
L 110.497507 175.887347 
L 110.705236 173.893171 
L 110.865605 173.494336 
L 111.102622 171.50016 
L 111.420184 168.708314 
L 111.731307 168.309479 
L 111.745234 167.910643 
L 112.040296 166.714138 
L 112.417289 163.922291 
L 112.784695 163.523456 
L 112.928645 163.124621 
L 112.959633 161.928115 
L 113.161243 161.130445 
L 113.256611 160.332775 
L 113.49976 158.737434 
L 113.744752 157.540928 
L 113.882513 155.546752 
L 114.2719 151.957235 
L 114.595909 151.159565 
L 114.772622 149.963059 
L 115.623013 146.373543 
L 115.695298 145.177037 
L 116.203624 143.182861 
L 116.334584 140.78985 
L 116.705766 138.396839 
L 116.832892 137.200333 
L 117.644932 135.604992 
L 117.656417 135.206157 
L 117.930911 134.807322 
L 118.038 134.009651 
L 118.172828 132.813146 
L 118.375447 130.420135 
L 118.80067 129.622464 
L 118.872298 128.425959 
L 119.439598 125.634112 
L 119.969453 124.836442 
L 120.973029 121.64576 
L 121.00236 120.84809 
L 121.202346 120.05042 
L 121.304101 119.252749 
L 121.352689 118.455079 
L 122.05853 116.062068 
L 122.19291 115.264397 
L 122.499057 114.466727 
L 122.59356 113.669056 
L 122.837901 113.270221 
L 122.838223 112.871386 
L 122.977167 112.073716 
L 123.065115 111.276045 
L 123.250973 110.87721 
L 123.283867 110.478375 
L 123.751061 109.680704 
L 123.839893 109.281869 
L 124.255763 108.883034 
L 124.459639 107.686528 
L 124.871858 106.490023 
L 125.174788 105.293517 
L 125.829405 103.698176 
L 125.929334 102.900506 
L 126.012117 102.501671 
L 126.282132 102.102836 
L 126.41931 100.90633 
L 126.576497 98.912154 
L 126.894357 96.917978 
L 127.199342 95.721472 
L 127.287024 94.524967 
L 127.931535 94.126132 
L 127.983429 93.727296 
L 128.316472 93.328461 
L 128.470694 92.530791 
L 128.714477 90.93545 
L 129.2173 90.13778 
L 129.235998 89.738944 
L 129.663332 89.340109 
L 129.71146 88.941274 
L 129.890376 88.542439 
L 130.699234 88.143604 
L 130.943348 87.744768 
L 130.989092 86.947098 
L 131.193566 86.149428 
L 131.503151 84.952922 
L 131.833489 84.554087 
L 131.838384 84.155252 
L 132.448326 83.357581 
L 132.465535 82.958746 
L 132.718301 82.161076 
L 132.745869 81.363405 
L 133.041056 80.96457 
L 133.825879 78.571559 
L 134.24534 78.172724 
L 134.40436 77.375053 
L 134.830528 76.976218 
L 135.071631 76.577383 
L 135.847165 72.190196 
L 135.921672 71.392525 
L 136.264863 70.99369 
L 136.774265 70.594855 
L 136.885408 69.797184 
L 137.215771 69.398349 
L 137.378138 68.999514 
L 137.390051 68.600679 
L 138.338454 68.201844 
L 138.51726 67.803008 
L 138.556782 67.005338 
L 139.053184 66.207668 
L 139.149881 64.612327 
L 139.569664 63.814656 
L 139.994786 63.415821 
L 140.271093 62.618151 
L 140.45436 61.82048 
L 141.050073 61.421645 
L 141.942128 61.02281 
L 142.536586 60.22514 
L 142.793727 59.028634 
L 143.434592 58.629799 
L 143.728692 58.230964 
L 144.374811 57.832128 
L 144.428154 57.433293 
L 145.08648 56.635623 
L 145.14835 55.837952 
L 145.426563 55.040282 
L 146.351226 54.242612 
L 146.500242 53.046106 
L 146.732506 52.647271 
L 146.796643 52.248436 
L 147.244532 51.849601 
L 147.331071 51.05193 
L 147.346025 50.653095 
L 147.709006 50.25426 
L 147.73269 49.855425 
L 148.746381 47.861249 
L 148.976707 47.063578 
L 149.937821 46.265908 
L 150.609265 45.468237 
L 150.724955 45.069402 
L 151.212314 44.670567 
L 152.033406 44.271732 
L 152.990838 42.676391 
L 153.399718 42.277556 
L 154.558781 41.878721 
L 154.652907 41.479885 
L 157.976199 41.08105 
L 158.551433 40.682215 
L 159.837183 40.28338 
L 160.195997 39.485709 
L 160.887584 39.086874 
L 161.892718 38.688039 
L 162.728429 37.491533 
L 162.859624 37.092698 
L 165.979206 36.693863 
L 168.166128 36.295028 
L 173.280543 35.896193 
L 176.556733 35.497357 
L 177.583163 35.098522 
L 188.753535 34.300852 
L 188.931108 33.902017 
L 195.174207 33.503181 
L 197.253488 33.104346 
L 197.288393 32.705511 
L 199.069578 32.306676 
L 205.276295 31.907841 
L 205.805327 31.509005 
L 207.507211 31.11017 
L 248.56404 30.711335 
L 249.797746 30.3125 
L 253.455335 29.913665 
L 264.563104 29.514829 
L 265.686254 29.115994 
L 276.193102 28.717159 
L 289.818137 28.318324 
L 311.508864 27.919489 
L 320.650922 27.520653 
L 342.13674 27.121818 
L 342.13674 27.121818 
" clip-path="url(#p020d0eea2e)" style="fill: none; stroke: #1f77b4; stroke-width: 1.5; stroke-linecap: square"/>
   </g>
   <g id="line2d_26">
    <path d="M 312.566713 425.558182 
L 344.338857 425.159347 
L 376.54303 424.361676 
L 377.727932 423.962841 
L 379.052983 423.165171 
L 386.721055 422.766335 
L 387.710432 422.3675 
L 390.769004 421.968665 
L 391.563596 421.56983 
L 394.798441 421.170995 
L 395.996131 420.373324 
L 406.608641 419.575654 
L 406.975326 419.176819 
L 412.369908 418.379148 
L 412.691391 417.980313 
L 414.368455 417.581478 
L 414.774101 417.182643 
L 416.817811 416.783807 
L 418.134521 416.384972 
L 418.392552 415.986137 
L 419.032829 415.587302 
L 419.31667 415.188467 
L 419.94841 414.789631 
L 428.898023 414.390796 
L 429.351145 413.991961 
L 433.1133 413.194291 
L 433.510206 412.795455 
L 433.680432 412.39662 
L 434.866217 411.997785 
L 435.048249 411.59895 
L 437.012608 410.801279 
L 437.148483 410.402444 
L 440.297788 410.003609 
L 440.956666 409.604774 
L 441.127158 409.205939 
L 444.243605 408.807103 
L 444.930792 408.408268 
L 446.686008 408.009433 
L 448.57909 407.211763 
L 450.480352 406.015257 
L 450.93798 404.818751 
L 451.187739 404.419916 
L 452.194203 404.021081 
L 452.280319 403.622246 
L 452.912041 403.223411 
L 452.9392 402.824575 
L 454.678146 402.42574 
L 455.847401 402.026905 
L 458.498636 401.62807 
L 459.132262 401.229235 
L 461.651388 400.830399 
L 462.724702 400.431564 
L 462.906693 399.633894 
L 463.224314 399.235059 
L 464.048277 398.836223 
L 464.619826 398.038553 
L 465.112282 397.639718 
L 465.133944 397.240883 
L 465.940206 396.443212 
L 466.082269 396.044377 
L 467.43713 395.246707 
L 469.511991 394.847872 
L 470.109168 394.050201 
L 470.866049 393.252531 
L 472.216305 392.45486 
L 472.526767 392.056025 
L 473.108189 391.65719 
L 473.546649 390.85952 
L 474.514981 390.460684 
L 476.182925 390.061849 
L 476.277541 389.663014 
L 477.552942 389.264179 
L 478.119626 388.466508 
L 478.447543 388.067673 
L 479.013293 387.668838 
L 481.035135 386.871168 
L 481.537959 386.472332 
L 481.573172 386.073497 
L 482.393396 385.275827 
L 483.0495 384.478156 
L 483.101388 384.079321 
L 483.428527 383.680486 
L 484.089307 383.281651 
L 484.394652 382.882816 
L 485.392638 382.48398 
L 485.550059 382.085145 
L 486.051863 381.68631 
L 487.107378 381.287475 
L 487.174866 380.88864 
L 488.114732 380.090969 
L 488.367166 379.692134 
L 488.59353 378.495628 
L 488.897039 378.096793 
L 490.233484 377.697958 
L 490.808604 377.299123 
L 491.09206 375.703782 
L 492.121841 375.304947 
L 492.154105 374.906112 
L 493.21565 373.709606 
L 497.01909 373.310771 
L 497.215373 372.911936 
L 497.885275 372.5131 
L 498.127883 372.114265 
L 498.167777 371.71543 
L 498.401998 371.316595 
L 498.451361 370.518924 
L 499.172204 369.721254 
L 499.313642 369.322419 
L 499.57589 368.923584 
L 500.21981 368.524748 
L 500.487697 367.727078 
L 502.203117 367.328243 
L 502.585151 366.929408 
L 502.606339 366.530572 
L 503.831922 366.131737 
L 504.62507 365.732902 
L 504.9107 365.334067 
L 505.529368 364.935232 
L 506.174848 363.738726 
L 506.885074 363.339891 
L 508.113811 362.941056 
L 508.424025 362.54222 
L 508.502163 362.143385 
L 509.015216 361.74455 
L 509.142502 360.94688 
L 509.488611 360.149209 
L 509.523792 359.750374 
L 511.895997 359.351539 
L 512.488261 358.952704 
L 512.873217 358.553868 
L 513.517193 358.155033 
L 513.588933 357.756198 
L 514.941831 357.357363 
L 515.154356 356.958528 
L 515.182643 356.559692 
L 515.783765 356.160857 
L 515.942062 355.762022 
L 515.977924 355.363187 
L 516.325111 354.964352 
L 516.391063 354.565516 
L 516.965892 354.166681 
L 517.135483 353.767846 
L 517.888103 353.369011 
L 517.970287 352.57134 
L 518.305543 352.172505 
L 518.557983 351.374835 
L 519.544148 350.976 
L 520.913337 350.577164 
L 520.942457 350.178329 
L 521.309509 348.981824 
L 521.368105 348.184153 
L 522.001333 347.785318 
L 522.548852 346.987648 
L 522.663094 346.189977 
L 522.862318 345.791142 
L 523.295386 345.392307 
L 523.344417 344.993472 
L 524.526294 344.195801 
L 524.870646 343.796966 
L 524.908659 343.398131 
L 525.252996 342.60046 
L 525.36049 341.403955 
L 525.509731 340.207449 
L 525.837174 339.808614 
L 526.032535 338.612108 
L 526.325968 338.213273 
L 526.375594 337.814438 
L 526.635354 337.415603 
L 526.68539 336.617932 
L 528.320262 335.022592 
L 528.707038 334.224921 
L 528.772069 333.826086 
L 529.868632 331.83191 
L 529.957238 331.433075 
L 530.523476 330.635404 
L 530.649562 330.236569 
L 531.019173 329.837734 
L 531.147456 329.040064 
L 531.594317 328.641229 
L 532.438636 328.242393 
L 532.565825 327.444723 
L 532.702407 327.045888 
L 533.03669 326.647053 
L 533.19456 326.248217 
L 533.973354 325.849382 
L 534.515305 325.051712 
L 535.28495 324.652877 
L 535.686816 323.855206 
L 535.814349 323.456371 
L 537.282279 323.057536 
L 537.469292 322.658701 
L 538.159134 322.259865 
L 538.579299 321.462195 
L 539.168362 321.06336 
L 539.292697 320.664525 
L 539.588897 320.265689 
L 539.663401 319.866854 
L 540.539418 319.069184 
L 541.233494 318.670349 
L 541.483368 317.872678 
L 542.463998 317.473843 
L 543.160678 315.479667 
L 543.419263 315.080832 
L 544.300187 314.283161 
L 544.688935 313.884326 
L 545.359147 313.485491 
L 545.510323 313.086656 
L 546.958404 311.89015 
L 547.296233 310.693645 
L 548.355233 310.294809 
L 548.420162 309.895974 
L 548.828798 309.497139 
L 549.069121 308.699469 
L 549.311394 308.300633 
L 549.98464 307.901798 
L 550.372117 307.104128 
L 550.884165 306.306457 
L 551.091888 305.508787 
L 551.284011 305.109952 
L 551.973048 304.312281 
L 552.191103 303.514611 
L 552.821021 303.115776 
L 553.287697 302.318105 
L 553.771532 301.91927 
L 554.236249 300.323929 
L 554.399775 299.526259 
L 554.635429 299.127424 
L 554.684531 298.728589 
L 555.373643 298.329753 
L 556.50798 297.930918 
L 557.076087 297.532083 
L 557.213415 296.335577 
L 557.566244 295.936742 
L 557.635925 295.537907 
L 558.92802 294.740237 
L 559.029042 294.341401 
L 559.434184 293.942566 
L 559.435654 293.543731 
L 560.309856 291.549555 
L 560.329267 291.15072 
L 560.608033 290.353049 
L 560.623145 289.954214 
L 560.938238 289.156544 
L 561.26737 288.757709 
L 561.391779 288.358873 
L 561.913131 287.960038 
L 561.972397 287.561203 
L 562.64169 287.162368 
L 562.700708 286.763533 
L 562.982569 286.364697 
L 563.042616 285.965862 
L 563.336266 285.567027 
L 563.402032 284.370521 
L 563.873901 283.971686 
L 563.991095 283.174016 
L 564.016872 282.775181 
L 564.168886 282.376345 
L 564.183772 281.97751 
L 565.672782 281.17984 
L 565.963145 280.781005 
L 566.117755 279.983334 
L 566.413409 279.584499 
L 566.436221 279.185664 
L 566.980205 277.989158 
L 566.980213 277.590323 
L 568.734452 275.596147 
L 569.317259 274.399641 
L 569.475021 273.601971 
L 569.792527 273.203136 
L 569.817945 272.804301 
L 570.124672 272.405465 
L 570.168453 272.00663 
L 570.349209 271.607795 
L 570.499563 270.810125 
L 570.625555 270.411289 
L 571.555909 270.012454 
L 572.198902 269.613619 
L 572.517992 269.214784 
L 572.544879 268.417113 
L 572.92585 268.018278 
L 572.930382 267.619443 
L 573.289721 266.821773 
L 574.280361 266.422937 
L 574.317271 266.024102 
L 574.745434 264.827597 
L 575.219707 264.428761 
L 575.366977 264.029926 
L 576.626605 263.232256 
L 576.771872 262.434585 
L 576.987186 262.03575 
L 577.344427 261.636915 
L 578.039529 261.23808 
L 578.300515 260.44041 
L 578.638387 260.041574 
L 578.85299 259.243904 
L 579.184887 258.845069 
L 580.767412 257.648563 
L 581.0256 257.249728 
L 581.134695 256.452058 
L 582.060334 256.053222 
L 582.1315 255.654387 
L 582.659941 255.255552 
L 582.770318 254.856717 
L 583.114392 254.059046 
L 583.246408 253.261376 
L 583.374551 252.463706 
L 584.015199 252.06487 
L 584.058604 251.666035 
L 585.076014 250.070694 
L 585.113387 249.671859 
L 585.463417 249.273024 
L 586.078184 248.874189 
L 586.110929 248.475354 
L 586.845285 247.677683 
L 587.431154 245.683507 
L 588.181031 245.284672 
L 588.932418 244.487002 
L 589.177376 244.088166 
L 589.205482 243.689331 
L 589.40591 243.290496 
L 589.628055 241.695155 
L 589.855628 241.29632 
L 589.90422 240.897485 
L 590.443539 240.099814 
L 590.494076 239.700979 
L 590.815683 239.302144 
L 591.34438 238.903309 
L 591.45357 238.105638 
L 591.835109 236.510298 
L 591.840759 236.111462 
L 592.073245 235.712627 
L 592.671521 235.313792 
L 593.40544 234.117286 
L 593.651465 233.718451 
L 593.667518 233.319616 
L 594.132072 232.920781 
L 594.364068 232.12311 
L 594.631382 231.32544 
L 594.756897 230.926605 
L 595.577807 229.730099 
L 595.928838 228.533594 
L 597.049875 228.134758 
L 597.770691 226.938253 
L 597.930391 226.140582 
L 598.127209 225.741747 
L 598.475327 225.342912 
L 599.068536 223.747571 
L 600.172517 222.949901 
L 600.91222 222.15223 
L 601.470222 221.35456 
L 601.697528 220.955725 
L 601.712081 220.55689 
L 602.18718 220.158054 
L 602.260377 219.360384 
L 602.432628 218.961549 
L 603.056242 218.562714 
L 603.301364 216.568538 
L 603.480561 216.169702 
L 604.129205 215.770867 
L 604.287766 215.372032 
L 604.414225 214.175526 
L 604.552334 213.377856 
L 604.589058 212.979021 
L 605.09837 212.580186 
L 605.251937 211.38368 
L 605.935877 210.984845 
L 606.346417 209.389504 
L 606.703223 208.990669 
L 606.897494 208.591834 
L 607.117921 206.996493 
L 607.466189 206.597658 
L 607.50606 206.198822 
L 607.849343 205.401152 
L 607.917861 205.002317 
L 608.867555 204.603482 
L 609.139319 204.204646 
L 609.416154 203.008141 
L 609.652957 202.609306 
L 609.701795 202.21047 
L 609.949196 201.811635 
L 610.068148 201.013965 
L 611.087435 200.61513 
L 611.128426 199.817459 
L 611.494615 199.418624 
L 611.507728 199.019789 
L 611.818502 198.620954 
L 611.819354 198.222118 
L 612.308868 197.823283 
L 612.394981 197.424448 
L 612.882989 196.626778 
L 613.020525 195.829107 
L 613.108777 195.430272 
L 613.557479 194.632602 
L 614.223451 194.233766 
L 614.411704 193.436096 
L 614.634888 192.638426 
L 614.972772 192.23959 
L 615.125227 191.840755 
L 615.688582 191.44192 
L 615.812366 190.64425 
L 616.110739 190.245415 
L 616.316693 188.650074 
L 616.476619 188.251239 
L 616.497251 187.852403 
L 616.683006 187.453568 
L 617.358934 187.054733 
L 617.432923 186.655898 
L 617.677031 186.257063 
L 617.748365 185.459392 
L 618.407242 185.060557 
L 618.496494 184.661722 
L 618.789683 184.262887 
L 618.925695 183.465216 
L 619.159702 183.066381 
L 619.173626 182.667546 
L 619.490599 181.869875 
L 619.987843 181.47104 
L 620.094413 181.072205 
L 620.427145 180.67337 
L 620.525028 179.875699 
L 621.847459 179.476864 
L 622.288394 178.679194 
L 622.892759 178.280359 
L 623.24996 177.482688 
L 623.622598 177.083853 
L 623.829602 176.286183 
L 624.356663 175.488512 
L 625.507169 173.095501 
L 625.648644 172.696666 
L 625.922401 172.297831 
L 626.252703 171.101325 
L 626.704169 170.70249 
L 627.312831 169.107149 
L 627.412133 168.309479 
L 628.653137 167.112973 
L 628.685716 166.714138 
L 628.859366 166.315303 
L 629.198775 165.916467 
L 629.249666 165.118797 
L 629.632039 164.719962 
L 629.749898 164.321127 
L 630.28581 163.922291 
L 630.488076 163.124621 
L 630.853415 162.725786 
L 631.248038 161.52928 
L 631.270559 161.130445 
L 632.372245 160.332775 
L 632.541492 159.535104 
L 633.03308 159.136269 
L 633.075811 158.737434 
L 633.560137 158.338599 
L 633.73831 157.939763 
L 633.738366 157.540928 
L 633.98008 156.743258 
L 634.043916 156.344423 
L 634.507235 155.546752 
L 635.125911 155.147917 
L 635.18383 154.749082 
L 636.151455 154.350247 
L 636.597857 153.951411 
L 636.740472 153.153741 
L 637.282687 152.754906 
L 637.332309 152.356071 
L 637.717303 151.957235 
L 637.826357 151.159565 
L 638.398836 150.76073 
L 638.723005 150.361895 
L 638.781524 149.963059 
L 639.107034 149.564224 
L 639.250119 149.165389 
L 640.469328 147.570048 
L 640.885023 147.171213 
L 640.987509 146.373543 
L 641.049984 145.974707 
L 641.240474 145.575872 
L 641.245442 145.177037 
L 642.276516 144.379367 
L 642.619907 143.182861 
L 642.81644 142.784026 
L 642.850884 142.385191 
L 643.437954 141.986355 
L 643.486207 141.58752 
L 643.675589 141.188685 
L 646.015383 139.992179 
L 646.683562 137.998003 
L 647.187225 137.599168 
L 647.215985 137.200333 
L 647.57616 136.402663 
L 648.916551 135.604992 
L 649.020679 135.206157 
L 649.428196 134.807322 
L 649.737778 134.009651 
L 650.104458 133.610816 
L 650.394662 132.813146 
L 650.80084 132.414311 
L 651.008588 130.81897 
L 651.551632 129.622464 
L 652.028255 129.223629 
L 652.091283 128.824794 
L 652.37186 128.425959 
L 652.393529 128.027123 
L 652.530573 127.628288 
L 653.049773 127.229453 
L 653.454111 125.634112 
L 654.152829 124.437607 
L 654.391587 123.639936 
L 654.394047 123.241101 
L 654.72846 122.842266 
L 654.739004 122.443431 
L 655.233703 121.64576 
L 655.53012 121.246925 
L 655.778041 120.449255 
L 656.534704 119.651584 
L 656.54692 119.252749 
L 656.907883 118.853914 
L 657.055931 118.455079 
L 657.752799 118.056244 
L 657.845462 117.258573 
L 657.974071 116.859738 
L 659.052132 115.264397 
L 659.194912 114.865562 
L 659.216599 114.466727 
L 659.965016 114.067892 
L 660.805371 113.270221 
L 661.240863 112.871386 
L 661.353786 112.472551 
L 661.86779 112.073716 
L 661.911098 111.67488 
L 662.863812 111.276045 
L 663.061894 110.87721 
L 664.051049 110.478375 
L 664.145069 110.07954 
L 664.506117 109.680704 
L 664.515062 109.281869 
L 664.863571 108.484199 
L 665.04636 108.085364 
L 665.093576 107.287693 
L 665.752208 106.888858 
L 666.06087 106.490023 
L 666.089875 106.091188 
L 666.329752 105.692352 
L 666.405919 105.293517 
L 666.703106 104.894682 
L 666.761697 104.495847 
L 666.939265 104.097012 
L 668.024262 103.698176 
L 668.465209 102.900506 
L 668.619595 102.501671 
L 669.369556 101.704 
L 669.689034 101.305165 
L 670.301521 99.709824 
L 670.67508 98.912154 
L 672.296048 98.114484 
L 672.862342 97.715648 
L 672.941796 97.316813 
L 674.522405 96.120308 
L 674.931319 95.322637 
L 675.590467 94.923802 
L 675.750156 94.524967 
L 675.767933 94.126132 
L 676.059921 93.727296 
L 676.929756 93.328461 
L 677.02504 92.929626 
L 677.380321 92.530791 
L 677.522925 92.131956 
L 677.958569 91.73312 
L 678.13995 91.334285 
L 678.188601 90.93545 
L 678.888855 90.536615 
L 678.960794 89.738944 
L 680.119595 89.340109 
L 680.329114 88.143604 
L 680.709097 87.744768 
L 680.716183 87.345933 
L 681.061862 86.947098 
L 681.159907 86.548263 
L 682.102854 86.149428 
L 683.434579 85.750592 
L 683.686209 85.351757 
L 683.75337 84.952922 
L 684.933204 84.554087 
L 684.956555 84.155252 
L 685.223057 83.756416 
L 685.866074 83.357581 
L 686.595785 82.161076 
L 686.708123 81.76224 
L 687.739538 80.96457 
L 687.758549 80.565735 
L 687.892807 80.1669 
L 688.183309 79.768064 
L 688.252781 79.369229 
L 688.99597 78.970394 
L 689.461398 78.571559 
L 690.293321 78.172724 
L 690.577509 77.773888 
L 690.698544 77.375053 
L 691.44142 76.976218 
L 691.720824 76.178548 
L 692.361928 74.583207 
L 692.810576 73.785536 
L 693.390444 73.386701 
L 693.75356 72.589031 
L 694.233918 71.79136 
L 695.348614 71.392525 
L 695.884829 70.99369 
L 696.5134 70.19602 
L 697.035856 69.797184 
L 697.544931 68.999514 
L 697.855884 68.600679 
L 698.460365 68.201844 
L 698.516523 67.803008 
L 698.773335 67.404173 
L 698.878185 67.005338 
L 699.942566 66.606503 
L 700.110714 66.207668 
L 700.704787 65.808832 
L 700.84268 65.409997 
L 701.34997 65.011162 
L 701.446078 64.612327 
L 701.926637 64.213492 
L 701.951773 63.814656 
L 702.499178 63.016986 
L 703.297343 62.618151 
L 703.697323 61.421645 
L 703.77187 61.02281 
L 705.164845 60.623975 
L 705.363444 60.22514 
L 706.044333 59.826304 
L 706.201408 58.629799 
L 706.640277 58.230964 
L 706.73788 57.832128 
L 707.67037 57.433293 
L 707.919986 57.034458 
L 708.672502 56.635623 
L 709.803214 56.236788 
L 709.958622 55.837952 
L 710.268904 55.439117 
L 710.288277 55.040282 
L 713.019328 54.641447 
L 713.076367 54.242612 
L 714.422679 53.046106 
L 715.05676 52.647271 
L 715.070174 52.248436 
L 716.297526 51.849601 
L 717.850028 50.653095 
L 718.642408 50.25426 
L 718.671905 49.855425 
L 721.189645 48.260084 
L 721.42315 47.861249 
L 721.848501 47.462413 
L 722.468868 47.063578 
L 722.591869 46.664743 
L 723.505692 46.265908 
L 725.212804 45.867073 
L 725.242031 45.468237 
L 726.234286 45.069402 
L 726.262498 44.670567 
L 726.516146 44.271732 
L 726.751978 43.474061 
L 727.064517 43.075226 
L 727.077923 42.676391 
L 728.41473 42.277556 
L 728.704101 41.878721 
L 731.72876 41.479885 
L 733.87124 41.08105 
L 734.001684 40.682215 
L 735.093687 40.28338 
L 735.788142 39.884545 
L 736.174757 39.485709 
L 737.02358 39.086874 
L 739.094855 38.289204 
L 740.078452 37.890369 
L 742.22994 37.491533 
L 742.329866 37.092698 
L 743.273571 36.693863 
L 747.813439 36.295028 
L 748.135758 35.896193 
L 750.340882 35.098522 
L 751.720279 33.902017 
L 753.371317 33.503181 
L 753.955004 33.104346 
L 756.577683 32.705511 
L 756.938937 32.306676 
L 758.30854 31.907841 
L 760.163053 31.509005 
L 760.76089 30.711335 
L 762.092248 30.3125 
L 763.936032 29.913665 
L 768.146799 29.514829 
L 768.303644 29.115994 
L 768.322643 28.717159 
L 776.434834 28.318324 
L 777.0359 27.919489 
L 783.844783 27.520653 
L 784.272565 27.121818 
L 784.272565 27.121818 
" clip-path="url(#p020d0eea2e)" style="fill: none; stroke: #ff7f0e; stroke-width: 1.5; stroke-linecap: square"/>
   </g>
   <g id="line2d_27">
    <path d="M 746.294926 425.558182 
L 747.373245 425.159347 
L 747.84934 424.760511 
L 761.793017 424.361676 
L 762.020876 423.962841 
L 764.333923 423.564006 
L 765.199968 423.165171 
L 766.998166 422.766335 
L 767.69947 422.3675 
L 772.745294 421.56983 
L 773.036928 421.170995 
L 776.15488 420.772159 
L 776.702977 420.373324 
L 776.97935 419.575654 
L 777.645198 419.176819 
L 778.884076 418.777983 
L 779.023172 418.379148 
L 780.281898 417.581478 
L 780.496573 416.783807 
L 780.682266 416.384972 
L 781.210165 415.986137 
L 781.770031 413.991961 
L 782.081999 413.593126 
L 783.619163 413.194291 
L 783.949197 412.795455 
L 783.952581 412.39662 
L 784.149331 411.997785 
L 784.196636 411.59895 
L 784.567232 411.200115 
L 784.614283 410.801279 
L 785.008799 410.402444 
L 785.251919 409.604774 
L 786.443497 408.807103 
L 786.75119 408.408268 
L 786.778144 408.009433 
L 787.007362 407.211763 
L 787.864683 406.414092 
L 788.068916 406.015257 
L 788.429505 405.616422 
L 788.439427 405.217587 
L 788.582995 404.818751 
L 788.861929 404.419916 
L 788.945392 404.021081 
L 789.962097 402.42574 
L 789.998222 402.026905 
L 790.155532 401.62807 
L 790.265753 400.830399 
L 790.41516 400.431564 
L 790.517389 399.235059 
L 790.729029 398.437388 
L 790.96912 396.842048 
L 791.621425 395.246707 
L 791.782337 394.050201 
L 792.013874 393.651366 
L 792.17576 392.45486 
L 792.319499 391.65719 
L 792.522891 391.258355 
L 792.840014 388.466508 
L 793.22768 386.871168 
L 793.630159 385.275827 
L 793.828094 384.876992 
L 794.061 383.680486 
L 794.154705 382.882816 
L 794.174408 382.48398 
L 794.416188 382.085145 
L 794.519459 380.88864 
L 794.909569 379.293299 
L 795.036086 378.495628 
L 795.274865 377.299123 
L 795.513078 376.900288 
L 796.406524 367.727078 
L 796.49068 366.530572 
L 796.552873 364.935232 
L 796.642291 364.536396 
L 796.904832 364.137561 
L 797.051844 361.74455 
L 797.204396 360.548044 
L 797.344318 358.155033 
L 797.473928 356.958528 
L 797.635041 353.369011 
L 797.733727 352.57134 
L 798.213423 347.386483 
L 798.378724 345.791142 
L 799.675643 333.427251 
L 799.769442 330.236569 
L 800.789741 317.473843 
L 800.9059 314.681997 
L 801.870411 295.936742 
L 801.991956 292.746061 
L 802.24526 287.960038 
L 802.428036 281.578675 
L 803.110163 264.827597 
L 803.216076 262.03575 
L 803.32049 260.44041 
L 803.426428 255.255552 
L 803.798736 242.09399 
L 803.971124 234.914957 
L 804.111565 228.932429 
L 804.268138 221.753395 
L 804.420247 213.377856 
L 804.642093 201.4128 
L 804.77973 195.430272 
L 804.895725 187.453568 
L 805.292426 155.945587 
L 805.483082 94.524967 
L 805.483082 27.121818 
L 805.483082 27.121818 
" clip-path="url(#p020d0eea2e)" style="fill: none; stroke: #2ca02c; stroke-width: 1.5; stroke-linecap: square"/>
   </g>
   <g id="patch_3">
    <path d="M 48.041719 445.48 
L 48.041719 7.2 
" style="fill: none; stroke: #000000; stroke-width: 0.8; stroke-linejoin: miter; stroke-linecap: square"/>
   </g>
   <g id="patch_4">
    <path d="M 841.551719 445.48 
L 841.551719 7.2 
" style="fill: none; stroke: #000000; stroke-width: 0.8; stroke-linejoin: miter; stroke-linecap: square"/>
   </g>
   <g id="patch_5">
    <path d="M 48.041719 445.48 
L 841.551719 445.48 
" style="fill: none; stroke: #000000; stroke-width: 0.8; stroke-linejoin: miter; stroke-linecap: square"/>
   </g>
   <g id="patch_6">
    <path d="M 48.041719 7.2 
L 841.551719 7.2 
" style="fill: none; stroke: #000000; stroke-width: 0.8; stroke-linejoin: miter; stroke-linecap: square"/>
   </g>
   <g id="legend_1">
    <g id="patch_7">
     <path d="M 393.515469 67.56 
L 496.077969 67.56 
Q 498.477969 67.56 498.477969 65.16 
L 498.477969 15.6 
Q 498.477969 13.2 496.077969 13.2 
L 393.515469 13.2 
Q 391.115469 13.2 391.115469 15.6 
L 391.115469 65.16 
Q 391.115469 67.56 393.515469 67.56 
z
" style="fill: #ffffff; opacity: 0.8; stroke: #cccccc; stroke-linejoin: miter"/>
    </g>
    <g id="line2d_28">
     <path d="M 395.915469 22.2 
L 407.915469 22.2 
L 419.915469 22.2 
" style="fill: none; stroke: #1f77b4; stroke-width: 1.5; stroke-linecap: square"/>
    </g>
    <g id="text_15">
     <!-- Treatment A -->
     <g transform="translate(429.515469 26.4) scale(0.12 -0.12)">
      <defs>
       <path id="Cambria-54" d="M 206 4266 
L 3588 4266 
L 3588 3178 
L 3281 3178 
Q 3213 3447 3145 3603 
Q 3078 3759 3003 3840 
Q 2928 3922 2842 3956 
Q 2756 3991 2584 3991 
L 2188 3991 
L 2188 791 
Q 2188 606 2208 497 
Q 2228 388 2270 323 
Q 2313 259 2384 223 
Q 2456 188 2609 153 
L 2609 0 
L 1181 0 
L 1181 153 
Q 1275 175 1347 200 
Q 1419 225 1464 261 
Q 1509 297 1539 353 
Q 1569 409 1586 506 
Q 1603 603 1603 791 
L 1603 3991 
L 1209 3991 
Q 1063 3991 967 3962 
Q 872 3934 790 3845 
Q 709 3756 642 3592 
Q 575 3428 516 3178 
L 206 3178 
L 206 4266 
z
" transform="scale(0.015625)"/>
       <path id="Cambria-72" d="M 1147 2469 
L 1191 2459 
Q 1363 2669 1509 2789 
Q 1656 2909 1826 2975 
Q 1997 3041 2213 3041 
Q 2394 3041 2541 3022 
L 2541 2303 
L 2188 2303 
Q 2113 2472 2028 2548 
Q 1944 2625 1797 2625 
Q 1684 2625 1573 2559 
Q 1463 2494 1359 2369 
Q 1256 2244 1217 2134 
Q 1178 2025 1178 1875 
L 1178 781 
Q 1178 497 1212 389 
Q 1247 281 1326 231 
Q 1406 181 1566 153 
L 1566 0 
L 306 0 
L 306 153 
Q 425 191 476 219 
Q 528 247 565 297 
Q 603 347 622 450 
Q 641 553 641 772 
L 641 2134 
Q 641 2334 634 2456 
Q 628 2578 590 2651 
Q 553 2725 476 2761 
Q 400 2797 259 2822 
L 259 2984 
L 991 3016 
L 1181 3016 
L 1147 2469 
z
" transform="scale(0.015625)"/>
       <path id="Cambria-65" d="M 2800 531 
Q 2600 322 2433 203 
Q 2266 84 2066 17 
Q 1866 -50 1625 -50 
Q 981 -50 653 336 
Q 325 722 325 1475 
Q 325 1941 492 2297 
Q 659 2653 968 2847 
Q 1278 3041 1681 3041 
Q 1997 3041 2219 2941 
Q 2441 2841 2573 2667 
Q 2706 2494 2779 2230 
Q 2853 1966 2863 1541 
L 894 1541 
L 894 1484 
Q 894 1116 976 864 
Q 1059 613 1248 470 
Q 1438 328 1741 328 
Q 1997 328 2201 423 
Q 2406 519 2609 734 
L 2800 531 
z
M 2275 1800 
Q 2256 2138 2190 2352 
Q 2125 2566 1994 2680 
Q 1863 2794 1650 2794 
Q 1328 2794 1136 2536 
Q 944 2278 909 1800 
L 2275 1800 
z
" transform="scale(0.015625)"/>
       <path id="Cambria-61" d="M 2109 447 
L 2063 459 
Q 1791 181 1552 65 
Q 1313 -50 1044 -50 
Q 806 -50 625 42 
Q 444 134 347 301 
Q 250 469 250 688 
Q 250 1144 701 1392 
Q 1153 1641 2056 1681 
L 2056 1884 
Q 2056 2209 1993 2396 
Q 1931 2584 1797 2671 
Q 1663 2759 1438 2759 
Q 1194 2759 1045 2631 
Q 897 2503 822 2247 
L 413 2247 
L 413 2653 
Q 713 2809 913 2882 
Q 1113 2956 1313 2998 
Q 1513 3041 1719 3041 
Q 2028 3041 2215 2942 
Q 2403 2844 2497 2641 
Q 2591 2438 2591 2028 
L 2591 941 
Q 2591 709 2594 614 
Q 2597 519 2612 437 
Q 2628 356 2659 307 
Q 2691 259 2752 225 
Q 2813 191 2950 153 
L 2950 0 
L 2094 0 
L 2109 447 
z
M 2056 1425 
Q 1422 1419 1106 1256 
Q 791 1094 791 766 
Q 791 588 862 484 
Q 934 381 1043 342 
Q 1153 303 1303 303 
Q 1516 303 1689 406 
Q 1863 509 1959 668 
Q 2056 828 2056 984 
L 2056 1425 
z
" transform="scale(0.015625)"/>
       <path id="Cambria-74" d="M 116 2831 
Q 272 2856 369 2918 
Q 466 2981 520 3079 
Q 575 3178 606 3326 
Q 638 3475 672 3759 
L 1116 3759 
L 1116 2988 
L 2125 2988 
L 2125 2672 
L 1116 2672 
L 1116 1281 
Q 1116 978 1141 798 
Q 1166 619 1234 517 
Q 1303 416 1390 372 
Q 1478 328 1616 328 
Q 1741 328 1850 379 
Q 1959 431 2066 528 
L 2206 359 
Q 1984 144 1786 47 
Q 1588 -50 1375 -50 
Q 972 -50 775 189 
Q 578 428 578 938 
L 578 2672 
L 116 2672 
L 116 2831 
z
" transform="scale(0.015625)"/>
       <path id="Cambria-6d" d="M 1147 2506 
L 1191 2494 
Q 1378 2681 1498 2776 
Q 1619 2872 1731 2930 
Q 1844 2988 1942 3013 
Q 2041 3038 2144 3038 
Q 2456 3038 2653 2894 
Q 2850 2750 2925 2453 
Q 3159 2691 3304 2803 
Q 3450 2916 3601 2977 
Q 3753 3038 3928 3038 
Q 4138 3038 4289 2977 
Q 4441 2916 4545 2789 
Q 4650 2663 4698 2472 
Q 4747 2281 4747 1959 
L 4747 781 
Q 4747 544 4762 453 
Q 4778 363 4808 313 
Q 4838 263 4897 227 
Q 4956 191 5097 153 
L 5097 0 
L 3869 0 
L 3869 153 
Q 3991 191 4044 219 
Q 4097 247 4133 297 
Q 4169 347 4189 451 
Q 4209 556 4209 769 
L 4209 1588 
Q 4209 1853 4195 2026 
Q 4181 2200 4151 2303 
Q 4122 2406 4080 2465 
Q 4038 2525 3984 2569 
Q 3931 2613 3859 2638 
Q 3788 2663 3669 2663 
Q 3544 2663 3436 2613 
Q 3328 2563 3201 2444 
Q 3075 2325 3019 2204 
Q 2963 2084 2963 1922 
L 2963 781 
Q 2963 544 2978 453 
Q 2994 363 3023 313 
Q 3053 263 3112 227 
Q 3172 191 3313 153 
L 3313 0 
L 2084 0 
L 2084 153 
Q 2206 191 2259 219 
Q 2313 247 2348 297 
Q 2384 347 2404 451 
Q 2425 556 2425 769 
L 2425 1588 
Q 2425 1866 2409 2041 
Q 2394 2216 2361 2322 
Q 2328 2428 2276 2493 
Q 2225 2559 2172 2593 
Q 2119 2628 2047 2645 
Q 1975 2663 1884 2663 
Q 1756 2663 1643 2605 
Q 1531 2547 1414 2437 
Q 1297 2328 1237 2209 
Q 1178 2091 1178 1953 
L 1178 781 
Q 1178 603 1187 509 
Q 1197 416 1217 362 
Q 1238 309 1269 276 
Q 1300 244 1358 214 
Q 1416 184 1531 153 
L 1531 0 
L 306 0 
L 306 153 
Q 425 191 476 219 
Q 528 247 565 297 
Q 603 347 622 450 
Q 641 553 641 772 
L 641 2134 
Q 641 2334 634 2456 
Q 628 2578 590 2651 
Q 553 2725 476 2761 
Q 400 2797 259 2822 
L 259 2988 
L 991 3016 
L 1181 3016 
L 1147 2506 
z
" transform="scale(0.015625)"/>
       <path id="Cambria-6e" d="M 3347 0 
L 2116 0 
L 2116 153 
Q 2238 191 2291 219 
Q 2344 247 2380 297 
Q 2416 347 2436 451 
Q 2456 556 2456 769 
L 2456 1588 
Q 2456 1806 2443 1984 
Q 2431 2163 2401 2277 
Q 2372 2391 2330 2455 
Q 2288 2519 2230 2564 
Q 2172 2609 2097 2636 
Q 2022 2663 1900 2663 
Q 1778 2663 1668 2614 
Q 1559 2566 1428 2447 
Q 1297 2328 1237 2212 
Q 1178 2097 1178 1947 
L 1178 781 
Q 1178 513 1203 408 
Q 1228 303 1298 248 
Q 1369 194 1528 153 
L 1528 0 
L 303 0 
L 303 153 
Q 425 191 476 219 
Q 528 247 564 297 
Q 600 347 620 450 
Q 641 553 641 772 
L 641 2134 
Q 641 2334 634 2456 
Q 628 2578 590 2651 
Q 553 2725 476 2761 
Q 400 2797 259 2822 
L 259 2988 
L 991 3016 
L 1181 3016 
L 1147 2506 
L 1191 2494 
Q 1422 2728 1564 2828 
Q 1706 2928 1851 2983 
Q 1997 3038 2159 3038 
Q 2328 3038 2461 2998 
Q 2594 2959 2695 2878 
Q 2797 2797 2862 2676 
Q 2928 2556 2961 2387 
Q 2994 2219 2994 1959 
L 2994 781 
Q 2994 566 3006 469 
Q 3019 372 3050 319 
Q 3081 266 3140 230 
Q 3200 194 3347 153 
L 3347 0 
z
" transform="scale(0.015625)"/>
       <path id="Cambria-20" transform="scale(0.015625)"/>
       <path id="Cambria-41" d="M 2488 0 
L 2488 153 
Q 2644 184 2720 221 
Q 2797 259 2834 326 
Q 2872 394 2872 506 
Q 2872 613 2847 736 
Q 2822 859 2775 1013 
L 2659 1416 
L 1203 1416 
L 1097 1109 
Q 1016 878 991 759 
Q 966 641 966 544 
Q 966 356 1061 268 
Q 1156 181 1353 153 
L 1353 0 
L 19 0 
L 19 153 
Q 194 181 323 356 
Q 453 531 575 856 
L 1878 4316 
L 2372 4316 
L 3434 831 
Q 3509 588 3567 459 
Q 3625 331 3706 259 
Q 3788 188 3928 153 
L 3928 0 
L 2488 0 
z
M 1288 1688 
L 2594 1688 
L 2000 3703 
L 1288 1688 
z
" transform="scale(0.015625)"/>
      </defs>
      <use xlink:href="#Cambria-54"/>
      <use xlink:href="#Cambria-72" x="55.902344"/>
      <use xlink:href="#Cambria-65" x="97.259766"/>
      <use xlink:href="#Cambria-61" x="146.039062"/>
      <use xlink:href="#Cambria-74" x="194.867188"/>
      <use xlink:href="#Cambria-6d" x="228.705078"/>
      <use xlink:href="#Cambria-65" x="311.908203"/>
      <use xlink:href="#Cambria-6e" x="360.6875"/>
      <use xlink:href="#Cambria-74" x="416.498047"/>
      <use xlink:href="#Cambria-20" x="450.335938"/>
      <use xlink:href="#Cambria-41" x="472.357422"/>
     </g>
    </g>
    <g id="line2d_29">
     <path d="M 395.915469 39.12 
L 407.915469 39.12 
L 419.915469 39.12 
" style="fill: none; stroke: #ff7f0e; stroke-width: 1.5; stroke-linecap: square"/>
    </g>
    <g id="text_16">
     <!-- Treatment B -->
     <g transform="translate(429.515469 43.32) scale(0.12 -0.12)">
      <defs>
       <path id="Cambria-42" d="M 378 0 
L 378 153 
Q 572 203 637 264 
Q 703 325 723 437 
Q 744 550 744 781 
L 744 3484 
Q 744 3700 728 3798 
Q 713 3897 677 3951 
Q 641 4006 581 4039 
Q 522 4072 378 4113 
L 378 4266 
L 2088 4266 
Q 2584 4266 2886 4159 
Q 3188 4053 3334 3845 
Q 3481 3638 3481 3309 
Q 3481 3038 3376 2838 
Q 3272 2638 3103 2506 
Q 2934 2375 2669 2263 
L 2669 2234 
Q 3094 2106 3312 1839 
Q 3531 1572 3531 1203 
Q 3531 778 3342 509 
Q 3153 241 2812 120 
Q 2472 0 1988 0 
L 378 0 
z
M 1875 2353 
Q 2350 2353 2601 2583 
Q 2853 2813 2853 3250 
Q 2853 3466 2783 3608 
Q 2713 3750 2589 3834 
Q 2466 3919 2297 3955 
Q 2128 3991 1931 3991 
Q 1813 3991 1619 3984 
Q 1425 3978 1328 3972 
L 1328 2353 
L 1875 2353 
z
M 1328 297 
Q 1556 275 1838 275 
Q 2247 275 2473 378 
Q 2700 481 2801 682 
Q 2903 884 2903 1188 
Q 2903 1491 2792 1687 
Q 2681 1884 2450 1981 
Q 2219 2078 1813 2078 
L 1328 2078 
L 1328 297 
z
" transform="scale(0.015625)"/>
      </defs>
      <use xlink:href="#Cambria-54"/>
      <use xlink:href="#Cambria-72" x="55.902344"/>
      <use xlink:href="#Cambria-65" x="97.259766"/>
      <use xlink:href="#Cambria-61" x="146.039062"/>
      <use xlink:href="#Cambria-74" x="194.867188"/>
      <use xlink:href="#Cambria-6d" x="228.705078"/>
      <use xlink:href="#Cambria-65" x="311.908203"/>
      <use xlink:href="#Cambria-6e" x="360.6875"/>
      <use xlink:href="#Cambria-74" x="416.498047"/>
      <use xlink:href="#Cambria-20" x="450.335938"/>
      <use xlink:href="#Cambria-42" x="472.357422"/>
     </g>
    </g>
    <g id="line2d_30">
     <path d="M 395.915469 56.04 
L 407.915469 56.04 
L 419.915469 56.04 
" style="fill: none; stroke: #2ca02c; stroke-width: 1.5; stroke-linecap: square"/>
    </g>
    <g id="text_17">
     <!-- Treatment C -->
     <g transform="translate(429.515469 60.24) scale(0.12 -0.12)">
      <defs>
       <path id="Cambria-43" d="M 3256 4175 
L 3256 3309 
L 2947 3309 
Q 2872 3581 2756 3742 
Q 2641 3903 2487 3972 
Q 2334 4041 2119 4041 
Q 1797 4041 1545 3827 
Q 1294 3613 1150 3183 
Q 1006 2753 1006 2144 
Q 1006 1531 1125 1098 
Q 1244 666 1475 445 
Q 1706 225 2044 225 
Q 2300 225 2462 298 
Q 2625 372 2736 531 
Q 2847 691 2947 1000 
L 3256 1000 
L 3256 106 
Q 2963 28 2655 -11 
Q 2347 -50 1978 -50 
Q 1184 -50 778 487 
Q 372 1025 372 2091 
Q 372 2759 583 3262 
Q 794 3766 1203 4041 
Q 1613 4316 2181 4316 
Q 2466 4316 2706 4286 
Q 2947 4256 3256 4175 
z
" transform="scale(0.015625)"/>
      </defs>
      <use xlink:href="#Cambria-54"/>
      <use xlink:href="#Cambria-72" x="55.902344"/>
      <use xlink:href="#Cambria-65" x="97.259766"/>
      <use xlink:href="#Cambria-61" x="146.039062"/>
      <use xlink:href="#Cambria-74" x="194.867188"/>
      <use xlink:href="#Cambria-6d" x="228.705078"/>
      <use xlink:href="#Cambria-65" x="311.908203"/>
      <use xlink:href="#Cambria-6e" x="360.6875"/>
      <use xlink:href="#Cambria-74" x="416.498047"/>
      <use xlink:href="#Cambria-20" x="450.335938"/>
      <use xlink:href="#Cambria-43" x="472.357422"/>
     </g>
    </g>
   </g>
  </g>
 </g>
 <defs>
  <clipPath id="p020d0eea2e">
   <rect x="48.041719" y="7.2" width="793.51" height="438.28"/>
  </clipPath>
 </defs>
</svg>
